<svg width="97" height="96" viewBox="0 0 97 96" fill="none" xmlns="http://www.w3.org/2000/svg">
<mask id="mask0_114_135" style="mask-type:alpha" maskUnits="userSpaceOnUse" x="0" y="0" width="97" height="96">
<path d="M47.2038 16.8948C42.9838 17.5148 37.0437 16.8248 33.4937 13.0948C29.2037 8.57481 28.5237 2.59481 30.4737 0.734805C30.8637 0.354805 31.3537 0.144806 31.9437 0.144806C32.0337 0.174806 32.1237 0.204805 32.2137 0.234805C33.8137 0.824805 35.0937 2.41481 36.2237 4.07481C37.6237 6.13481 38.8038 8.31481 40.1438 8.90481C42.6238 9.99481 46.0137 14.6948 51.5037 15.4348C50.6837 16.0848 49.1138 16.6148 47.2038 16.8948Z" fill="url(#paint0_linear_114_135)"/>
<path d="M34.7638 4.65481C34.7638 4.65481 30.2537 1.82481 32.2137 0.224808C33.4937 0.704808 34.5838 1.82481 35.5438 3.11481C35.7738 3.41481 36.0037 3.74481 36.2237 4.06481C35.3637 4.33481 34.9937 4.50481 34.8537 4.60481C34.7937 4.64481 34.7638 4.65481 34.7638 4.65481Z" fill="url(#paint1_linear_114_135)"/>
<path d="M47.2038 16.8948C42.9838 17.5148 37.0437 16.8248 33.4937 13.0948C29.2037 8.5748 28.5237 2.5948 30.4737 0.734802C29.2737 3.1648 30.7937 6.3748 34.4637 8.2348C38.9537 10.5148 44.7038 12.0748 47.2038 16.8948Z" fill="url(#paint2_linear_114_135)"/>
<path d="M44.6037 19.2248C39.7037 19.5448 33.9737 19.1848 30.7937 19.6148C24.3837 20.4848 17.7737 16.9748 17.7737 16.9748C17.7737 16.9748 15.5738 17.5848 9.95375 14.5548C3.46375 12.2348 3.04374 7.92481 4.56374 6.21481C4.85374 5.88481 5.21375 5.64481 5.60375 5.54481C5.82375 5.48481 6.04373 5.44481 6.24373 5.42481C7.88373 5.26481 9.70374 6.12481 12.0637 7.02481C13.1537 7.44481 14.3837 7.88481 15.7437 8.22481C20.4337 9.40481 23.0638 7.74481 31.0138 9.38481C38.9738 11.0148 44.4737 15.9148 53.4637 14.7548C53.6637 17.9248 49.5537 18.9148 44.6037 19.2248Z" fill="url(#paint3_linear_114_135)"/>
<path d="M10.5338 8.36481C9.30376 8.23481 7.27378 7.93481 6.45378 7.24481C6.45378 7.24481 6.21376 6.91481 6.25376 5.43481C7.64376 5.30481 9.17376 5.90481 11.0638 6.64481C11.3938 6.76481 11.7238 6.90481 12.0738 7.03481C12.0638 7.41481 11.8738 7.77481 11.5838 8.03481C11.5238 8.09481 11.4638 8.13481 11.3838 8.17481C11.1338 8.32481 10.8338 8.39481 10.5338 8.36481Z" fill="url(#paint4_linear_114_135)"/>
<path d="M30.7937 19.6148C24.3837 20.4848 17.7737 16.9748 17.7737 16.9748C17.7737 16.9748 15.5738 17.5848 9.95375 14.5548C3.46375 12.2348 3.04374 7.92481 4.56374 6.21481C5.98374 12.0548 14.3637 15.2048 17.9937 12.1748C21.5537 17.3248 24.9537 17.5348 28.9337 14.2848C32.4637 17.1348 35.3337 16.4448 41.6837 15.9548C46.6237 15.5748 46.3837 17.2548 44.6137 19.2148C39.7037 19.5448 33.9737 19.1948 30.7937 19.6148Z" fill="url(#paint5_linear_114_135)"/>
<path d="M68.8337 95.2948C65.8838 87.5148 60.9538 80.2148 52.4438 75.4448C46.3838 72.0348 35.9837 67.6348 31.9038 59.2048C31.1638 57.7048 30.6338 56.0648 30.3838 54.2848C30.3538 54.1348 30.3338 53.9748 30.3138 53.8048C29.8838 50.1748 30.8038 46.5448 32.5638 43.3448C32.8638 42.8048 33.1838 42.2648 33.5338 41.7548C34.1938 40.7748 34.8838 39.8948 35.6038 39.0948C38.8538 35.4348 42.5238 33.5548 46.6338 31.3348C46.6338 31.3348 42.6238 31.3048 41.0338 27.0248C37.3238 28.5448 29.7638 26.2948 27.9038 24.0648C27.9038 24.0648 24.3138 29.4548 16.8238 28.4148C15.8438 29.1248 14.8938 29.6948 13.9538 30.1148C11.4038 31.3148 9.03375 31.5848 7.15375 31.5348C5.74375 31.5148 4.60375 31.2948 3.84375 31.1548C3.42375 31.0748 2.98375 30.9348 2.55375 30.7148C2.15375 30.5248 1.76376 30.2648 1.41376 29.9748C0.533762 29.2148 -0.0562494 28.1548 0.183751 26.9548C0.213751 26.8048 0.263765 26.6348 0.323765 26.4748C0.383765 26.2848 0.473754 26.0948 0.593754 25.8848C1.47375 24.3448 3.92376 23.1248 6.38376 22.0248C7.66376 21.4348 8.92376 20.9048 9.97376 20.3648C13.0538 18.8148 17.9338 15.7948 22.0738 13.9548C26.2138 12.1148 30.3938 11.6748 34.3538 11.5848C38.3138 11.4748 43.9038 11.7748 48.2838 13.4748C52.6638 15.1648 55.3638 14.8548 58.4838 14.9548C59.5238 14.9848 60.7137 15.0848 61.8637 15.4548C64.1537 16.1848 66.3238 17.9548 67.1538 22.1548C68.4038 28.4748 70.5738 44.7848 74.0638 51.3548C77.5438 57.9348 80.9738 62.0848 84.4538 66.3148C87.9338 70.5348 96.5138 78.2748 96.5138 78.2748C96.5138 78.2748 93.1338 83.9648 86.7338 88.7648C84.8838 90.1448 82.7938 91.4648 80.4438 92.5248C77.0838 94.1248 73.2038 95.1848 68.8337 95.2948Z" fill="url(#paint6_linear_114_135)"/>
<path d="M43.7338 64.6948C42.5238 64.4748 41.2538 64.1448 39.9138 63.7048C36.9538 62.7048 34.2738 61.0748 31.9138 59.2048C28.2238 56.2848 25.2838 52.7648 23.2338 50.2248C18.0138 48.4948 14.9838 42.1848 10.7938 40.2748C9.60376 39.7248 8.37374 39.1548 7.21374 38.5648C4.39374 37.1748 1.98376 35.6948 1.41376 34.3248C1.39376 34.2948 1.37374 34.2548 1.36374 34.2248C0.913738 32.9048 1.07375 31.5348 2.56375 30.7348C2.90375 30.5548 3.32376 30.3948 3.82376 30.2748C4.36376 30.1448 4.99375 30.0648 5.72375 30.0448C7.95375 29.9548 10.9538 29.8948 13.9538 30.1348C17.2138 30.4248 20.4738 31.0948 22.7538 32.5448C24.0438 33.3648 25.1537 34.1948 26.1537 34.9748C28.5237 36.8148 30.3038 38.3848 32.6738 39.0948C33.4138 39.3148 34.4238 39.2948 35.6038 39.1048C36.4938 38.9648 37.4538 38.7148 38.4838 38.3848C42.2238 37.2048 46.6238 35.0148 49.4438 33.0648C54.0738 29.8848 58.3038 25.1748 63.0438 30.1148C67.5538 34.8048 66.7538 68.8848 43.7338 64.6948Z" fill="url(#paint7_linear_114_135)"/>
<path d="M0.323761 26.4948C0.383761 26.3048 0.47375 26.1148 0.59375 25.9048C1.37375 24.5448 3.35375 23.4548 5.50375 22.4448C5.79375 22.3248 6.08376 22.1848 6.38376 22.0548C6.96376 22.6748 7.14374 23.0448 7.21375 23.2248C7.23375 23.3048 7.24374 23.3448 7.24374 23.3448C7.24374 23.3448 4.62375 25.1448 3.47375 26.4548C2.20375 26.1448 1.05376 26.2948 0.323761 26.4948Z" fill="url(#paint8_linear_114_135)"/>
<path d="M86.7437 88.7948C87.7837 69.0248 78.9438 65.1648 72.1438 57.8148C64.8738 49.9648 66.4637 38.0748 66.3438 30.4248C66.2438 23.9748 66.3937 18.8348 61.8737 15.4848C64.1637 16.2148 66.3338 17.9848 67.1638 22.1848C68.4138 28.5048 70.5838 44.8148 74.0738 51.3848C77.5538 57.9648 80.9837 62.1148 84.4637 66.3448C87.9437 70.5648 96.5237 78.3048 96.5237 78.3048C96.5237 78.3048 93.1437 83.9848 86.7437 88.7948Z" fill="url(#paint9_linear_114_135)"/>
<path d="M32.6738 39.0948C33.4138 39.3148 34.4238 39.2948 35.6038 39.1048C36.4938 38.9648 37.4538 38.7148 38.4838 38.3848C36.4838 39.7148 33.7138 41.6148 32.5738 43.3448C30.3338 40.3248 28.0737 37.3148 26.1537 34.9748C28.5137 36.8148 30.2938 38.3948 32.6738 39.0948Z" fill="url(#paint10_linear_114_135)"/>
<path d="M68.8337 95.2948C65.8838 87.5148 60.9538 80.2148 52.4438 75.4448C46.3838 72.0348 35.9838 67.6348 31.9038 59.2048C28.2138 56.2848 25.2738 52.7648 23.2238 50.2248C18.0038 48.4948 14.9738 42.1848 10.7838 40.2748C9.59376 39.7248 8.36377 39.1548 7.20377 38.5648C4.38377 37.1748 1.97375 35.6948 1.40375 34.3248C1.38375 34.2948 1.36377 34.2548 1.35377 34.2248C0.903766 32.9048 1.06375 31.5348 2.55375 30.7348C2.15375 30.5448 1.76376 30.2848 1.41376 29.9948C2.27376 29.9948 3.07376 30.1048 3.81376 30.2748C5.08376 30.5648 6.19377 31.0148 7.14377 31.5548C9.10377 32.6548 10.4038 34.0348 11.0038 34.7348C12.3638 36.2948 12.4038 37.9448 14.5738 38.3448C15.6238 39.4648 16.6438 38.7248 16.6438 38.7248C16.6438 38.7248 17.4338 45.4748 22.9638 46.8048C25.0438 49.8248 27.8038 52.3448 30.3838 54.2848C34.3938 57.3448 37.9938 58.9848 37.9938 58.9848C37.9938 58.9848 40.3938 61.7748 43.7338 64.6948C45.6938 66.4248 47.9738 68.1748 50.2738 69.4548C56.1738 72.7148 74.9338 74.5948 80.4638 92.5648C77.0838 94.1248 73.2038 95.1848 68.8337 95.2948Z" fill="url(#paint11_linear_114_135)"/>
<path d="M7.20377 38.5648C7.04377 38.4848 6.88376 38.4148 6.73376 38.3348C4.12376 37.0048 1.94376 35.6248 1.41376 34.3348C1.70376 33.0248 2.70376 31.9448 3.91376 31.9348C6.94376 32.8248 9.50375 35.7348 9.50375 35.7348C9.50375 35.7348 9.39376 35.9748 9.16376 36.3448C8.80376 36.9248 8.16377 37.8148 7.20377 38.5648Z" fill="url(#paint12_linear_114_135)"/>
<path d="M32.5638 43.3448C32.8638 42.8048 33.1838 42.2648 33.5338 41.7548C34.1938 40.7748 34.8838 39.8948 35.6038 39.0948C38.8538 35.4348 42.5238 33.5548 46.6338 31.3348C46.6338 31.3348 42.6238 31.3048 41.0338 27.0248C37.3238 28.5448 29.7638 26.2948 27.9038 24.0648C27.9038 24.0648 24.3138 29.4548 16.8238 28.4148C15.8438 29.1248 14.8938 29.6948 13.9538 30.1148C11.4038 31.3148 9.03375 31.5848 7.15375 31.5348C5.74375 31.5148 4.60375 31.2948 3.84375 31.1548C3.42375 31.0748 2.98375 30.9348 2.55375 30.7148C2.15375 30.5248 1.76376 30.2648 1.41376 29.9748C0.533762 29.2148 -0.0562494 28.1548 0.183751 26.9548C3.62375 31.3248 12.4938 28.8648 15.4538 24.5248C18.4938 25.5048 25.0138 25.4748 28.2338 19.2648C30.0738 23.5248 35.6038 25.1848 41.6738 23.6748C47.7438 22.1648 44.5038 21.6248 48.6038 24.2348C52.6938 26.8548 55.1138 22.8448 56.0638 23.6948C57.0038 24.5548 52.6637 27.0448 55.5237 31.6848C51.2137 32.4148 44.4938 35.9048 42.0638 42.8048C42.0638 42.8048 39.4138 40.6248 36.3938 41.3748C34.6938 41.8148 33.3938 42.7948 32.5638 43.3448Z" fill="url(#paint13_linear_114_135)"/>
<path d="M23.5038 49.3448C23.0638 48.6348 22.7938 47.8248 22.5938 47.0148C22.3938 46.1948 22.3038 45.3648 22.2938 44.5148L22.9438 44.5348C22.8538 46.0748 22.7238 47.6148 22.4038 49.1448C22.2338 47.5948 22.2438 46.0448 22.2938 44.5048C22.3038 44.3248 22.4538 44.1848 22.6338 44.1948C22.8038 44.2048 22.9438 44.3448 22.9438 44.5148V44.5248C22.9538 45.3148 23.0238 46.1348 23.1038 46.9348C23.1838 47.7348 23.3238 48.5348 23.5038 49.3448Z" fill="#E08172"/>
<path d="M16.9138 44.2948C16.4938 42.8648 16.4937 41.3648 16.5837 39.9048C16.6437 39.1748 16.7237 38.4448 16.8437 37.7348L17.0038 36.6648C17.0638 36.3048 17.1237 35.9548 17.0537 35.5948C17.4137 36.2748 17.3237 37.0648 17.3437 37.7848C17.3437 38.5148 17.2838 39.2448 17.2338 39.9648C17.1238 41.4048 17.0038 42.8248 16.9138 44.2948Z" fill="#E08172"/>
<path d="M14.7137 35.7348C14.8437 36.8248 14.7838 37.9048 14.7038 38.9648L14.5338 40.5448C14.4838 41.0748 14.4138 41.5848 14.4538 42.1348C14.1438 41.6648 14.0737 41.0848 14.0237 40.5448C13.9737 39.9948 14.0038 39.4548 14.0438 38.9148C14.1638 37.8348 14.3437 36.7748 14.7137 35.7348Z" fill="#E08172"/>
<path d="M15.3138 23.8448C15.6338 24.5248 15.8137 25.1748 16.0237 25.8248C16.2137 26.4748 16.4038 27.1048 16.6338 27.8048C16.2938 27.6148 16.0638 27.3248 15.8538 27.0148C15.6438 26.7048 15.5138 26.3648 15.3938 26.0148C15.2938 25.6648 15.2237 25.3048 15.2137 24.9348C15.2037 24.5748 15.2138 24.2048 15.3138 23.8448Z" fill="#E08172"/>
<path d="M28.2638 18.6748C28.2838 19.5748 28.1738 20.4048 28.0738 21.2448L27.7038 23.7748C27.4938 23.3648 27.4238 22.9148 27.3838 22.4748C27.3338 22.0348 27.3738 21.5948 27.4238 21.1548C27.4838 20.7248 27.5737 20.2948 27.7137 19.8748C27.8637 19.4648 28.0238 19.0548 28.2638 18.6748Z" fill="#E08172"/>
<path d="M46.1438 23.6448C45.9238 24.1148 45.6238 24.5448 45.2838 24.9448C44.9538 25.3448 44.5538 25.6948 44.1438 26.0048C43.7138 26.3048 43.2637 26.5748 42.7737 26.7648C42.2837 26.9448 41.7638 27.0948 41.2338 27.0648C42.1538 26.5948 42.9638 26.0648 43.7638 25.4848C44.5538 24.9048 45.3038 24.2648 46.1438 23.6448Z" fill="#E08172"/>
<path d="M55.2638 24.4348C54.8238 25.2348 54.3138 25.9848 53.7338 26.6848C53.1638 27.3948 52.5038 28.0348 51.8238 28.6348C51.1238 29.2148 50.3838 29.7548 49.5738 30.1948C48.7738 30.6348 47.9338 31.0248 47.0438 31.2048C48.6238 30.3248 50.0437 29.2748 51.4037 28.1348C52.7437 26.9848 53.9938 25.7248 55.2638 24.4348Z" fill="#E08172"/>
<path opacity="0.35" d="M18.0837 12.7548C18.3037 13.4048 18.3137 14.0548 18.2437 14.7048C18.1937 15.0248 18.1337 15.3548 17.9937 15.6548C17.8637 15.9548 17.7138 16.2948 17.4138 16.4848C17.4838 16.1548 17.4838 15.8548 17.5138 15.5448C17.5238 15.2348 17.5638 14.9248 17.6038 14.6148C17.6938 14.0048 17.8037 13.3848 18.0837 12.7548Z" fill="#E08172"/>
<path opacity="0.35" d="M28.3137 15.4748C28.5137 15.9448 28.5337 16.3748 28.5237 16.8048C28.4937 17.2348 28.4238 17.6448 28.2338 18.1048C28.0638 17.9048 27.9937 17.6748 27.9337 17.4548C27.8737 17.2248 27.8637 17.0048 27.8737 16.7748C27.8937 16.5548 27.9137 16.3248 27.9937 16.1148C28.0637 15.8848 28.1537 15.6748 28.3137 15.4748Z" fill="#E08172"/>
<path opacity="0.68" d="M7.20377 38.5648C7.04377 38.4848 6.88376 38.4148 6.73376 38.3348C7.01376 37.7448 7.69375 37.0648 9.15375 36.3448C8.80375 36.9248 8.16377 37.8148 7.20377 38.5648Z" fill="#F8917F"/>
<path opacity="0.68" d="M7.21375 23.2248C6.45375 23.1548 5.88375 22.7948 5.50375 22.4448C5.79375 22.3248 6.08376 22.1848 6.38376 22.0548C6.95376 22.6748 7.14375 23.0348 7.21375 23.2248Z" fill="#F8917F"/>
<path opacity="0.68" d="M11.3938 8.16481C11.2338 7.85481 11.0738 7.37481 11.0638 6.63481C11.3938 6.75481 11.7238 6.89481 12.0738 7.02481C12.0638 7.40481 11.8737 7.76481 11.5837 8.02481C11.5237 8.08481 11.4638 8.13481 11.3938 8.16481Z" fill="#F8917F"/>
<path opacity="0.68" d="M34.8538 4.60481C34.8738 4.19481 34.9937 3.55481 35.5537 3.11481C35.7837 3.41481 36.0138 3.74481 36.2338 4.06481C35.3638 4.34481 35.0038 4.51481 34.8538 4.60481Z" fill="#F8917F"/>
</mask>
<g mask="url(#mask0_114_135)">
<rect x="-22" y="-13" width="125" height="132" fill="white"/>
</g>
<defs>
<linearGradient id="paint0_linear_114_135" x1="35.8241" y1="0.026212" x2="43.1313" y2="16.9604" gradientUnits="userSpaceOnUse">
<stop offset="0.00047536" stop-color="#F59F77"/>
<stop offset="0.3758" stop-color="#EE9470"/>
<stop offset="1" stop-color="#DB7960"/>
</linearGradient>
<linearGradient id="paint1_linear_114_135" x1="30.8224" y1="-1.14755" x2="34.8126" y2="3.9569" gradientUnits="userSpaceOnUse">
<stop offset="0.00047536" stop-color="#F59F77"/>
<stop offset="0.3758" stop-color="#EE9470"/>
<stop offset="1" stop-color="#DB7960"/>
</linearGradient>
<linearGradient id="paint2_linear_114_135" x1="37.1935" y1="0.0218002" x2="39.0616" y2="17.7662" gradientUnits="userSpaceOnUse">
<stop offset="0.00047536" stop-color="#F39067"/>
<stop offset="0.3683" stop-color="#EA8561"/>
<stop offset="1" stop-color="#D46951"/>
</linearGradient>
<linearGradient id="paint3_linear_114_135" x1="25.6295" y1="8.03227" x2="66.4206" y2="65.1352" gradientUnits="userSpaceOnUse">
<stop offset="0.00047536" stop-color="#F59F77"/>
<stop offset="0.3758" stop-color="#EE9470"/>
<stop offset="1" stop-color="#DB7960"/>
</linearGradient>
<linearGradient id="paint4_linear_114_135" x1="4.00022" y1="5.6884" x2="10.0727" y2="7.30941" gradientUnits="userSpaceOnUse">
<stop offset="0.00047536" stop-color="#F59F77"/>
<stop offset="0.3758" stop-color="#EE9470"/>
<stop offset="1" stop-color="#DB7960"/>
</linearGradient>
<linearGradient id="paint5_linear_114_135" x1="23.8828" y1="4.19014" x2="25.6757" y2="21.2198" gradientUnits="userSpaceOnUse">
<stop offset="0.00047536" stop-color="#F39067"/>
<stop offset="0.3683" stop-color="#EA8561"/>
<stop offset="1" stop-color="#D46951"/>
</linearGradient>
<linearGradient id="paint6_linear_114_135" x1="55.4362" y1="14.2089" x2="41.4567" y2="90.2532" gradientUnits="userSpaceOnUse">
<stop offset="0.00047536" stop-color="#F8C5A1"/>
<stop offset="0.7338" stop-color="#F9BA9A"/>
<stop offset="1" stop-color="#FAB597"/>
</linearGradient>
<linearGradient id="paint7_linear_114_135" x1="35.8557" y1="23.6786" x2="28.8218" y2="61.9408" gradientUnits="userSpaceOnUse">
<stop offset="0.00047536" stop-color="#F8C5A1"/>
<stop offset="0.7338" stop-color="#F9BA9A"/>
<stop offset="1" stop-color="#FAB597"/>
</linearGradient>
<linearGradient id="paint8_linear_114_135" x1="0.593854" y1="26.5461" x2="7.37014" y2="22.8397" gradientUnits="userSpaceOnUse">
<stop offset="0.00047536" stop-color="#F7B08A"/>
<stop offset="0.3919" stop-color="#F1A583"/>
<stop offset="1" stop-color="#E38C72"/>
</linearGradient>
<linearGradient id="paint9_linear_114_135" x1="84.2376" y1="19.5787" x2="72.014" y2="86.0715" gradientUnits="userSpaceOnUse">
<stop offset="0.00047536" stop-color="#F7B08A"/>
<stop offset="0.3919" stop-color="#F1A583"/>
<stop offset="1" stop-color="#E38C72"/>
</linearGradient>
<linearGradient id="paint10_linear_114_135" x1="32.4323" y1="36.1243" x2="31.1543" y2="43.0763" gradientUnits="userSpaceOnUse">
<stop offset="0.00047536" stop-color="#F7B08A"/>
<stop offset="0.3919" stop-color="#F1A583"/>
<stop offset="1" stop-color="#E38C72"/>
</linearGradient>
<linearGradient id="paint11_linear_114_135" x1="45.2585" y1="37.8712" x2="35.8195" y2="89.2169" gradientUnits="userSpaceOnUse">
<stop offset="0.00047536" stop-color="#F7B08A"/>
<stop offset="0.3919" stop-color="#F1A583"/>
<stop offset="1" stop-color="#E38C72"/>
</linearGradient>
<linearGradient id="paint12_linear_114_135" x1="1.48331" y1="32.8085" x2="8.10365" y2="36.6061" gradientUnits="userSpaceOnUse">
<stop offset="0.00047536" stop-color="#F7B08A"/>
<stop offset="0.3919" stop-color="#F1A583"/>
<stop offset="1" stop-color="#E38C72"/>
</linearGradient>
<linearGradient id="paint13_linear_114_135" x1="29.8096" y1="18.7978" x2="25.5363" y2="42.0435" gradientUnits="userSpaceOnUse">
<stop offset="0.00047536" stop-color="#F7B08A"/>
<stop offset="0.3919" stop-color="#F1A583"/>
<stop offset="1" stop-color="#E38C72"/>
</linearGradient>
</defs>
</svg>
