<svg width="100" height="100" viewBox="0 0 100 100" fill="none" xmlns="http://www.w3.org/2000/svg">
<mask id="mask0_114_132" style="mask-type:alpha" maskUnits="userSpaceOnUse" x="0" y="0" width="100" height="100">
<path d="M9.58376 29.147C12.7938 33.057 16.0938 36.817 20.3138 40.147C24.5138 43.477 23.5738 46.067 23.0438 49.187C22.5138 52.317 22.3938 54.017 22.3938 54.017C21.2638 52.657 20.1838 51.467 19.1038 50.397C15.4038 46.667 11.9038 44.097 8.33376 39.427C3.94376 33.687 2.44376 31.117 3.19376 28.647C3.22376 28.507 3.26376 28.367 3.32376 28.237C4.35376 25.617 6.38376 25.227 9.58376 29.147Z" fill="url(#paint0_linear_114_132)"/>
<path d="M14.7538 43.187C16.5538 43.197 17.5738 46.687 19.0938 50.387C15.3938 46.657 11.8938 44.087 8.32375 39.417C3.93375 33.677 2.43375 31.107 3.18375 28.637C4.36375 33.307 8.23375 36.527 9.84375 36.527C11.7538 36.527 11.3938 43.187 14.7538 43.187Z" fill="url(#paint1_linear_114_132)"/>
<path d="M27.8738 36.297C27.3538 38.067 26.5238 40.487 25.5838 42.457C24.1638 45.477 22.4938 47.467 21.4138 44.397C19.9238 40.157 20.6638 41.087 17.7038 39.007C14.7438 36.937 9.29375 30.377 6.11375 26.147C2.93375 21.917 0.313752 16.827 0.023752 14.587C-0.076248 13.837 0.143752 13.027 0.603752 12.387C1.51375 11.087 3.33375 10.437 5.31375 12.177C8.28375 14.797 14.9038 22.947 18.4138 25.987C21.9238 28.997 29.1638 31.827 27.8738 36.297Z" fill="url(#paint2_linear_114_132)"/>
<path d="M14.2238 31.807C18.1338 40.387 22.7038 36.217 25.5838 42.447C24.1638 45.467 22.4938 47.457 21.4138 44.387C19.9238 40.147 20.6638 41.077 17.7038 38.997C14.7438 36.927 9.29375 30.367 6.11375 26.137C2.93375 21.907 0.313752 16.817 0.023752 14.577C-0.076248 13.827 0.143752 13.017 0.603752 12.377C0.473752 16.137 3.15375 20.807 6.58375 22.857C10.7338 25.317 5.87375 27.167 14.2238 31.807Z" fill="url(#paint3_linear_114_132)"/>
<path d="M30.8637 24.107C34.3037 27.967 34.8737 31.387 33.4537 33.227C32.2837 34.787 29.7037 35.227 26.2737 33.877C22.9137 29.637 20.9437 31.317 15.8337 25.187C10.7037 19.077 4.89374 14.407 1.50374 8.96698C-1.04626 4.88698 0.333744 2.44698 1.82374 1.48698C2.31374 1.16698 2.83374 0.996979 3.20374 0.996979C4.73374 0.996979 6.09374 1.15698 14.8637 9.92698C23.6237 18.697 24.5137 16.977 30.8637 24.107Z" fill="url(#paint4_linear_114_132)"/>
<path d="M33.4537 33.227C32.2837 34.787 29.7037 35.227 26.2737 33.877C22.9137 29.637 20.9437 31.317 15.8337 25.187C10.7037 19.077 4.89374 14.407 1.50374 8.96698C-1.04626 4.88698 0.333744 2.44698 1.82374 1.48698C0.503744 3.96698 1.31374 8.83698 7.51374 12.377C8.08374 15.697 11.9237 20.237 15.6337 21.117C19.3437 21.997 19.2237 30.607 28.1337 31.047C31.6637 31.227 33.0637 32.167 33.4537 33.227Z" fill="url(#paint5_linear_114_132)"/>
<path d="M63.2038 15.837C64.8838 17.757 65.7038 20.767 65.7038 20.767C65.7038 20.767 72.2338 25.617 75.7638 35.517C77.5238 43.107 76.6338 58.977 76.6338 58.977C76.6338 58.977 77.3838 59.597 78.6738 60.607C82.5338 63.657 91.3338 70.247 99.3038 73.877C99.8238 78.377 96.6238 86.337 89.6838 92.677C86.7638 95.357 83.1638 97.757 78.9038 99.477C71.7938 90.617 66.7538 84.957 56.3338 78.867C51.7438 77.977 43.2338 74.767 38.8538 72.247C34.4938 69.727 28.7038 62.527 23.1038 55.777C22.8338 55.457 22.5838 55.147 22.3638 54.857C17.8138 49.097 20.9338 49.667 20.9338 45.057C20.9338 40.207 23.8138 39.357 24.9038 35.347C26.0138 31.327 28.7638 27.497 31.8338 26.857C26.5138 24.177 22.3038 18.677 19.7438 17.107C10.1738 10.717 3.69376 4.24698 7.41376 0.766979L7.42376 0.756979C11.1438 -2.68302 22.2538 6.71698 22.2538 6.71698C22.2538 6.71698 24.1638 7.27698 28.9838 11.327C31.0238 12.717 39.3738 17.607 45.1138 23.347C50.8538 29.077 58.0038 30.707 58.0038 30.707C58.0038 30.707 56.3538 28.707 55.9138 25.677C53.3638 21.757 51.1138 15.627 52.5338 10.927C52.7538 10.207 53.0038 9.55698 53.2838 8.96698C53.3038 8.92698 53.3138 8.90698 53.3438 8.87698C54.9138 5.68698 57.3138 4.56698 58.7338 6.27698C60.3938 8.30698 61.5338 13.927 63.2038 15.837Z" fill="url(#paint6_linear_114_132)"/>
<path d="M63.2037 15.837C64.8837 17.757 65.7037 20.767 65.7037 20.767C65.7037 20.767 72.2337 25.617 75.7637 35.517C77.5237 43.107 76.6337 58.977 76.6337 58.977C76.6337 58.977 77.3837 59.597 78.6737 60.607C77.7837 64.367 75.8037 71.277 72.8937 72.987C68.8337 75.367 66.2837 77.317 75.5037 85.227C80.7637 89.727 86.0837 91.767 89.6837 92.677C86.7637 95.357 83.1637 97.757 78.9037 99.477C71.7937 90.617 66.7537 84.957 56.3337 78.867C51.7437 77.977 43.2337 74.767 38.8537 72.247C34.4937 69.727 28.7037 62.527 23.1037 55.777C22.8337 55.457 22.5837 55.147 22.3637 54.857C26.4637 58.227 33.4437 62.997 38.9437 61.917C41.6337 69.207 52.8637 72.647 58.7737 69.107C64.6837 65.577 60.6637 66.587 59.8737 56.607C59.0837 46.627 66.4137 42.567 69.1137 37.317C71.8037 32.057 68.4737 31.317 64.7737 31.317C61.0637 31.317 61.4237 28.417 60.9237 25.377C60.4237 22.357 60.1837 23.017 57.6737 21.997C55.1537 20.977 58.5137 12.157 57.5837 8.75698C56.8637 6.11698 55.0237 6.41698 53.3437 8.86698C54.9137 5.67698 57.3137 4.55698 58.7337 6.26698C60.3937 8.30698 61.5337 13.927 63.2037 15.837Z" fill="url(#paint7_linear_114_132)"/>
<path d="M40.7838 25.617C36.6938 24.467 31.8338 26.857 31.8338 26.857C26.5138 24.177 22.3038 18.677 19.7438 17.107C10.1738 10.717 3.69376 4.24697 7.41376 0.766973L7.42376 0.756973C7.65376 6.00697 13.2138 10.867 15.0938 10.867C17.0838 10.867 19.3238 16.687 24.3738 15.297C29.4238 13.897 23.1338 21.907 33.3138 23.257C38.3738 23.257 40.0838 24.557 40.7838 25.617Z" fill="url(#paint8_linear_114_132)"/>
<path d="M58.2437 31.057C58.6137 31.307 58.9637 31.597 59.2437 31.957C59.5337 32.307 59.7937 32.667 59.9837 33.127C60.0037 33.167 60.0037 33.217 59.9937 33.257L59.9837 33.287C59.8437 34.047 59.6837 34.817 59.5137 35.577L59.2537 36.717C59.1937 37.097 59.0637 37.467 59.1237 37.867C58.9037 37.517 58.9037 37.077 58.8837 36.687C58.8937 36.287 58.8937 35.887 58.9437 35.487C59.0337 34.697 59.1937 33.927 59.3937 33.157L59.4037 33.317C59.2837 32.957 59.1037 32.547 58.9037 32.177C58.7037 31.807 58.4837 31.427 58.2437 31.057Z" fill="#E08172"/>
<path d="M69.2137 67.697C69.9137 67.077 70.6237 66.497 71.2637 65.857C71.9137 65.227 72.5537 64.577 73.1437 63.887C74.3537 62.527 75.4337 61.067 76.4537 59.517C76.1837 60.417 75.7637 61.247 75.2937 62.057C74.8237 62.867 74.2537 63.617 73.6437 64.317C72.4037 65.717 70.9037 66.917 69.2137 67.697Z" fill="#E08172"/>
<path d="M53.9738 77.767C55.2138 77.147 56.4638 76.647 57.6238 75.997C58.2038 75.687 58.7538 75.327 59.2838 74.927C59.8138 74.557 60.2438 73.947 60.9238 73.707C60.6538 73.927 60.4738 74.197 60.2838 74.487C60.0838 74.767 59.8638 75.037 59.6238 75.297C59.1438 75.817 58.5538 76.227 57.9438 76.577C57.3238 76.917 56.6738 77.167 56.0138 77.377C55.3338 77.557 54.6638 77.707 53.9738 77.767Z" fill="#E08172"/>
<path d="M28.8237 12.237C28.4337 12.827 28.1437 13.437 27.9137 14.067C27.6937 14.707 27.4937 15.357 27.3637 15.997L26.7737 15.757C27.1737 15.147 27.5837 14.557 28.0537 13.987C28.5237 13.427 28.9937 12.857 29.5937 12.427C29.2037 13.047 28.8437 13.667 28.4737 14.277C28.1037 14.897 27.7137 15.497 27.3237 16.107L27.3137 16.117C27.2137 16.267 27.0137 16.307 26.8637 16.217C26.7437 16.137 26.6937 16.007 26.7237 15.877C26.8837 15.167 27.1137 14.497 27.4637 13.867C27.8037 13.237 28.2437 12.637 28.8237 12.237Z" fill="#E08172"/>
<path d="M15.9937 10.087C16.4437 9.14698 17.1537 8.38698 17.9337 7.73698C18.7237 7.10698 19.5937 6.54698 20.5837 6.24698C19.8637 6.98698 19.1037 7.60698 18.3437 8.23698L17.1837 9.16698C16.7937 9.46698 16.4137 9.78698 15.9937 10.087Z" fill="#E08172"/>
<path d="M6.27374 13.747C6.41374 13.317 6.62374 12.927 6.86374 12.557C7.09374 12.177 7.38374 11.847 7.68374 11.517C8.00374 11.207 8.32374 10.907 8.70374 10.667C9.07374 10.427 9.46374 10.207 9.91374 10.097C9.31374 10.767 8.74374 11.357 8.15374 11.967C7.56374 12.577 6.98374 13.187 6.27374 13.747Z" fill="#E08172"/>
<path d="M15.7238 23.597C16.1538 22.647 16.6838 21.807 17.2438 20.967C17.5338 20.557 17.8338 20.147 18.1738 19.767C18.5138 19.387 18.8638 18.997 19.3138 18.727C18.8238 19.637 18.3538 20.507 17.7738 21.347C17.1938 22.157 16.5538 22.967 15.7238 23.597Z" fill="#E08172"/>
<path d="M5.72375 24.327C6.34375 23.697 6.92376 23.127 7.53376 22.537C8.15376 21.967 8.76376 21.397 9.50376 20.897C9.15376 21.717 8.60375 22.397 7.98376 23.007C7.34376 23.597 6.60375 24.127 5.72375 24.327Z" fill="#E08172"/>
<path d="M13.1038 32.537C13.2538 32.107 13.4638 31.717 13.6838 31.337C13.9038 30.957 14.1638 30.607 14.4338 30.257C14.7138 29.917 15.0038 29.597 15.3438 29.307C15.6738 29.017 16.0338 28.737 16.4538 28.557C15.9638 29.307 15.4738 29.997 14.9338 30.667C14.3838 31.327 13.8138 31.987 13.1038 32.537Z" fill="#E08172"/>
<path d="M8.37375 38.277C8.48375 37.547 8.81375 36.917 9.20375 36.337C9.61375 35.777 10.0937 35.247 10.7337 34.897C10.4737 35.587 10.1137 36.147 9.73375 36.717C9.53375 36.987 9.33375 37.267 9.10375 37.517C8.88375 37.777 8.66375 38.037 8.37375 38.277Z" fill="#E08172"/>
<path d="M13.6938 43.947C13.9938 43.287 14.4138 42.747 14.8438 42.227C15.2938 41.717 15.7538 41.237 16.3438 40.807C16.2738 41.167 16.1138 41.487 15.9438 41.797C15.7738 42.107 15.5638 42.387 15.3438 42.647C15.1138 42.907 14.8738 43.157 14.5938 43.367C14.3138 43.597 14.0338 43.797 13.6938 43.947Z" fill="#E08172"/>
<path d="M50.6837 60.747C48.7437 59.357 47.1737 57.467 45.9937 55.367C44.8037 53.267 44.0337 50.957 43.5437 48.607C43.1037 46.247 42.9437 43.827 43.1237 41.437C43.3137 39.047 43.8037 36.677 44.7037 34.467C44.0537 36.757 43.7037 39.107 43.6237 41.467C43.5437 43.817 43.7037 46.187 44.1737 48.487C45.0437 53.077 47.1437 57.527 50.6837 60.747Z" fill="#E08172"/>
<path d="M28.0138 53.457C31.0838 50.467 33.9938 47.337 36.5438 43.917C37.8538 42.237 39.0638 40.477 40.2138 38.677C41.3538 36.877 42.4438 35.037 43.3338 33.087C42.6938 35.147 41.7038 37.067 40.6438 38.937C39.5738 40.807 38.3538 42.577 37.0638 44.307C35.7338 45.997 34.3538 47.657 32.8438 49.187C31.3238 50.717 29.7238 52.157 28.0138 53.457Z" fill="#E08172"/>
</mask>
<g mask="url(#mask0_114_132)">
<rect x="-14" y="-15.9778" width="125" height="132" fill="white"/>
</g>
<defs>
<linearGradient id="paint0_linear_114_132" x1="2.07008" y1="36.6099" x2="21.0238" y2="42.1431" gradientUnits="userSpaceOnUse">
<stop offset="0.00047536" stop-color="#F8C5A1"/>
<stop offset="0.7338" stop-color="#F9BA9A"/>
<stop offset="1" stop-color="#FAB597"/>
</linearGradient>
<linearGradient id="paint1_linear_114_132" x1="12.531" y1="54.259" x2="10.3531" y2="33.5983" gradientUnits="userSpaceOnUse">
<stop offset="0.00047536" stop-color="#F7B08A"/>
<stop offset="0.3919" stop-color="#F1A583"/>
<stop offset="1" stop-color="#E38C72"/>
</linearGradient>
<linearGradient id="paint2_linear_114_132" x1="-2.23313" y1="28.1859" x2="24.8436" y2="28.7746" gradientUnits="userSpaceOnUse">
<stop offset="0.00047536" stop-color="#F8C5A1"/>
<stop offset="0.7338" stop-color="#F9BA9A"/>
<stop offset="1" stop-color="#FAB597"/>
</linearGradient>
<linearGradient id="paint3_linear_114_132" x1="14.2166" y1="42.9549" x2="12.5095" y2="25.4727" gradientUnits="userSpaceOnUse">
<stop offset="0.00047536" stop-color="#F7B08A"/>
<stop offset="0.3919" stop-color="#F1A583"/>
<stop offset="1" stop-color="#E38C72"/>
</linearGradient>
<linearGradient id="paint4_linear_114_132" x1="2.53017" y1="11.6699" x2="24.7801" y2="21.7942" gradientUnits="userSpaceOnUse">
<stop offset="0.00047536" stop-color="#F8C5A1"/>
<stop offset="0.7338" stop-color="#F9BA9A"/>
<stop offset="1" stop-color="#FAB597"/>
</linearGradient>
<linearGradient id="paint5_linear_114_132" x1="16.4728" y1="37.5177" x2="16.8259" y2="15.8564" gradientUnits="userSpaceOnUse">
<stop offset="0.00047536" stop-color="#F7B08A"/>
<stop offset="0.3919" stop-color="#F1A583"/>
<stop offset="1" stop-color="#E38C72"/>
</linearGradient>
<linearGradient id="paint6_linear_114_132" x1="64.6869" y1="73.6613" x2="43.1432" y2="25.7472" gradientUnits="userSpaceOnUse">
<stop offset="0.00047536" stop-color="#F8C5A1"/>
<stop offset="0.7338" stop-color="#F9BA9A"/>
<stop offset="1" stop-color="#FAB597"/>
</linearGradient>
<linearGradient id="paint7_linear_114_132" x1="25.6436" y1="56.5948" x2="99.1921" y2="49.443" gradientUnits="userSpaceOnUse">
<stop offset="0.00047536" stop-color="#F7B08A"/>
<stop offset="0.3919" stop-color="#F1A583"/>
<stop offset="1" stop-color="#E38C72"/>
</linearGradient>
<linearGradient id="paint8_linear_114_132" x1="16.2641" y1="26.201" x2="25.7998" y2="10.1904" gradientUnits="userSpaceOnUse">
<stop offset="0.00047536" stop-color="#F7B08A"/>
<stop offset="0.3919" stop-color="#F1A583"/>
<stop offset="1" stop-color="#E38C72"/>
</linearGradient>
</defs>
</svg>
