<svg width="99" height="78" viewBox="0 0 99 78" fill="none" xmlns="http://www.w3.org/2000/svg">
<mask id="mask0_114_134" style="mask-type:alpha" maskUnits="userSpaceOnUse" x="0" y="0" width="99" height="78">
<path d="M98.7837 52.0148C98.4437 57.9048 97.1637 62.5748 95.5637 66.2048C91.9237 74.4848 86.5937 77.3848 86.5937 77.3848C86.5937 77.3848 66.2838 70.3148 53.2238 66.4848C33.3238 72.5648 18.5838 67.2448 18.5838 67.2448C18.5838 67.2448 15.3337 65.8148 13.5937 61.8748C12.7837 35.9048 26.5438 15.7248 32.6638 12.8348C34.7238 11.8648 37.0438 11.2648 39.3538 10.9448C41.8438 10.5748 44.3137 10.5548 46.4337 10.7348C48.2037 10.8948 49.7337 11.2048 50.8137 11.6048C54.3837 12.9648 62.3438 18.9648 63.8538 26.8248C63.8538 26.8248 76.3638 33.3548 98.0138 37.6848C98.8538 43.1248 99.0437 47.8848 98.7837 52.0148Z" fill="url(#paint0_linear_114_134)"/>
<path d="M95.5637 66.2048C91.9237 74.4848 86.5937 77.3848 86.5937 77.3848C86.5937 77.3848 66.2838 70.3148 53.2238 66.4848C33.3238 72.5648 18.5838 67.2448 18.5838 67.2448C18.5838 67.2448 15.3337 65.8148 13.5937 61.8748C12.7837 35.9048 26.5438 15.7248 32.6638 12.8348C34.7238 11.8648 37.0438 11.2648 39.3538 10.9448C34.5138 14.5048 34.4637 18.9048 33.5237 20.7948C32.5237 22.7948 36.6438 26.2348 32.9538 32.4648C34.8338 38.5248 38.0438 45.2148 51.3938 47.5548C47.0638 48.8848 41.2837 48.4248 33.7137 43.0148C34.3837 46.5648 34.5237 48.2548 31.1537 50.9448C31.9137 51.7048 35.6437 59.6848 29.4037 63.4548C29.9637 64.6048 36.0838 65.9948 40.1338 63.4548C44.1938 65.4748 55.3037 64.1248 58.6137 55.6948C67.5037 66.9648 82.3837 73.3748 95.5637 66.2048Z" fill="url(#paint1_linear_114_134)"/>
<path d="M98.7838 52.0148C92.7238 33.3948 65.1638 31.0848 65.1638 31.0848C65.1638 31.0848 66.4438 37.3548 62.2338 41.5748C64.4138 35.4548 62.4137 19.5948 48.9937 17.1048C48.5637 15.0348 47.2938 12.4148 46.4238 10.7248C48.1938 10.8848 49.7237 11.1948 50.8037 11.5948C54.3737 12.9548 62.3337 18.9548 63.8438 26.8148C63.8438 26.8148 76.3538 33.3448 98.0038 37.6748C98.8538 43.1248 99.0438 47.8848 98.7838 52.0148Z" fill="url(#paint2_linear_114_134)"/>
<path d="M25.9438 22.4648C24.3938 25.4648 19.0138 28.0248 9.21377 26.2248C6.11377 25.6548 4.12376 24.5248 2.86376 23.2648C0.113759 20.5548 0.723759 17.1648 0.723759 17.1648C0.723759 17.1648 3.21376 12.4348 7.97376 9.33481C8.82376 8.77481 9.73376 8.27481 10.7138 7.86481C14.4538 7.86481 18.2138 8.36481 25.9438 11.1748C25.9438 11.1648 27.5138 19.4748 25.9438 22.4648Z" fill="url(#paint3_linear_114_134)"/>
<path d="M25.9438 22.4648C24.3938 25.4648 19.0138 28.0248 9.21376 26.2248C6.11376 25.6548 4.12375 24.5248 2.86375 23.2648C8.22375 22.5748 6.25375 19.7948 8.22375 17.3448C10.2938 14.7448 10.8037 12.3548 8.79375 11.2548C7.94375 10.7948 7.82375 10.0548 7.97375 9.33481C8.82375 8.77481 9.73376 8.27481 10.7138 7.86481C14.4538 7.86481 18.2138 8.36481 25.9438 11.1748C25.9438 11.1648 27.5138 19.4748 25.9438 22.4648Z" fill="url(#paint4_linear_114_134)"/>
<path d="M25.2438 39.0948C24.0438 41.2248 17.5538 42.8948 10.8838 41.4248C10.3738 41.3048 9.88376 41.1748 9.41376 41.0248C3.82376 39.2248 1.48375 34.9748 1.48375 34.9748C1.48375 34.9748 1.06376 31.7148 1.82376 28.7448C1.99376 28.0748 2.21376 27.4248 2.52376 26.8248C4.53376 24.8048 6.89376 24.4148 6.89376 24.4148C6.89376 24.4148 15.8438 24.4148 20.8738 26.8248C27.6538 30.0648 26.4538 36.9748 25.2438 39.0948Z" fill="url(#paint5_linear_114_134)"/>
<path d="M25.2438 39.0948C24.0438 41.2248 17.5538 42.8948 10.8838 41.4248C10.3738 41.3048 9.88376 41.1748 9.41376 41.0248C14.1138 39.3548 16.2838 35.9248 16.6738 33.1848C17.1338 29.9548 13.1238 28.7348 9.05376 27.3548C5.39376 26.1248 5.58375 25.8048 1.81375 28.7348C1.98375 28.0648 2.20375 27.4148 2.51375 26.8148C4.52375 24.7948 6.88376 24.4048 6.88376 24.4048C6.88376 24.4048 15.8338 24.4048 20.8638 26.8148C27.6538 30.0648 26.4538 36.9748 25.2438 39.0948Z" fill="url(#paint6_linear_114_134)"/>
<path d="M31.6638 45.3548C29.8038 49.6948 27.3838 51.4348 24.4538 52.2448C22.2138 52.8548 19.6638 52.9148 16.8338 53.1748C12.3238 53.5748 9.07375 52.3948 6.61375 50.4148C5.53375 49.5548 4.59376 48.5348 3.77376 47.4448C3.44376 45.8148 3.77376 41.4848 3.77376 41.4848C3.77376 41.4848 7.72375 37.7648 10.9337 37.4948C26.7137 36.1248 30.9138 39.3548 30.9138 39.3548C30.9138 39.3548 32.0638 42.1348 31.6638 45.3548Z" fill="url(#paint7_linear_114_134)"/>
<path d="M31.6638 45.3548C29.8038 49.6948 27.3838 51.4348 24.4538 52.2448C25.6538 50.3948 27.0037 48.0748 27.2437 45.6848C27.5137 42.9548 25.6937 42.1048 21.4037 40.5148C17.4337 39.0548 13.0537 39.5748 9.54375 41.4248C6.89375 42.8148 4.41375 43.9948 6.62375 50.4048C5.54375 49.5448 4.60375 48.5248 3.78375 47.4348C3.45375 45.8048 3.78375 41.4748 3.78375 41.4748C3.78375 41.4748 7.73376 37.7548 10.9438 37.4848C26.7238 36.1148 30.9238 39.3448 30.9238 39.3448C30.9238 39.3448 32.0638 42.1348 31.6638 45.3548Z" fill="url(#paint8_linear_114_134)"/>
<path d="M30.6038 53.2448C30.6038 55.8248 29.6038 58.9548 29.6038 58.9548C29.6038 58.9548 29.6038 59.7348 25.8338 62.3548C24.4038 62.8648 22.4938 63.2048 20.4738 63.3448C17.2238 63.5948 13.7038 63.3548 11.5038 62.5448C10.2038 61.6448 9.20375 60.4448 8.47375 59.2748C7.05375 57.0148 6.57376 54.8048 6.57376 54.8048C6.57376 54.8048 9.19376 51.7548 11.1638 50.6548C17.5938 49.1848 27.1137 50.0948 27.1137 50.0948C27.1137 50.0948 28.6338 50.8148 30.6038 53.2448Z" fill="url(#paint9_linear_114_134)"/>
<path d="M50.8037 11.5948C50.8037 11.5948 49.4338 12.3948 47.4438 12.9148C45.2438 13.4748 42.2637 13.7148 39.5237 12.1548C38.9937 13.5748 37.8538 14.6448 36.7238 15.4048C35.2138 16.4048 33.6938 16.8648 33.6938 16.8648C33.6938 16.8648 33.3438 19.6948 30.8538 21.0248C33.4538 27.2748 30.0738 33.9248 27.8238 36.7048C26.4438 38.4148 24.4237 38.9848 22.7937 38.3348C22.3137 38.1548 21.8638 37.8548 21.4738 37.4448C21.0438 36.9848 20.6737 36.4048 20.4337 35.6748C19.8337 33.9248 19.0138 31.3148 17.8138 28.5248C17.1638 26.9948 16.3937 25.4248 15.4837 23.9048C15.4938 23.8948 15.4938 23.8748 15.4837 23.8748C14.6537 22.4648 13.7137 21.1148 12.6237 19.8948C11.2237 17.9948 11.5038 16.1148 11.5038 16.1148C11.5038 16.1148 20.1538 3.03482 36.3238 0.0448151C45.7238 2.63481 50.8037 11.5948 50.8037 11.5948Z" fill="url(#paint10_linear_114_134)"/>
<path d="M21.4738 37.4448C21.0438 36.9848 20.6737 36.4048 20.4337 35.6748C19.8637 34.0048 19.0738 31.5248 17.9538 28.8648C17.9138 28.7648 17.8638 28.6448 17.8138 28.5248C20.2138 27.9348 22.1337 26.5048 23.0137 25.7648C23.3637 25.4748 23.5437 25.2848 23.5437 25.2848C23.5437 25.2848 26.4137 29.2748 26.7937 32.5448C27.1337 35.5448 25.4738 38.0848 21.4738 37.4448Z" fill="url(#paint11_linear_114_134)"/>
<path d="M36.7238 15.4048C35.2138 16.4048 33.6938 16.8648 33.6938 16.8648C33.6938 16.8648 33.3438 19.6948 30.8538 21.0248C33.4538 27.2748 30.0738 33.9248 27.8238 36.7048C26.4438 38.4148 24.4237 38.9848 22.7937 38.3348C26.3437 38.1148 29.0238 35.4148 29.9138 31.1848C30.8238 26.7748 30.2838 17.9848 19.8338 19.5648C22.2938 18.9148 25.6538 15.6648 20.4238 13.2148C22.9138 14.3348 33.2137 17.1048 35.5237 8.54482C35.5237 11.4848 35.4438 15.2148 36.7238 15.4048Z" fill="url(#paint12_linear_114_134)"/>
<path d="M50.8037 11.5948C50.8037 11.5948 49.4338 12.3948 47.4438 12.9148C46.1938 10.5248 43.1237 6.92481 39.4337 4.42481C34.7737 2.54481 31.0738 3.75481 25.7438 6.21481C20.4238 8.66481 14.8838 13.5048 13.7738 16.5848C12.7538 19.4548 13.7637 18.2048 15.4837 23.8848C14.6537 22.4748 13.7137 21.1248 12.6237 19.9048C11.2237 18.0048 11.5038 16.1248 11.5038 16.1248C11.5038 16.1248 20.1538 3.04481 36.3238 0.0548096C45.7238 2.63481 50.8037 11.5948 50.8037 11.5948Z" fill="url(#paint13_linear_114_134)"/>
<path d="M30.6038 53.2448C30.6038 55.8248 29.6038 58.9548 29.6038 58.9548C29.6038 58.9548 29.6038 59.7348 25.8338 62.3548C24.4038 62.8648 22.4938 63.2048 20.4738 63.3448C22.1538 61.8348 24.4738 59.5248 25.2438 57.6548C26.4938 54.6148 24.9038 53.2248 21.9538 52.5848C19.1738 51.9848 15.5538 52.1448 12.8438 52.9348C10.5038 53.6248 8.36376 54.5348 8.46376 59.2748C7.04376 57.0148 6.56375 54.8048 6.56375 54.8048C6.56375 54.8048 9.18375 51.7548 11.1537 50.6548C17.5837 49.1848 27.1038 50.0948 27.1038 50.0948C27.1038 50.0948 28.6338 50.8148 30.6038 53.2448Z" fill="url(#paint14_linear_114_134)"/>
<path d="M14.8138 12.1148C15.3038 11.6048 15.8338 11.0648 16.4238 10.5048C15.1238 10.1448 14.1938 9.15482 14.1938 9.15482C14.1938 9.15482 14.6538 9.71482 15.3138 10.6248C13.7738 10.6248 11.0437 9.59482 11.0437 9.59482C11.0437 9.59482 14.0738 10.9348 14.8138 12.1148Z" fill="url(#paint15_linear_114_134)"/>
<path d="M34.0637 15.8648C33.9637 15.0448 34.0537 14.2848 34.1837 13.5348C34.3437 12.7848 34.5438 12.0448 34.9438 11.3348C35.0538 12.1248 34.9638 12.9048 34.8238 13.6648C34.6638 14.4248 34.4637 15.1748 34.0637 15.8648Z" fill="#E08172"/>
<path d="M24.7337 16.3148C25.3837 16.2148 26.0737 16.2048 26.7337 16.3948C27.4037 16.5448 28.0238 16.8748 28.5638 17.2948C29.1038 17.7248 29.5638 18.2248 29.9138 18.8048C30.2638 19.3848 30.5338 20.0048 30.6438 20.6648C29.9338 19.5548 29.1538 18.5648 28.1738 17.8148C27.6938 17.4248 27.1538 17.1248 26.5838 16.8748C26.0038 16.5948 25.3837 16.4848 24.7337 16.3148Z" fill="#E08172"/>
<path d="M5.43375 27.8148L5.20375 29.7448C5.14375 30.3848 5.06376 31.0148 5.02376 31.6548C4.90376 32.9248 4.85375 34.1948 4.76375 35.5148C4.54375 34.8848 4.44376 34.2348 4.38376 33.5748C4.31376 32.9148 4.32375 32.2548 4.37375 31.6048C4.49375 30.2948 4.80375 28.9848 5.43375 27.8148Z" fill="#E08172"/>
<path d="M8.34374 41.8048C8.34374 42.9748 8.41375 44.0648 8.52375 45.1848C8.62375 46.3048 8.75375 47.4148 8.80375 48.5848C8.52375 48.0648 8.34374 47.5148 8.18374 46.9548C8.02374 46.3948 7.93374 45.8248 7.87374 45.2448C7.83374 44.6648 7.81375 44.0748 7.89375 43.4948C7.96375 42.9148 8.09374 42.3348 8.34374 41.8048Z" fill="#E08172"/>
<path d="M29.2838 39.8448C29.7538 41.0148 29.8637 42.2948 29.8037 43.5448C29.7637 44.1648 29.6838 44.7948 29.5438 45.3948C29.4038 46.0048 29.2338 46.6048 28.9538 47.1748C28.9838 45.9248 29.0937 44.7148 29.1537 43.5048C29.2037 42.9048 29.2037 42.2948 29.2437 41.6948C29.2637 41.0848 29.2538 40.4748 29.2838 39.8448Z" fill="#E08172"/>
<path d="M10.9638 53.2448C10.8238 53.8548 10.7238 54.4248 10.7138 55.0148C10.7238 55.5948 10.7537 56.1748 10.8437 56.7548C11.0137 57.9148 11.3337 59.0548 11.6537 60.2448C11.2537 59.7648 10.9638 59.2148 10.7138 58.6448C10.4638 58.0748 10.3038 57.4648 10.1938 56.8448C10.1138 56.2248 10.0938 55.5848 10.2138 54.9548C10.3438 54.3348 10.5838 53.7348 10.9638 53.2448Z" fill="#E08172"/>
<path d="M27.7338 52.4348C28.0638 52.9648 28.2637 53.5848 28.3337 54.2148C28.4037 54.8448 28.3438 55.4948 28.2238 56.1148C28.0738 56.7348 27.8737 57.3348 27.5837 57.8848C27.2937 58.4448 26.9638 58.9748 26.5238 59.4248C26.9438 58.2548 27.3337 57.1348 27.5837 55.9748C27.7137 55.3948 27.7837 54.8148 27.8337 54.2348C27.8637 53.6448 27.8138 53.0548 27.7338 52.4348Z" fill="#E08172"/>
<path d="M54.2938 65.4248C55.0638 64.6048 55.7738 63.7648 56.2938 62.8048C56.7938 61.8448 57.2238 60.8348 57.5038 59.7848C58.0738 57.6748 58.2838 55.4748 58.2938 53.2448C58.5638 54.3348 58.6337 55.4748 58.6137 56.5948C58.5937 57.7248 58.4238 58.8548 58.1338 59.9548C57.8238 61.0548 57.3538 62.1148 56.7238 63.0648C56.0838 64.0248 55.2338 64.8148 54.2938 65.4248Z" fill="#E08172"/>
<path d="M64.2437 27.4848C65.4437 29.5548 65.8937 32.0648 65.6837 34.4748C65.4537 36.8748 64.5037 39.2948 62.7737 40.9748C64.0937 38.9848 64.8238 36.7248 65.0338 34.4148C65.2538 32.0948 64.9737 29.7548 64.2437 27.4848Z" fill="#E08172"/>
<path d="M32.2238 41.7548C33.4338 42.9948 34.9138 43.8848 36.4238 44.6848C37.9438 45.4648 39.5237 46.1448 41.1537 46.6548C42.7637 47.2048 44.4337 47.5948 46.1237 47.8048C47.8137 48.0148 49.5438 48.0248 51.2338 47.6448C49.6138 48.2848 47.8138 48.4148 46.0738 48.3048C44.3238 48.1848 42.6138 47.7848 40.9438 47.2748C39.2938 46.7048 37.6838 46.0148 36.1738 45.1248C34.7038 44.2248 33.2338 43.1848 32.2238 41.7548Z" fill="#E08172"/>
<path opacity="0.68" d="M23.0137 25.7648C22.5537 27.2348 21.2538 29.6248 17.9538 28.8648C17.9138 28.7648 17.8638 28.6448 17.8138 28.5248C20.2138 27.9448 22.1237 26.5048 23.0137 25.7648Z" fill="#F8917F"/>
</mask>
<g mask="url(#mask0_114_134)">
<rect x="-20" y="-26" width="125" height="132" fill="white"/>
</g>
<defs>
<linearGradient id="paint0_linear_114_134" x1="78.0242" y1="45.045" x2="40.3142" y2="41.7985" gradientUnits="userSpaceOnUse">
<stop offset="0.00047536" stop-color="#F8C5A1"/>
<stop offset="0.7338" stop-color="#F9BA9A"/>
<stop offset="1" stop-color="#FAB597"/>
</linearGradient>
<linearGradient id="paint1_linear_114_134" x1="13.5503" y1="44.1579" x2="95.5646" y2="44.1579" gradientUnits="userSpaceOnUse">
<stop offset="0.00047536" stop-color="#F7B08A"/>
<stop offset="0.3919" stop-color="#F1A583"/>
<stop offset="1" stop-color="#E38C72"/>
</linearGradient>
<linearGradient id="paint2_linear_114_134" x1="46.4235" y1="31.3705" x2="98.8936" y2="31.3705" gradientUnits="userSpaceOnUse">
<stop offset="0.00047536" stop-color="#F7B08A"/>
<stop offset="0.3919" stop-color="#F1A583"/>
<stop offset="1" stop-color="#E38C72"/>
</linearGradient>
<linearGradient id="paint3_linear_114_134" x1="6.78536" y1="21.6586" x2="12.7791" y2="18.5993" gradientUnits="userSpaceOnUse">
<stop offset="0.00047536" stop-color="#F8C5A1"/>
<stop offset="0.7338" stop-color="#F9BA9A"/>
<stop offset="1" stop-color="#FAB597"/>
</linearGradient>
<linearGradient id="paint4_linear_114_134" x1="3.02465" y1="10.2322" x2="14.5541" y2="17.4329" gradientUnits="userSpaceOnUse">
<stop offset="0.00047536" stop-color="#F7B08A"/>
<stop offset="0.3919" stop-color="#F1A583"/>
<stop offset="1" stop-color="#E38C72"/>
</linearGradient>
<linearGradient id="paint5_linear_114_134" x1="14.5415" y1="36.7576" x2="12.2314" y2="28.7037" gradientUnits="userSpaceOnUse">
<stop offset="0.00047536" stop-color="#F8C5A1"/>
<stop offset="0.7338" stop-color="#F9BA9A"/>
<stop offset="1" stop-color="#FAB597"/>
</linearGradient>
<linearGradient id="paint6_linear_114_134" x1="1.82075" y1="33.1918" x2="26.1842" y2="33.1918" gradientUnits="userSpaceOnUse">
<stop offset="0.00047536" stop-color="#F7B08A"/>
<stop offset="0.3919" stop-color="#F1A583"/>
<stop offset="1" stop-color="#E38C72"/>
</linearGradient>
<linearGradient id="paint7_linear_114_134" x1="19.504" y1="46.2465" x2="16.3824" y2="42.1259" gradientUnits="userSpaceOnUse">
<stop offset="0.00047536" stop-color="#F8C5A1"/>
<stop offset="0.7338" stop-color="#F9BA9A"/>
<stop offset="1" stop-color="#FAB597"/>
</linearGradient>
<linearGradient id="paint8_linear_114_134" x1="3.61915" y1="44.6867" x2="31.7458" y2="44.6867" gradientUnits="userSpaceOnUse">
<stop offset="0.00047536" stop-color="#F7B08A"/>
<stop offset="0.3919" stop-color="#F1A583"/>
<stop offset="1" stop-color="#E38C72"/>
</linearGradient>
<linearGradient id="paint9_linear_114_134" x1="22.3451" y1="60.3819" x2="17.1006" y2="52.7025" gradientUnits="userSpaceOnUse">
<stop offset="0.00047536" stop-color="#F8C5A1"/>
<stop offset="0.7338" stop-color="#F9BA9A"/>
<stop offset="1" stop-color="#FAB597"/>
</linearGradient>
<linearGradient id="paint10_linear_114_134" x1="11.476" y1="19.327" x2="50.8054" y2="19.327" gradientUnits="userSpaceOnUse">
<stop offset="0.00047536" stop-color="#F8C5A1"/>
<stop offset="0.7338" stop-color="#F9BA9A"/>
<stop offset="1" stop-color="#FAB597"/>
</linearGradient>
<linearGradient id="paint11_linear_114_134" x1="24.4814" y1="36.0232" x2="20.8186" y2="26.3667" gradientUnits="userSpaceOnUse">
<stop offset="0.00047536" stop-color="#F7B08A"/>
<stop offset="0.3919" stop-color="#F1A583"/>
<stop offset="1" stop-color="#E38C72"/>
</linearGradient>
<linearGradient id="paint12_linear_114_134" x1="19.8315" y1="23.572" x2="36.7205" y2="23.572" gradientUnits="userSpaceOnUse">
<stop offset="0.00047536" stop-color="#F7B08A"/>
<stop offset="0.3919" stop-color="#F1A583"/>
<stop offset="1" stop-color="#E38C72"/>
</linearGradient>
<linearGradient id="paint13_linear_114_134" x1="11.476" y1="11.9709" x2="50.8054" y2="11.9709" gradientUnits="userSpaceOnUse">
<stop offset="0.00047536" stop-color="#F7B08A"/>
<stop offset="0.3919" stop-color="#F1A583"/>
<stop offset="1" stop-color="#E38C72"/>
</linearGradient>
<linearGradient id="paint14_linear_114_134" x1="6.56795" y1="56.5838" x2="30.6039" y2="56.5838" gradientUnits="userSpaceOnUse">
<stop offset="0.00047536" stop-color="#F7B08A"/>
<stop offset="0.3919" stop-color="#F1A583"/>
<stop offset="1" stop-color="#E38C72"/>
</linearGradient>
<linearGradient id="paint15_linear_114_134" x1="7.30484" y1="5.77701" x2="13.881" y2="10.1473" gradientUnits="userSpaceOnUse">
<stop offset="0.00047536" stop-color="#F59F77"/>
<stop offset="0.3758" stop-color="#EE9470"/>
<stop offset="1" stop-color="#DB7960"/>
</linearGradient>
</defs>
</svg>
