<svg width="115" height="97" viewBox="0 0 115 97" fill="none" xmlns="http://www.w3.org/2000/svg">
<mask id="mask0_114_133" style="mask-type:alpha" maskUnits="userSpaceOnUse" x="0" y="0" width="115" height="97">
<path d="M53.5362 55.5128C50.1062 58.2928 47.3362 58.8328 44.1362 57.3128C40.9362 55.7928 39.0662 54.8128 37.9262 49.8628C36.7962 44.9228 46.1262 44.2228 50.6462 46.6628C55.1862 49.1028 55.7662 53.7028 53.5362 55.5128Z" fill="url(#paint0_linear_114_133)"/>
<path d="M51.5362 51.3928C48.1062 54.1728 45.3362 54.7128 42.1362 53.1928C38.9362 51.6728 37.0662 50.6928 35.9262 45.7428C34.7962 40.8028 44.1262 40.1028 48.6462 42.5428C53.1862 44.9728 53.7662 49.5828 51.5362 51.3928Z" fill="url(#paint1_linear_114_133)"/>
<path d="M0.146221 25.9628C0.996221 22.0928 5.29622 23.2028 10.9062 23.3728C15.8362 23.5328 18.7962 22.8928 23.2862 21.6328C23.9162 21.4528 24.5762 21.2728 25.2762 21.0728C30.9762 19.4528 34.1762 20.9228 40.5262 19.4928C52.2162 17.3828 45.8462 33.3728 45.8462 33.3728C45.8462 33.3728 42.5362 33.2128 39.5362 31.4928C30.1862 33.8728 28.4662 31.9328 22.0862 32.6328C15.7062 33.3428 12.0262 33.5928 7.12622 32.5728C7.00622 32.5528 6.88622 32.5228 6.76622 32.4928C2.08622 31.4528 -0.683779 29.7428 0.146221 25.9628Z" fill="url(#paint2_linear_114_133)"/>
<path d="M6.77621 32.4828C10.9362 32.2128 13.8862 29.6428 15.6462 29.6228C17.4162 29.6028 19.4462 24.8128 23.2962 21.6328C23.9262 21.4528 24.5862 21.2728 25.2862 21.0728C30.9862 19.4528 34.1862 20.9228 40.5362 19.4928C52.2262 17.3828 45.8562 33.3728 45.8562 33.3728C45.8562 33.3728 42.5462 33.2128 39.5462 31.4928C30.1962 33.8728 28.4762 31.9328 22.0962 32.6328C15.7162 33.3428 12.0362 33.5928 7.13622 32.5728C7.01622 32.5428 6.88621 32.5228 6.77621 32.4828Z" fill="url(#paint3_linear_114_133)"/>
<path d="M81.6762 94.8228C80.9262 86.3928 78.0562 78.2128 76.6562 75.6028C75.2362 73.0028 73.4362 73.7328 73.0862 70.4928C66.9162 70.2228 54.9162 66.5728 54.3862 57.9528C51.5862 56.0828 46.8662 48.3528 48.1562 40.7228C41.1462 34.9228 39.9262 26.1328 41.7562 20.8628C38.7862 20.7928 32.4762 19.6628 28.5762 16.4028C21.9362 16.3828 17.1862 12.9228 17.1862 12.9228C17.1862 12.9228 11.3262 12.0428 8.24621 9.39276C5.17621 6.73276 3.60621 4.14276 4.80621 1.85276C5.36621 0.792758 5.71621 0.232758 6.26621 0.0527583C6.89621 -0.137242 7.82621 0.192758 9.70621 0.932758C13.2062 2.30276 16.5662 3.49276 18.3662 3.32276C20.1862 3.14276 27.2162 5.36276 29.6062 5.43276C31.9962 5.49276 34.8562 6.40276 38.6862 7.54276C42.5162 8.68276 47.0862 10.1828 51.3362 11.4528C55.5862 12.7228 57.2362 11.3228 60.4262 12.2728C63.6162 13.2228 73.3862 27.9528 76.4262 32.0628C79.4462 36.1828 87.4862 45.6228 92.0062 49.1328C96.5062 52.6528 109.286 67.4828 114.356 79.3428C112.816 83.2228 109.546 87.4528 105.206 90.7128C98.9162 95.4428 90.3762 98.1428 81.6762 94.8228Z" fill="url(#paint4_linear_114_133)"/>
<path d="M81.6762 94.8228C80.9262 86.3928 78.0562 78.2128 76.6562 75.6028C75.2362 73.0028 73.4362 73.7328 73.0862 70.4928C66.9162 70.2228 54.9162 66.5728 54.3862 57.9528C51.5862 56.0828 46.8662 48.3528 48.1562 40.7228C41.1462 34.9228 39.9262 26.1328 41.7562 20.8628C38.7862 20.7928 32.4762 19.6628 28.5762 16.4028C21.9362 16.3828 17.1862 12.9228 17.1862 12.9228C17.1862 12.9228 11.3262 12.0428 8.24621 9.39276C5.17621 6.73276 3.60621 4.14277 4.80621 1.85277C5.36621 0.792765 5.71621 0.232765 6.26621 0.0527649C5.52621 7.01276 13.8162 12.2528 18.5862 8.53277C21.8162 13.2128 27.4562 15.4728 31.2062 12.2928C32.4862 14.6628 37.3762 19.1428 42.2662 16.5028C52.0862 24.8328 54.4862 17.0128 56.4262 18.1728C58.3562 19.3328 55.0162 24.3928 67.2362 31.4928C59.1162 33.1828 56.5362 48.1628 56.6462 51.1728C56.7362 54.1928 57.6762 56.4428 62.3362 60.3528C66.9862 64.2528 68.1262 60.1628 71.7262 61.7628C72.0762 66.1128 76.0262 66.2928 81.8962 62.0028C82.5262 65.2828 84.1462 67.2828 86.6962 65.1328C89.2562 62.9828 91.9062 63.4228 96.6762 68.6628C100.986 73.3928 104.376 78.0628 105.206 90.6928C98.9162 95.4428 90.3762 98.1428 81.6762 94.8228Z" fill="url(#paint5_linear_114_133)"/>
<path d="M20.9262 39.7528C21.0562 38.7128 21.5962 37.8828 22.3962 37.2128C23.9062 35.9428 26.3362 35.2328 28.7362 34.6928C30.9062 34.2228 33.0362 33.9028 34.4762 33.5028C38.3562 32.4028 38.3362 34.0828 44.9262 32.8328C51.5062 31.5828 55.5162 32.6428 62.3562 31.2128C64.3462 30.8028 65.8562 30.9328 66.9662 31.4828C72.7662 34.3028 67.5662 48.0228 60.0262 50.8028C58.3462 51.4228 56.8662 51.7128 55.5962 51.7928C50.0562 52.1128 48.1062 48.2428 48.1062 48.2428C48.1062 48.2428 45.8562 48.2228 39.2762 46.5628C27.5362 49.2328 20.3462 44.4928 20.9262 39.7528Z" fill="url(#paint6_linear_114_133)"/>
<path opacity="0.56" d="M20.9262 39.7528C21.0562 38.7128 21.5962 37.8828 22.3962 37.2128C23.9062 35.9428 26.3362 35.2328 28.7362 34.6928C30.9062 34.2228 33.0362 33.9028 34.4762 33.5028C38.3562 32.4028 38.3362 34.0828 44.9262 32.8328C51.5062 31.5828 55.5162 32.6428 62.3562 31.2128C64.3462 30.8028 65.8562 30.9328 66.9662 31.4828C65.6262 33.0528 66.6362 34.1928 66.8062 34.3428C66.3562 34.1028 59.0462 29.9728 56.8762 33.8728C54.6262 37.9028 61.6262 36.6228 57.3062 43.5528C54.6262 47.8528 54.1762 50.4528 55.5862 51.7928C50.0462 52.1128 48.0962 48.2428 48.0962 48.2428C48.0962 48.2428 45.8462 48.2228 39.2662 46.5628C27.5362 49.2328 20.3462 44.4928 20.9262 39.7528Z" fill="url(#paint7_linear_114_133)"/>
<path d="M21.8862 41.9128C20.9962 40.2728 21.6762 38.4628 22.3962 37.2028C23.9062 35.9328 26.3362 35.2228 28.7362 34.6828C28.6562 34.8528 28.5862 35.0228 28.5162 35.1928C27.0562 38.5928 27.8862 42.1628 28.2462 43.4028C28.3262 43.6828 28.3862 43.8528 28.3862 43.8528C28.3862 43.8528 23.4162 44.7428 21.8862 41.9128Z" fill="url(#paint8_linear_114_133)"/>
<path d="M82.2562 65.5528C82.1362 66.3728 81.6962 67.1828 81.0062 67.7328C80.3262 68.2928 79.4862 68.5728 78.6862 68.7928C77.8762 69.0028 77.0762 69.1428 76.3362 69.3928C75.6062 69.6328 74.9562 70.1228 74.7062 70.9428C74.7362 70.7428 74.7462 70.5228 74.8062 70.3228C74.9062 70.1328 74.9562 69.9028 75.1062 69.7428C75.3762 69.3928 75.7562 69.1228 76.1362 68.9328C76.9162 68.5428 77.7462 68.3828 78.5162 68.1628C79.2962 67.9628 80.0562 67.7228 80.7162 67.3228C81.3662 66.9228 81.8762 66.2928 82.2562 65.5528Z" fill="#E08172"/>
<path d="M84.6762 56.2428C84.4962 57.7928 84.2262 59.4128 83.4162 60.8128C82.6662 62.2428 81.5062 63.4528 80.1862 64.3628C78.8562 65.2728 77.3762 65.9028 75.9762 66.5528C75.2662 66.8728 74.5962 67.2528 74.0162 67.7428C73.4162 68.2228 73.0962 68.9428 72.9362 69.7228C72.9462 68.9428 73.2162 68.1228 73.7862 67.5228C74.3662 66.9528 75.0462 66.4928 75.7362 66.1128C77.1262 65.3328 78.5562 64.7028 79.8162 63.8228C81.0862 62.9628 82.1662 61.8628 82.9862 60.5628L83.5562 59.5628L83.9862 58.4828C84.3162 57.7728 84.4162 56.9928 84.6762 56.2428Z" fill="#E08172"/>
<path d="M68.7662 64.3128C66.1662 64.5128 63.5162 63.9628 61.0862 62.9728C59.8762 62.4628 58.7062 61.8428 57.6362 61.0828C56.5662 60.3228 55.5662 59.4428 54.8062 58.3828C56.7262 60.1428 58.9862 61.3828 61.3362 62.3828C63.6962 63.3528 66.1862 64.0028 68.7662 64.3128Z" fill="#E08172"/>
<path d="M54.0562 22.4428C53.6062 23.2128 53.1762 23.9528 52.8362 24.7428C52.5062 25.5328 52.1662 26.3228 51.9162 27.1528C51.3762 28.7928 50.9862 30.4628 50.6162 32.1928C50.5362 31.3128 50.5962 30.4228 50.7062 29.5428C50.8162 28.6628 51.0262 27.7928 51.2962 26.9528C51.8562 25.2628 52.7362 23.6328 54.0562 22.4428Z" fill="#E08172"/>
<path d="M47.8462 27.8428C48.1362 28.1028 48.3662 28.3928 48.5762 28.7028C48.7862 29.0028 48.9562 29.3328 49.1162 29.6728C49.2562 30.0128 49.3862 30.3628 49.4562 30.7328C49.5262 31.1028 49.5862 31.4728 49.5262 31.8628C49.1262 31.2128 48.8162 30.5928 48.5162 29.9328C48.2362 29.2728 47.9662 28.6028 47.8462 27.8428Z" fill="#E08172"/>
<path d="M37.6062 34.3428C37.2562 35.6928 36.9362 37.0428 36.6862 38.4028C36.4562 39.7528 36.2462 41.1328 36.1962 42.4828L35.5462 42.4628C35.6062 41.0428 35.6862 39.6328 35.8462 38.2228C35.9962 36.8128 36.1862 35.4028 36.5262 34.0228L36.1962 42.4828V42.4928C36.1862 42.6728 36.0362 42.8128 35.8562 42.8028C35.6762 42.7928 35.5362 42.6428 35.5462 42.4628C35.6162 41.0328 35.8462 39.6528 36.1962 38.2928C36.5562 36.9428 37.0062 35.6128 37.6062 34.3428Z" fill="#E08172"/>
<path d="M19.7262 3.87276C20.0462 4.35276 20.1562 4.96276 20.1562 5.54276C20.1662 6.13276 19.9962 6.70276 19.8062 7.25276C19.5962 7.79276 19.3362 8.30276 19.0062 8.77276C18.6862 9.24276 18.3262 9.69276 17.8862 10.0528C18.3362 9.00276 18.8262 8.03276 19.1962 7.02276C19.5762 6.01276 19.8562 5.00276 19.7262 3.87276Z" fill="#E08172"/>
<path d="M34.6962 7.55276C34.2662 8.11276 33.8062 8.61276 33.4262 9.18276C33.0462 9.74276 32.6662 10.3028 32.3362 10.8928C31.6462 12.0628 31.0762 13.2828 30.5162 14.5628C30.5762 13.1528 31.0662 11.7828 31.7662 10.5628C32.4762 9.34276 33.4662 8.24276 34.6962 7.55276Z" fill="#E08172"/>
<path d="M31.3662 6.55276C31.7262 7.10276 31.8762 7.77276 31.9362 8.42276C31.9962 9.08276 31.9362 9.74276 31.7562 10.4028L31.1362 10.1928C31.3762 9.58277 31.6862 9.02277 32.0662 8.52277C32.4462 8.01277 32.8662 7.54277 33.3562 7.14277C32.7862 8.26277 32.1562 9.31276 31.7462 10.4228C31.6862 10.5928 31.4962 10.6728 31.3262 10.6128C31.1662 10.5528 31.0762 10.3728 31.1262 10.2128C31.2862 9.65277 31.3662 9.03276 31.4262 8.42276C31.4762 7.81276 31.4662 7.19276 31.3662 6.55276Z" fill="#E08172"/>
<path opacity="0.35" d="M14.7562 24.0228C14.6262 24.8328 14.4362 25.6128 14.2462 26.3928L13.9562 27.5528C13.8562 27.9228 13.7562 28.3528 13.6962 28.6728V28.7028C13.6662 28.8828 13.4962 29.0028 13.3262 28.9728C13.1562 28.9428 13.0462 28.7928 13.0562 28.6328C13.1762 27.1328 13.3362 25.6328 13.6862 24.1428C13.8262 25.6628 13.7962 27.1728 13.7062 28.6828L13.0562 28.6328C13.1262 28.1528 13.2462 27.8028 13.3562 27.4028C13.4862 27.0128 13.6062 26.6328 13.7562 26.2528C14.0562 25.4828 14.3662 24.7328 14.7562 24.0228Z" fill="#E08172"/>
<path opacity="0.68" d="M28.2462 43.4028C26.2462 42.2628 25.7662 37.4827 28.5162 35.1927C27.0562 38.5927 27.8862 42.1628 28.2462 43.4028Z" fill="#F8917F"/>
</mask>
<g mask="url(#mask0_114_133)">
<rect x="-11" y="-30" width="125" height="132" fill="white"/>
</g>
<defs>
<linearGradient id="paint0_linear_114_133" x1="42.8909" y1="49.0439" x2="55.632" y2="57.8789" gradientUnits="userSpaceOnUse">
<stop offset="0.00047536" stop-color="#F59F77"/>
<stop offset="0.222" stop-color="#F0946D"/>
<stop offset="0.6088" stop-color="#E27754"/>
<stop offset="1" stop-color="#D15434"/>
</linearGradient>
<linearGradient id="paint1_linear_114_133" x1="32.0864" y1="35.6517" x2="46.7821" y2="49.5859" gradientUnits="userSpaceOnUse">
<stop offset="0.00047536" stop-color="#F59F77"/>
<stop offset="0.3758" stop-color="#EE9470"/>
<stop offset="1" stop-color="#DB7960"/>
</linearGradient>
<linearGradient id="paint2_linear_114_133" x1="3.57109" y1="27.3377" x2="62.5054" y2="25.8797" gradientUnits="userSpaceOnUse">
<stop offset="0.00047536" stop-color="#F59F77"/>
<stop offset="0.3758" stop-color="#EE9470"/>
<stop offset="1" stop-color="#DB7960"/>
</linearGradient>
<linearGradient id="paint3_linear_114_133" x1="18.805" y1="21.5998" x2="42.4406" y2="36.7217" gradientUnits="userSpaceOnUse">
<stop offset="0.00047536" stop-color="#F39067"/>
<stop offset="0.3683" stop-color="#EA8561"/>
<stop offset="1" stop-color="#D46951"/>
</linearGradient>
<linearGradient id="paint4_linear_114_133" x1="67.3612" y1="14.3357" x2="46.4803" y2="84.3994" gradientUnits="userSpaceOnUse">
<stop offset="0.00047536" stop-color="#F8C5A1"/>
<stop offset="0.7338" stop-color="#F9BA9A"/>
<stop offset="1" stop-color="#FAB597"/>
</linearGradient>
<linearGradient id="paint5_linear_114_133" x1="63.6414" y1="17.1598" x2="43.8369" y2="83.6116" gradientUnits="userSpaceOnUse">
<stop offset="0.00047536" stop-color="#F7B08A"/>
<stop offset="0.3919" stop-color="#F1A583"/>
<stop offset="1" stop-color="#E38C72"/>
</linearGradient>
<linearGradient id="paint6_linear_114_133" x1="48.9768" y1="26.0594" x2="41.5834" y2="50.8671" gradientUnits="userSpaceOnUse">
<stop offset="0.00047536" stop-color="#F8C5A1"/>
<stop offset="0.7338" stop-color="#F9BA9A"/>
<stop offset="1" stop-color="#FAB597"/>
</linearGradient>
<linearGradient id="paint7_linear_114_133" x1="47.2515" y1="25.5452" x2="39.8581" y2="50.3529" gradientUnits="userSpaceOnUse">
<stop offset="0.00047536" stop-color="#F7B08A"/>
<stop offset="0.3919" stop-color="#F1A583"/>
<stop offset="1" stop-color="#E38C72"/>
</linearGradient>
<linearGradient id="paint8_linear_114_133" x1="20.0906" y1="39.0524" x2="26.8542" y2="39.3092" gradientUnits="userSpaceOnUse">
<stop offset="0.00047536" stop-color="#F7B08A"/>
<stop offset="0.3919" stop-color="#F1A583"/>
<stop offset="1" stop-color="#E38C72"/>
</linearGradient>
</defs>
</svg>
