<svg width="106" height="114" viewBox="0 0 106 114" fill="none" xmlns="http://www.w3.org/2000/svg">
<mask id="mask0_114_136" style="mask-type:alpha" maskUnits="userSpaceOnUse" x="0" y="0" width="106" height="114">
<path d="M78.9937 13.7248C79.8537 15.5748 77.8737 19.8148 78.8137 23.9448C79.7437 28.0648 80.0137 31.9448 81.5537 36.2548C83.0937 40.5748 85.9137 44.0148 84.1237 52.2748C82.3237 60.5448 83.9637 65.6648 82.4137 69.3648C82.7437 69.6148 83.4837 70.2348 84.4937 71.0948C90.2237 75.9648 104.774 88.7548 104.774 88.7548C104.774 88.7548 106.574 90.6148 104.444 94.4848C102.704 97.6648 92.0738 107.915 84.6338 111.875C83.0238 112.745 81.5437 113.305 80.3537 113.435C74.3537 105.105 68.8838 98.2648 66.0338 94.7948C64.7138 93.1948 63.9638 92.3048 63.9638 92.3048C63.9638 92.3048 60.6737 88.2148 55.8737 87.2448C51.0637 86.2748 42.7538 82.9748 36.5738 76.2048C30.4138 69.4248 25.8337 63.8248 22.5237 61.4648C19.2137 59.1248 11.7438 53.1348 7.85375 48.7448C4.27375 44.7048 3.02376 41.4448 3.98376 39.7348L3.99374 39.7248C4.06374 39.5748 4.16374 39.4348 4.27374 39.3148C5.29374 38.2248 6.59376 37.9548 7.73376 38.9148C3.71376 34.9448 -0.496239 30.5248 0.393761 26.6148C0.583761 25.8048 0.923732 25.2448 1.36373 24.8948C3.00373 23.5448 6.12373 25.1948 8.36373 27.3148C9.23373 28.1448 10.2538 29.0748 11.2938 29.9948C11.3038 30.0048 11.3037 30.0048 11.3037 30.0048C12.2937 30.8848 13.3137 31.7848 14.2537 32.5848C15.4337 33.6248 16.4937 34.5248 17.1637 35.1248C17.7937 35.6848 18.9237 36.7048 20.3737 37.8448C21.1637 38.4548 22.0238 39.0948 22.9538 39.7348C25.1838 41.2648 27.7637 42.7248 30.3637 43.4348C31.1337 40.6648 31.1338 39.7348 31.1338 39.7348C31.1338 39.7348 23.3837 30.9248 18.7437 22.4148C14.0937 13.9048 11.8738 8.74481 12.8538 5.12481C13.0538 4.35481 13.4438 3.78481 13.9238 3.40481C13.9238 3.40481 13.9237 3.40481 13.9337 3.39481C15.7237 1.95481 18.8638 2.84481 19.6338 4.32481C19.2138 3.02481 19.7038 1.61481 20.7338 0.774813C21.9838 -0.255187 24.0338 -0.455187 26.1338 1.40481C29.9138 4.74481 35.0738 11.5548 38.7638 15.7448L38.8838 15.8848C42.5938 20.0748 47.1537 24.9848 48.6537 28.2948C50.1637 31.5948 54.8737 36.3048 58.4237 37.9448C61.9637 39.6048 66.1737 40.1048 69.1837 40.2748C70.5437 31.9548 65.9638 26.8048 70.8438 17.2348C72.3238 14.3548 74.5038 13.0148 76.2738 12.7548C77.5838 12.5648 78.6337 12.9448 78.9937 13.7248Z" fill="url(#paint0_linear_114_136)"/>
<path d="M104.434 94.4848C102.694 97.6648 92.0638 107.915 84.6238 111.875C66.6138 91.4248 86.8137 79.3348 84.4737 71.0948C90.2037 75.9648 104.754 88.7548 104.754 88.7548C104.754 88.7548 106.564 90.6148 104.434 94.4848Z" fill="url(#paint1_linear_114_136)"/>
<path d="M69.2138 40.2848C69.2138 40.2848 67.7638 41.2548 65.0738 41.0948C62.3838 40.9348 58.6838 42.8348 54.2538 39.4248C49.8038 36.0148 47.6337 27.5248 44.5237 24.0148C41.9437 21.1048 41.3738 19.8048 38.7938 15.7548L38.9037 15.8848C42.6137 20.0748 47.1738 24.9848 48.6738 28.2948C50.1838 31.5948 54.8938 36.3048 58.4438 37.9448C61.9938 39.6048 66.2038 40.1048 69.2138 40.2848Z" fill="url(#paint2_linear_114_136)"/>
<path d="M78.9937 13.7248C79.8537 15.5748 77.8737 19.8148 78.8137 23.9448C79.7437 28.0648 80.0137 31.9448 81.5537 36.2548C83.0937 40.5748 85.9137 44.0148 84.1237 52.2748C82.3237 60.5448 83.9637 65.6648 82.4137 69.3648C82.0937 74.5948 76.3738 76.4348 76.5938 79.2448C76.8038 82.0548 72.4238 85.6548 67.5338 89.9848C66.2738 91.1048 65.8938 92.8348 66.0338 94.7948C64.7138 93.1948 63.9638 92.3048 63.9638 92.3048C63.9638 92.3048 60.6737 88.2148 55.8737 87.2448C51.0637 86.2748 42.7537 82.9748 36.5737 76.2048C30.4137 69.4248 25.8337 63.8248 22.5237 61.4648C19.2137 59.1248 11.7437 53.1348 7.85375 48.7448C4.27375 44.7048 3.02375 41.4448 3.98375 39.7348C3.95375 43.8048 8.03374 47.2648 9.72374 49.1648C11.7137 51.4148 16.4437 55.8048 23.3237 59.0548C30.2137 62.3048 30.8537 66.1448 35.7837 71.7048C40.7137 77.2648 48.1337 82.6948 55.4037 81.5248C61.2237 80.5848 63.6137 77.3548 63.1237 74.4248C68.1837 72.8748 70.8037 70.2848 76.2537 62.7948C81.7037 55.2948 78.6138 50.1948 79.9038 44.8848C81.0338 40.2748 78.4737 34.6348 75.4538 30.5848C74.6937 29.5648 74.6138 28.2248 75.2038 27.0948C75.8037 25.9248 76.1737 24.5448 75.9737 23.2048C75.8537 22.3548 75.9338 21.4648 76.3438 20.7148C79.4138 15.0948 78.5738 13.2348 76.2838 12.7748C77.5838 12.5648 78.6337 12.9448 78.9937 13.7248Z" fill="url(#paint3_linear_114_136)"/>
<path d="M13.9438 3.41481C12.6138 6.40481 14.2638 10.6548 15.1738 13.2448C16.2438 16.2048 16.8238 14.3448 18.5738 18.6348C20.3238 22.9248 23.0238 26.4348 24.4238 27.6948C25.8238 28.9648 26.0738 29.3548 26.9238 31.7748C27.7838 34.1848 30.5938 37.1548 33.1738 38.5748C33.0338 41.1048 30.3938 43.4448 30.3938 43.4448C31.1638 40.6748 31.1638 39.7448 31.1638 39.7448C31.1638 39.7448 23.4137 30.9348 18.7737 22.4248C14.1237 13.9148 11.9038 8.75481 12.8838 5.13481C13.0738 4.36481 13.4538 3.79481 13.9438 3.41481Z" fill="url(#paint4_linear_114_136)"/>
<path d="M20.7537 0.784821C20.0637 3.81482 21.8137 7.03482 23.0637 8.70482C24.5037 10.6048 26.5437 12.5048 27.7737 15.2448C29.0037 17.9848 31.8337 19.8248 32.6637 20.7648C33.4937 21.7048 32.9537 20.9548 35.0737 25.1348C37.1837 29.3048 41.0437 32.8548 41.0437 32.8548C41.0437 32.8548 38.0037 34.7948 37.3337 35.7248C38.5237 33.6248 38.7937 33.1448 38.7937 33.1448C38.7937 33.1448 37.9337 31.3248 35.3237 28.0848C32.7137 24.8548 29.4637 20.8548 28.3737 19.0648C27.2837 17.2848 23.5538 11.6548 22.6738 10.0548C21.8038 8.45482 20.0937 6.10482 19.6537 4.34482C19.2337 3.03482 19.7237 1.62482 20.7537 0.784821Z" fill="url(#paint5_linear_114_136)"/>
<path d="M14.2737 32.5848C13.6237 32.8948 12.6538 33.4448 11.8538 34.1548C12.5238 32.7648 12.4037 31.6148 11.3337 30.0048C12.3137 30.8848 13.3337 31.7848 14.2737 32.5848Z" fill="url(#paint6_linear_114_136)"/>
<path d="M22.9738 39.7348C22.3538 39.8848 21.3937 40.3148 20.2137 41.5948C21.0537 40.4548 21.1538 39.0948 20.3938 37.8448C21.1738 38.4548 22.0438 39.0948 22.9738 39.7348Z" fill="url(#paint7_linear_114_136)"/>
<path d="M13.0038 43.3848C14.6838 45.5648 14.8638 46.3248 13.7338 48.0748C15.3538 46.1348 16.0438 45.7348 16.0438 45.7348L13.0038 43.3848Z" fill="url(#paint8_linear_114_136)"/>
<path d="M17.9538 47.0448C19.6138 48.1148 20.2137 49.8748 20.2137 49.8748C20.2137 49.8748 19.5637 51.5348 18.6237 52.3648C20.9337 50.7348 22.0038 49.0748 22.0038 49.0748L17.9538 47.0448Z" fill="url(#paint9_linear_114_136)"/>
<path d="M27.9337 12.5148C28.1937 12.2148 28.4738 11.9248 28.7938 11.6848C29.1138 11.4348 29.4638 11.2348 29.8238 11.0648C30.5738 10.7548 31.3038 10.5548 31.9738 10.1148C31.7238 10.4248 31.3938 10.6748 31.0338 10.8648C30.6738 11.0548 30.3037 11.1848 29.9637 11.3648C29.2437 11.6548 28.6137 12.0948 27.9337 12.5148Z" fill="#E08172"/>
<path d="M34.5738 21.1848C35.0538 20.4748 35.7737 19.9548 36.4937 19.5048C37.2337 19.0748 37.9637 18.7048 38.6537 18.1948C38.1537 18.9048 37.3638 19.3348 36.6638 19.7848C35.9338 20.2048 35.2538 20.6648 34.5738 21.1848Z" fill="#E08172"/>
<path d="M19.5837 16.1648C20.0837 15.5448 20.7338 15.0748 21.3938 14.6448C22.0738 14.2448 22.7837 13.8748 23.5537 13.6848C22.2237 14.5248 20.9037 15.3048 19.5837 16.1648Z" fill="#E08172"/>
<path d="M26.6137 27.9548C27.9837 26.7948 29.3538 25.7048 30.7338 24.5548C30.2238 25.3048 29.5537 25.9148 28.8737 26.5048C28.1637 27.0548 27.4337 27.5748 26.6137 27.9548Z" fill="#E08172"/>
<path d="M42.2938 31.5348C42.8738 30.9948 43.5938 30.6348 44.3238 30.3648C45.0738 30.1248 45.8538 29.9548 46.6438 30.0048C45.8938 30.2148 45.1537 30.4048 44.4337 30.6648C43.7037 30.9048 43.0138 31.2248 42.2938 31.5348Z" fill="#E08172"/>
<path d="M70.8838 28.6448C71.3438 28.3648 71.9138 28.2248 72.4638 28.2848C73.0238 28.3248 73.5437 28.5248 74.0537 28.6848C75.0537 29.0648 76.0738 29.3148 77.1438 29.0748C76.6538 29.3048 76.0937 29.4048 75.5437 29.3648C74.9937 29.3248 74.4638 29.1548 73.9538 28.9948C72.9538 28.6048 71.9338 28.2748 70.8838 28.6448Z" fill="#E08172"/>
<path d="M60.7237 73.6748C62.0137 74.3748 63.3538 74.9248 64.7538 75.2248C66.1538 75.5248 67.5838 75.6248 69.0038 75.4948C71.8538 75.2648 74.6137 74.2848 77.1837 72.8948C76.0437 73.8148 74.7437 74.5448 73.3737 75.1048C72.0037 75.6648 70.5437 76.0248 69.0537 76.1448C67.5737 76.2548 66.0537 76.1348 64.6237 75.7048C63.2037 75.2848 61.8637 74.5948 60.7237 73.6748Z" fill="#E08172"/>
<path d="M69.2437 79.9348C71.8037 79.0148 74.1937 77.7748 76.4137 76.2848C78.6237 74.7748 80.7137 73.0548 82.1837 70.7548C81.6937 72.0348 80.8637 73.1648 79.9237 74.1748C78.9837 75.1848 77.9038 76.0548 76.7738 76.8248C75.6338 77.5848 74.4237 78.2548 73.1637 78.7748C71.9037 79.3148 70.5937 79.7448 69.2437 79.9348Z" fill="#E08172"/>
<path d="M63.1438 90.3848C64.0238 89.7748 64.8737 89.1548 65.6837 88.4848C66.4837 87.8048 67.2737 87.1148 68.0537 86.3948C68.8437 85.6948 69.6237 84.9648 70.4837 84.3248C71.3337 83.6748 72.2538 83.0848 73.2638 82.7248C71.4938 83.9148 70.0737 85.4448 68.4937 86.8848C66.9137 88.3048 65.1538 89.6348 63.1438 90.3848Z" fill="#E08172"/>
<path d="M26.9137 50.0148C26.9137 50.0148 26.5437 53.0548 26.7837 55.0248C26.2537 53.3648 25.9737 52.1448 25.9737 52.1448C25.9737 52.1448 20.4337 48.9348 17.7537 47.2948C15.0937 45.6448 9.97374 41.1748 7.74374 38.9048C3.72374 34.9348 -0.48626 30.5148 0.40374 26.6048C0.59374 25.7948 0.933741 25.2348 1.37374 24.8848C0.113741 28.2148 2.43376 31.3548 5.95376 34.0848C9.69376 36.9948 8.71374 37.5748 12.9937 41.0848C17.2637 44.5848 16.8837 42.4148 19.2837 45.6148C21.6937 48.8548 26.9137 50.0148 26.9137 50.0148Z" fill="url(#paint10_linear_114_136)"/>
<path d="M33.0938 60.7148C34.5338 59.0348 35.9937 57.3948 37.3637 55.6648C38.7437 53.9548 40.0938 52.2148 41.3538 50.4148C42.6638 48.6448 43.8738 46.8148 45.0638 44.9648C46.2538 43.1148 47.3938 41.2348 48.4838 39.3048C47.6438 41.3548 46.6037 43.3148 45.4937 45.2248C44.3837 47.1348 43.1638 48.9848 41.8838 50.7948C40.5638 52.5748 39.2237 54.3348 37.7437 55.9848C36.2937 57.6548 34.7237 59.2248 33.0938 60.7148Z" fill="#E08172"/>
<path d="M54.9238 69.4048C53.0738 67.8948 51.6137 65.9148 50.5637 63.7548C49.5037 61.5948 48.8737 59.2348 48.5237 56.8648C48.2237 54.4748 48.2138 52.0548 48.5438 49.6848C48.8738 47.3148 49.5038 44.9748 50.5438 42.8248C49.7638 45.0748 49.2638 47.3948 49.0438 49.7448C48.8238 52.0848 48.8338 54.4548 49.1738 56.7848C49.7538 61.4148 51.5838 65.9848 54.9238 69.4048Z" fill="#E08172"/>
</mask>
<g mask="url(#mask0_114_136)">
<rect x="-8" y="-18" width="125" height="132" fill="white"/>
</g>
<defs>
<linearGradient id="paint0_linear_114_136" x1="30.9027" y1="74.7433" x2="88.1804" y2="24.0007" gradientUnits="userSpaceOnUse">
<stop offset="0.00047536" stop-color="#F8C5A1"/>
<stop offset="0.7338" stop-color="#F9BA9A"/>
<stop offset="1" stop-color="#FAB597"/>
</linearGradient>
<linearGradient id="paint1_linear_114_136" x1="74.8839" y1="100.867" x2="97.6388" y2="80.7086" gradientUnits="userSpaceOnUse">
<stop offset="0.00047536" stop-color="#F7B08A"/>
<stop offset="0.3919" stop-color="#F1A583"/>
<stop offset="1" stop-color="#E38C72"/>
</linearGradient>
<linearGradient id="paint2_linear_114_136" x1="48.3319" y1="33.0155" x2="56.4236" y2="25.847" gradientUnits="userSpaceOnUse">
<stop offset="0.00047536" stop-color="#F7B08A"/>
<stop offset="0.3919" stop-color="#F1A583"/>
<stop offset="1" stop-color="#E38C72"/>
</linearGradient>
<linearGradient id="paint3_linear_114_136" x1="28.9806" y1="72.5736" x2="86.2582" y2="21.831" gradientUnits="userSpaceOnUse">
<stop offset="0.00047536" stop-color="#F7B08A"/>
<stop offset="0.3919" stop-color="#F1A583"/>
<stop offset="1" stop-color="#E38C72"/>
</linearGradient>
<linearGradient id="paint4_linear_114_136" x1="16.8212" y1="28.1286" x2="27.4712" y2="18.6937" gradientUnits="userSpaceOnUse">
<stop offset="0.00047536" stop-color="#F7B08A"/>
<stop offset="0.3919" stop-color="#F1A583"/>
<stop offset="1" stop-color="#E38C72"/>
</linearGradient>
<linearGradient id="paint5_linear_114_136" x1="25.1015" y1="21.9187" x2="33.1549" y2="14.7842" gradientUnits="userSpaceOnUse">
<stop offset="0.00047536" stop-color="#F7B08A"/>
<stop offset="0.3919" stop-color="#F1A583"/>
<stop offset="1" stop-color="#E38C72"/>
</linearGradient>
<linearGradient id="paint6_linear_114_136" x1="10.8322" y1="33.011" x2="12.97" y2="31.1172" gradientUnits="userSpaceOnUse">
<stop offset="0.00047536" stop-color="#F7B08A"/>
<stop offset="0.3919" stop-color="#F1A583"/>
<stop offset="1" stop-color="#E38C72"/>
</linearGradient>
<linearGradient id="paint7_linear_114_136" x1="19.4554" y1="40.7388" x2="21.925" y2="38.5509" gradientUnits="userSpaceOnUse">
<stop offset="0.00047536" stop-color="#F7B08A"/>
<stop offset="0.3919" stop-color="#F1A583"/>
<stop offset="1" stop-color="#E38C72"/>
</linearGradient>
<linearGradient id="paint8_linear_114_136" x1="12.3999" y1="46.5609" x2="14.8533" y2="44.3874" gradientUnits="userSpaceOnUse">
<stop offset="0.00047536" stop-color="#F7B08A"/>
<stop offset="0.3919" stop-color="#F1A583"/>
<stop offset="1" stop-color="#E38C72"/>
</linearGradient>
<linearGradient id="paint9_linear_114_136" x1="17.18" y1="50.7328" x2="20.7083" y2="47.607" gradientUnits="userSpaceOnUse">
<stop offset="0.00047536" stop-color="#F7B08A"/>
<stop offset="0.3919" stop-color="#F1A583"/>
<stop offset="1" stop-color="#E38C72"/>
</linearGradient>
<linearGradient id="paint10_linear_114_136" x1="10.8826" y1="42.7635" x2="16.2612" y2="37.9986" gradientUnits="userSpaceOnUse">
<stop offset="0.00047536" stop-color="#F7B08A"/>
<stop offset="0.3919" stop-color="#F1A583"/>
<stop offset="1" stop-color="#E38C72"/>
</linearGradient>
</defs>
</svg>
