<svg width="97" height="96" viewBox="0 0 97 96" fill="none" xmlns="http://www.w3.org/2000/svg">
<path d="M47.2 16.89C42.98 17.51 37.04 16.82 33.49 13.09C29.2 8.57 28.52 2.59 30.47 0.729999C30.86 0.349999 31.35 0.139999 31.94 0.139999C32.03 0.169999 32.12 0.199999 32.21 0.229999C33.81 0.819999 35.09 2.41 36.22 4.07C37.62 6.13 38.8 8.31 40.14 8.9C42.62 9.99 46.01 14.69 51.5 15.43C50.68 16.08 49.11 16.61 47.2 16.89Z" fill="url(#paint0_linear_1_31)"/>
<path d="M34.76 4.65C34.76 4.65 30.25 1.82 32.21 0.220001C33.49 0.700001 34.58 1.82 35.54 3.11C35.77 3.41 36 3.74 36.22 4.06C35.36 4.33 34.99 4.5 34.85 4.6C34.79 4.64 34.76 4.65 34.76 4.65Z" fill="url(#paint1_linear_1_31)"/>
<path d="M47.2 16.89C42.98 17.51 37.04 16.82 33.49 13.09C29.2 8.57 28.52 2.59 30.47 0.73C29.27 3.16 30.79 6.37 34.46 8.23C38.95 10.51 44.7 12.07 47.2 16.89Z" fill="url(#paint2_linear_1_31)"/>
<path d="M44.6 19.22C39.7 19.54 33.97 19.18 30.79 19.61C24.38 20.48 17.77 16.97 17.77 16.97C17.77 16.97 15.57 17.58 9.95 14.55C3.46 12.23 3.03999 7.92 4.55999 6.21C4.84999 5.88 5.20999 5.64 5.59999 5.54C5.81999 5.48 6.03998 5.44 6.23998 5.42C7.87998 5.26 9.69999 6.12 12.06 7.02C13.15 7.44 14.38 7.88 15.74 8.22C20.43 9.4 23.06 7.74 31.01 9.38C38.97 11.01 44.47 15.91 53.46 14.75C53.66 17.92 49.55 18.91 44.6 19.22Z" fill="url(#paint3_linear_1_31)"/>
<path d="M10.53 8.36C9.30001 8.23 7.27002 7.93 6.45002 7.24C6.45002 7.24 6.21001 6.91 6.25001 5.43C7.64001 5.3 9.17001 5.9 11.06 6.64C11.39 6.76 11.72 6.9 12.07 7.03C12.06 7.41 11.87 7.77 11.58 8.03C11.52 8.09 11.46 8.13 11.38 8.17C11.13 8.32 10.83 8.39 10.53 8.36Z" fill="url(#paint4_linear_1_31)"/>
<path d="M30.79 19.61C24.38 20.48 17.77 16.97 17.77 16.97C17.77 16.97 15.57 17.58 9.95 14.55C3.46 12.23 3.03999 7.92 4.55999 6.21C5.97998 12.05 14.36 15.2 17.99 12.17C21.55 17.32 24.95 17.53 28.93 14.28C32.46 17.13 35.33 16.44 41.68 15.95C46.62 15.57 46.38 17.25 44.61 19.21C39.7 19.54 33.97 19.19 30.79 19.61Z" fill="url(#paint5_linear_1_31)"/>
<path d="M68.83 95.29C65.88 87.51 60.95 80.21 52.44 75.44C46.38 72.03 35.98 67.63 31.9 59.2C31.16 57.7 30.63 56.06 30.38 54.28C30.35 54.13 30.33 53.97 30.31 53.8C29.88 50.17 30.8 46.54 32.56 43.34C32.86 42.8 33.18 42.26 33.53 41.75C34.19 40.77 34.88 39.89 35.6 39.09C38.85 35.43 42.52 33.55 46.63 31.33C46.63 31.33 42.62 31.3 41.03 27.02C37.32 28.54 29.76 26.29 27.9 24.06C27.9 24.06 24.31 29.45 16.82 28.41C15.84 29.12 14.89 29.69 13.95 30.11C11.4 31.31 9.03 31.58 7.15 31.53C5.74 31.51 4.6 31.29 3.84 31.15C3.42 31.07 2.97999 30.93 2.54999 30.71C2.14999 30.52 1.76001 30.26 1.41001 29.97C0.530008 29.21 -0.0600031 28.15 0.179997 26.95C0.209997 26.8 0.260012 26.63 0.320012 26.47C0.380012 26.28 0.470001 26.09 0.590001 25.88C1.47 24.34 3.92001 23.12 6.38001 22.02C7.66001 21.43 8.92 20.9 9.97001 20.36C13.05 18.81 17.93 15.79 22.07 13.95C26.21 12.11 30.39 11.67 34.35 11.58C38.31 11.47 43.9 11.77 48.28 13.47C52.66 15.16 55.36 14.85 58.48 14.95C59.52 14.98 60.71 15.08 61.86 15.45C64.15 16.18 66.32 17.95 67.15 22.15C68.4 28.47 70.57 44.78 74.06 51.35C77.54 57.93 80.97 62.08 84.45 66.31C87.93 70.53 96.51 78.27 96.51 78.27C96.51 78.27 93.13 83.96 86.73 88.76C84.88 90.14 82.79 91.46 80.44 92.52C77.08 94.12 73.2 95.18 68.83 95.29Z" fill="url(#paint6_linear_1_31)"/>
<path d="M43.73 64.69C42.52 64.47 41.25 64.14 39.91 63.7C36.95 62.7 34.27 61.07 31.91 59.2C28.22 56.28 25.28 52.76 23.23 50.22C18.01 48.49 14.98 42.18 10.79 40.27C9.60001 39.72 8.36999 39.15 7.20999 38.56C4.38999 37.17 1.98 35.69 1.41 34.32C1.39 34.29 1.36998 34.25 1.35998 34.22C0.909985 32.9 1.07 31.53 2.56 30.73C2.9 30.55 3.32001 30.39 3.82001 30.27C4.36001 30.14 4.99 30.06 5.72 30.04C7.95 29.95 10.95 29.89 13.95 30.13C17.21 30.42 20.47 31.09 22.75 32.54C24.04 33.36 25.15 34.19 26.15 34.97C28.52 36.81 30.3 38.38 32.67 39.09C33.41 39.31 34.42 39.29 35.6 39.1C36.49 38.96 37.45 38.71 38.48 38.38C42.22 37.2 46.62 35.01 49.44 33.06C54.07 29.88 58.3 25.17 63.04 30.11C67.55 34.8 66.75 68.88 43.73 64.69Z" fill="url(#paint7_linear_1_31)"/>
<path d="M0.320007 26.49C0.380007 26.3 0.469996 26.11 0.589996 25.9C1.37 24.54 3.35 23.45 5.5 22.44C5.79 22.32 6.08 22.18 6.38 22.05C6.96 22.67 7.13999 23.04 7.20999 23.22C7.22999 23.3 7.23999 23.34 7.23999 23.34C7.23999 23.34 4.62 25.14 3.47 26.45C2.2 26.14 1.05001 26.29 0.320007 26.49Z" fill="url(#paint8_linear_1_31)"/>
<path d="M86.74 88.79C87.78 69.02 78.94 65.16 72.14 57.81C64.87 49.96 66.46 38.07 66.34 30.42C66.24 23.97 66.39 18.83 61.87 15.48C64.16 16.21 66.33 17.98 67.16 22.18C68.41 28.5 70.58 44.81 74.07 51.38C77.55 57.96 80.98 62.11 84.46 66.34C87.94 70.56 96.52 78.3 96.52 78.3C96.52 78.3 93.14 83.98 86.74 88.79Z" fill="url(#paint9_linear_1_31)"/>
<path d="M32.67 39.09C33.41 39.31 34.42 39.29 35.6 39.1C36.49 38.96 37.45 38.71 38.48 38.38C36.48 39.71 33.71 41.61 32.57 43.34C30.33 40.32 28.07 37.31 26.15 34.97C28.51 36.81 30.29 38.39 32.67 39.09Z" fill="url(#paint10_linear_1_31)"/>
<path d="M68.83 95.29C65.88 87.51 60.95 80.21 52.44 75.44C46.38 72.03 35.98 67.63 31.9 59.2C28.21 56.28 25.27 52.76 23.22 50.22C18 48.49 14.97 42.18 10.78 40.27C9.59001 39.72 8.36002 39.15 7.20002 38.56C4.38002 37.17 1.97 35.69 1.4 34.32C1.38 34.29 1.36001 34.25 1.35001 34.22C0.900013 32.9 1.05999 31.53 2.54999 30.73C2.14999 30.54 1.76001 30.28 1.41001 29.99C2.27001 29.99 3.07 30.1 3.81 30.27C5.08 30.56 6.19002 31.01 7.14002 31.55C9.10002 32.65 10.4 34.03 11 34.73C12.36 36.29 12.4 37.94 14.57 38.34C15.62 39.46 16.64 38.72 16.64 38.72C16.64 38.72 17.43 45.47 22.96 46.8C25.04 49.82 27.8 52.34 30.38 54.28C34.39 57.34 37.99 58.98 37.99 58.98C37.99 58.98 40.39 61.77 43.73 64.69C45.69 66.42 47.97 68.17 50.27 69.45C56.17 72.71 74.93 74.59 80.46 92.56C77.08 94.12 73.2 95.18 68.83 95.29Z" fill="url(#paint11_linear_1_31)"/>
<path d="M7.20001 38.56C7.04001 38.48 6.88001 38.41 6.73001 38.33C4.12001 37 1.94 35.62 1.41 34.33C1.7 33.02 2.7 31.94 3.91 31.93C6.94 32.82 9.5 35.73 9.5 35.73C9.5 35.73 9.39 35.97 9.16 36.34C8.8 36.92 8.16001 37.81 7.20001 38.56Z" fill="url(#paint12_linear_1_31)"/>
<path d="M32.56 43.34C32.86 42.8 33.18 42.26 33.53 41.75C34.19 40.77 34.88 39.89 35.6 39.09C38.85 35.43 42.52 33.55 46.63 31.33C46.63 31.33 42.62 31.3 41.03 27.02C37.32 28.54 29.76 26.29 27.9 24.06C27.9 24.06 24.31 29.45 16.82 28.41C15.84 29.12 14.89 29.69 13.95 30.11C11.4 31.31 9.03 31.58 7.15 31.53C5.74 31.51 4.6 31.29 3.84 31.15C3.42 31.07 2.97999 30.93 2.54999 30.71C2.14999 30.52 1.76001 30.26 1.41001 29.97C0.530008 29.21 -0.0600031 28.15 0.179997 26.95C3.62 31.32 12.49 28.86 15.45 24.52C18.49 25.5 25.01 25.47 28.23 19.26C30.07 23.52 35.6 25.18 41.67 23.67C47.74 22.16 44.5 21.62 48.6 24.23C52.69 26.85 55.11 22.84 56.06 23.69C57 24.55 52.66 27.04 55.52 31.68C51.21 32.41 44.49 35.9 42.06 42.8C42.06 42.8 39.41 40.62 36.39 41.37C34.69 41.81 33.39 42.79 32.56 43.34Z" fill="url(#paint13_linear_1_31)"/>
<path d="M23.5 49.34C23.06 48.63 22.79 47.82 22.59 47.01C22.39 46.19 22.3 45.36 22.29 44.51L22.94 44.53C22.85 46.07 22.72 47.61 22.4 49.14C22.23 47.59 22.24 46.04 22.29 44.5C22.3 44.32 22.45 44.18 22.63 44.19C22.8 44.2 22.94 44.34 22.94 44.51V44.52C22.95 45.31 23.02 46.13 23.1 46.93C23.18 47.73 23.32 48.53 23.5 49.34Z" fill="#E08172"/>
<path d="M16.91 44.29C16.49 42.86 16.49 41.36 16.58 39.9C16.64 39.17 16.72 38.44 16.84 37.73L17 36.66C17.06 36.3 17.12 35.95 17.05 35.59C17.41 36.27 17.32 37.06 17.34 37.78C17.34 38.51 17.28 39.24 17.23 39.96C17.12 41.4 17 42.82 16.91 44.29Z" fill="#E08172"/>
<path d="M14.71 35.73C14.84 36.82 14.78 37.9 14.7 38.96L14.53 40.54C14.48 41.07 14.41 41.58 14.45 42.13C14.14 41.66 14.07 41.08 14.02 40.54C13.97 39.99 14 39.45 14.04 38.91C14.16 37.83 14.34 36.77 14.71 35.73Z" fill="#E08172"/>
<path d="M15.31 23.84C15.63 24.52 15.81 25.17 16.02 25.82C16.21 26.47 16.4 27.1 16.63 27.8C16.29 27.61 16.06 27.32 15.85 27.01C15.64 26.7 15.51 26.36 15.39 26.01C15.29 25.66 15.22 25.3 15.21 24.93C15.2 24.57 15.21 24.2 15.31 23.84Z" fill="#E08172"/>
<path d="M28.26 18.67C28.28 19.57 28.17 20.4 28.07 21.24L27.7 23.77C27.49 23.36 27.42 22.91 27.38 22.47C27.33 22.03 27.37 21.59 27.42 21.15C27.48 20.72 27.57 20.29 27.71 19.87C27.86 19.46 28.02 19.05 28.26 18.67Z" fill="#E08172"/>
<path d="M46.14 23.64C45.92 24.11 45.62 24.54 45.28 24.94C44.95 25.34 44.55 25.69 44.14 26C43.71 26.3 43.26 26.57 42.77 26.76C42.28 26.94 41.76 27.09 41.23 27.06C42.15 26.59 42.96 26.06 43.76 25.48C44.55 24.9 45.3 24.26 46.14 23.64Z" fill="#E08172"/>
<path d="M55.26 24.43C54.82 25.23 54.31 25.98 53.73 26.68C53.16 27.39 52.5 28.03 51.82 28.63C51.12 29.21 50.38 29.75 49.57 30.19C48.77 30.63 47.93 31.02 47.04 31.2C48.62 30.32 50.04 29.27 51.4 28.13C52.74 26.98 53.99 25.72 55.26 24.43Z" fill="#E08172"/>
<path opacity="0.35" d="M18.08 12.75C18.3 13.4 18.31 14.05 18.24 14.7C18.19 15.02 18.13 15.35 17.99 15.65C17.86 15.95 17.71 16.29 17.41 16.48C17.48 16.15 17.48 15.85 17.51 15.54C17.52 15.23 17.56 14.92 17.6 14.61C17.69 14 17.8 13.38 18.08 12.75Z" fill="#E08172"/>
<path opacity="0.35" d="M28.31 15.47C28.51 15.94 28.53 16.37 28.52 16.8C28.49 17.23 28.42 17.64 28.23 18.1C28.06 17.9 27.99 17.67 27.93 17.45C27.87 17.22 27.86 17 27.87 16.77C27.89 16.55 27.91 16.32 27.99 16.11C28.06 15.88 28.15 15.67 28.31 15.47Z" fill="#E08172"/>
<path opacity="0.68" d="M7.20001 38.56C7.04001 38.48 6.88001 38.41 6.73001 38.33C7.01001 37.74 7.68999 37.06 9.14999 36.34C8.79999 36.92 8.16001 37.81 7.20001 38.56Z" fill="#F8917F"/>
<path opacity="0.68" d="M7.20999 23.22C6.44999 23.15 5.88 22.79 5.5 22.44C5.79 22.32 6.08 22.18 6.38 22.05C6.95 22.67 7.13999 23.03 7.20999 23.22Z" fill="#F8917F"/>
<path opacity="0.68" d="M11.39 8.16C11.23 7.85 11.07 7.37 11.06 6.63C11.39 6.75 11.72 6.89 12.07 7.02C12.06 7.4 11.87 7.76 11.58 8.02C11.52 8.08 11.46 8.13 11.39 8.16Z" fill="#F8917F"/>
<path opacity="0.68" d="M34.85 4.6C34.87 4.19 34.99 3.55 35.55 3.11C35.78 3.41 36.01 3.74 36.23 4.06C35.36 4.34 35 4.51 34.85 4.6Z" fill="#F8917F"/>
<defs>
<linearGradient id="paint0_linear_1_31" x1="35.8203" y1="0.0214055" x2="43.1276" y2="16.9556" gradientUnits="userSpaceOnUse">
<stop offset="0.00047536" stop-color="#F59F77"/>
<stop offset="0.3758" stop-color="#EE9470"/>
<stop offset="1" stop-color="#DB7960"/>
</linearGradient>
<linearGradient id="paint1_linear_1_31" x1="30.8186" y1="-1.15236" x2="34.8089" y2="3.9521" gradientUnits="userSpaceOnUse">
<stop offset="0.00047536" stop-color="#F59F77"/>
<stop offset="0.3758" stop-color="#EE9470"/>
<stop offset="1" stop-color="#DB7960"/>
</linearGradient>
<linearGradient id="paint2_linear_1_31" x1="37.1898" y1="0.0169975" x2="39.0579" y2="17.7614" gradientUnits="userSpaceOnUse">
<stop offset="0.00047536" stop-color="#F39067"/>
<stop offset="0.3683" stop-color="#EA8561"/>
<stop offset="1" stop-color="#D46951"/>
</linearGradient>
<linearGradient id="paint3_linear_1_31" x1="25.6257" y1="8.02746" x2="66.4168" y2="65.1304" gradientUnits="userSpaceOnUse">
<stop offset="0.00047536" stop-color="#F59F77"/>
<stop offset="0.3758" stop-color="#EE9470"/>
<stop offset="1" stop-color="#DB7960"/>
</linearGradient>
<linearGradient id="paint4_linear_1_31" x1="3.99646" y1="5.68358" x2="10.0689" y2="7.3046" gradientUnits="userSpaceOnUse">
<stop offset="0.00047536" stop-color="#F59F77"/>
<stop offset="0.3758" stop-color="#EE9470"/>
<stop offset="1" stop-color="#DB7960"/>
</linearGradient>
<linearGradient id="paint5_linear_1_31" x1="23.8791" y1="4.18533" x2="25.6719" y2="21.2149" gradientUnits="userSpaceOnUse">
<stop offset="0.00047536" stop-color="#F39067"/>
<stop offset="0.3683" stop-color="#EA8561"/>
<stop offset="1" stop-color="#D46951"/>
</linearGradient>
<linearGradient id="paint6_linear_1_31" x1="55.4324" y1="14.2041" x2="41.453" y2="90.2484" gradientUnits="userSpaceOnUse">
<stop offset="0.00047536" stop-color="#F8C5A1"/>
<stop offset="0.7338" stop-color="#F9BA9A"/>
<stop offset="1" stop-color="#FAB597"/>
</linearGradient>
<linearGradient id="paint7_linear_1_31" x1="35.8519" y1="23.6738" x2="28.818" y2="61.936" gradientUnits="userSpaceOnUse">
<stop offset="0.00047536" stop-color="#F8C5A1"/>
<stop offset="0.7338" stop-color="#F9BA9A"/>
<stop offset="1" stop-color="#FAB597"/>
</linearGradient>
<linearGradient id="paint8_linear_1_31" x1="0.590101" y1="26.5412" x2="7.36639" y2="22.8348" gradientUnits="userSpaceOnUse">
<stop offset="0.00047536" stop-color="#F7B08A"/>
<stop offset="0.3919" stop-color="#F1A583"/>
<stop offset="1" stop-color="#E38C72"/>
</linearGradient>
<linearGradient id="paint9_linear_1_31" x1="84.2338" y1="19.5739" x2="72.0102" y2="86.0667" gradientUnits="userSpaceOnUse">
<stop offset="0.00047536" stop-color="#F7B08A"/>
<stop offset="0.3919" stop-color="#F1A583"/>
<stop offset="1" stop-color="#E38C72"/>
</linearGradient>
<linearGradient id="paint10_linear_1_31" x1="32.4286" y1="36.1195" x2="31.1506" y2="43.0715" gradientUnits="userSpaceOnUse">
<stop offset="0.00047536" stop-color="#F7B08A"/>
<stop offset="0.3919" stop-color="#F1A583"/>
<stop offset="1" stop-color="#E38C72"/>
</linearGradient>
<linearGradient id="paint11_linear_1_31" x1="45.2548" y1="37.8664" x2="35.8157" y2="89.2121" gradientUnits="userSpaceOnUse">
<stop offset="0.00047536" stop-color="#F7B08A"/>
<stop offset="0.3919" stop-color="#F1A583"/>
<stop offset="1" stop-color="#E38C72"/>
</linearGradient>
<linearGradient id="paint12_linear_1_31" x1="1.47955" y1="32.8037" x2="8.0999" y2="36.6013" gradientUnits="userSpaceOnUse">
<stop offset="0.00047536" stop-color="#F7B08A"/>
<stop offset="0.3919" stop-color="#F1A583"/>
<stop offset="1" stop-color="#E38C72"/>
</linearGradient>
<linearGradient id="paint13_linear_1_31" x1="29.8059" y1="18.793" x2="25.5325" y2="42.0387" gradientUnits="userSpaceOnUse">
<stop offset="0.00047536" stop-color="#F7B08A"/>
<stop offset="0.3919" stop-color="#F1A583"/>
<stop offset="1" stop-color="#E38C72"/>
</linearGradient>
</defs>
</svg>
