<svg width="101" height="101" viewBox="0 0 101 101" fill="none" xmlns="http://www.w3.org/2000/svg">
<path d="M10.58 30.12C13.79 34.03 17.09 37.79 21.31 41.12C25.51 44.45 24.57 47.04 24.04 50.16C23.51 53.29 23.39 54.99 23.39 54.99C22.26 53.63 21.18 52.44 20.1 51.37C16.4 47.64 12.9 45.07 9.33001 40.4C4.94001 34.66 3.44001 32.09 4.19001 29.62C4.22001 29.48 4.26001 29.34 4.32001 29.21C5.35001 26.59 7.38001 26.2 10.58 30.12Z" fill="url(#paint0_linear_1_80)"/>
<path d="M15.75 44.16C17.55 44.17 18.57 47.66 20.09 51.36C16.39 47.63 12.89 45.06 9.32 40.39C4.93 34.65 3.43 32.08 4.18 29.61C5.36 34.28 9.23 37.5 10.84 37.5C12.75 37.5 12.39 44.16 15.75 44.16Z" fill="url(#paint1_linear_1_80)"/>
<path d="M28.87 37.27C28.35 39.04 27.52 41.46 26.58 43.43C25.16 46.45 23.49 48.44 22.41 45.37C20.92 41.13 21.66 42.06 18.7 39.98C15.74 37.91 10.29 31.35 7.11 27.12C3.93 22.89 1.31 17.8 1.02 15.56C0.919998 14.81 1.14 14 1.6 13.36C2.51 12.06 4.33 11.41 6.31 13.15C9.28 15.77 15.9 23.92 19.41 26.96C22.92 29.97 30.16 32.8 28.87 37.27Z" fill="url(#paint2_linear_1_80)"/>
<path d="M15.22 32.78C19.13 41.36 23.7 37.19 26.58 43.42C25.16 46.44 23.49 48.43 22.41 45.36C20.92 41.12 21.66 42.05 18.7 39.97C15.74 37.9 10.29 31.34 7.11 27.11C3.93 22.88 1.31 17.79 1.02 15.55C0.919998 14.8 1.14 13.99 1.6 13.35C1.47 17.11 4.15 21.78 7.58 23.83C11.73 26.29 6.87 28.14 15.22 32.78Z" fill="url(#paint3_linear_1_80)"/>
<path d="M31.86 25.08C35.3 28.94 35.87 32.36 34.45 34.2C33.28 35.76 30.7 36.2 27.27 34.85C23.91 30.61 21.94 32.29 16.83 26.16C11.7 20.05 5.88999 15.38 2.49999 9.94C-0.0500098 5.86 1.32999 3.42 2.81999 2.46C3.30999 2.14 3.82999 1.97 4.19999 1.97C5.72999 1.97 7.08999 2.13 15.86 10.9C24.62 19.67 25.51 17.95 31.86 25.08Z" fill="url(#paint4_linear_1_80)"/>
<path d="M34.45 34.2C33.28 35.76 30.7 36.2 27.27 34.85C23.91 30.61 21.94 32.29 16.83 26.16C11.7 20.05 5.88999 15.38 2.49999 9.94C-0.0500098 5.86 1.32999 3.42 2.81999 2.46C1.49999 4.94 2.30999 9.81 8.50999 13.35C9.07999 16.67 12.92 21.21 16.63 22.09C20.34 22.97 20.22 31.58 29.13 32.02C32.66 32.2 34.06 33.14 34.45 34.2Z" fill="url(#paint5_linear_1_80)"/>
<path d="M64.2 16.81C65.88 18.73 66.7 21.74 66.7 21.74C66.7 21.74 73.23 26.59 76.76 36.49C78.52 44.08 77.63 59.95 77.63 59.95C77.63 59.95 78.38 60.57 79.67 61.58C83.53 64.63 92.33 71.22 100.3 74.85C100.82 79.35 97.62 87.31 90.68 93.65C87.76 96.33 84.16 98.73 79.9 100.45C72.79 91.59 67.75 85.93 57.33 79.84C52.74 78.95 44.23 75.74 39.85 73.22C35.49 70.7 29.7 63.5 24.1 56.75C23.83 56.43 23.58 56.12 23.36 55.83C18.81 50.07 21.93 50.64 21.93 46.03C21.93 41.18 24.81 40.33 25.9 36.32C27.01 32.3 29.76 28.47 32.83 27.83C27.51 25.15 23.3 19.65 20.74 18.08C11.17 11.69 4.69 5.22 8.41 1.74L8.42 1.73C12.14 -1.71 23.25 7.69 23.25 7.69C23.25 7.69 25.16 8.25 29.98 12.3C32.02 13.69 40.37 18.58 46.11 24.32C51.85 30.05 59 31.68 59 31.68C59 31.68 57.35 29.68 56.91 26.65C54.36 22.73 52.11 16.6 53.53 11.9C53.75 11.18 54 10.53 54.28 9.94C54.3 9.9 54.31 9.88 54.34 9.85C55.91 6.66 58.31 5.54 59.73 7.25C61.39 9.28 62.53 14.9 64.2 16.81Z" fill="url(#paint6_linear_1_80)"/>
<path d="M64.2 16.81C65.88 18.73 66.7 21.74 66.7 21.74C66.7 21.74 73.23 26.59 76.76 36.49C78.52 44.08 77.63 59.95 77.63 59.95C77.63 59.95 78.38 60.57 79.67 61.58C78.78 65.34 76.8 72.25 73.89 73.96C69.83 76.34 67.28 78.29 76.5 86.2C81.76 90.7 87.08 92.74 90.68 93.65C87.76 96.33 84.16 98.73 79.9 100.45C72.79 91.59 67.75 85.93 57.33 79.84C52.74 78.95 44.23 75.74 39.85 73.22C35.49 70.7 29.7 63.5 24.1 56.75C23.83 56.43 23.58 56.12 23.36 55.83C27.46 59.2 34.44 63.97 39.94 62.89C42.63 70.18 53.86 73.62 59.77 70.08C65.68 66.55 61.66 67.56 60.87 57.58C60.08 47.6 67.41 43.54 70.11 38.29C72.8 33.03 69.47 32.29 65.77 32.29C62.06 32.29 62.42 29.39 61.92 26.35C61.42 23.33 61.18 23.99 58.67 22.97C56.15 21.95 59.51 13.13 58.58 9.73C57.86 7.09 56.02 7.39 54.34 9.84C55.91 6.65 58.31 5.53 59.73 7.24C61.39 9.28 62.53 14.9 64.2 16.81Z" fill="url(#paint7_linear_1_80)"/>
<path d="M41.78 26.59C37.69 25.44 32.83 27.83 32.83 27.83C27.51 25.15 23.3 19.65 20.74 18.08C11.17 11.69 4.69 5.22 8.41 1.74L8.42 1.73C8.65 6.98 14.21 11.84 16.09 11.84C18.08 11.84 20.32 17.66 25.37 16.27C30.42 14.87 24.13 22.88 34.31 24.23C39.37 24.23 41.08 25.53 41.78 26.59Z" fill="url(#paint8_linear_1_80)"/>
<path d="M59.24 32.03C59.61 32.28 59.96 32.57 60.24 32.93C60.53 33.28 60.79 33.64 60.98 34.1C61 34.14 61 34.19 60.99 34.23L60.98 34.26C60.84 35.02 60.68 35.79 60.51 36.55L60.25 37.69C60.19 38.07 60.06 38.44 60.12 38.84C59.9 38.49 59.9 38.05 59.88 37.66C59.89 37.26 59.89 36.86 59.94 36.46C60.03 35.67 60.19 34.9 60.39 34.13L60.4 34.29C60.28 33.93 60.1 33.52 59.9 33.15C59.7 32.78 59.48 32.4 59.24 32.03Z" fill="#E08172"/>
<path d="M70.21 68.67C70.91 68.05 71.62 67.47 72.26 66.83C72.91 66.2 73.55 65.55 74.14 64.86C75.35 63.5 76.43 62.04 77.45 60.49C77.18 61.39 76.76 62.22 76.29 63.03C75.82 63.84 75.25 64.59 74.64 65.29C73.4 66.69 71.9 67.89 70.21 68.67Z" fill="#E08172"/>
<path d="M54.97 78.74C56.21 78.12 57.46 77.62 58.62 76.97C59.2 76.66 59.75 76.3 60.28 75.9C60.81 75.53 61.24 74.92 61.92 74.68C61.65 74.9 61.47 75.17 61.28 75.46C61.08 75.74 60.86 76.01 60.62 76.27C60.14 76.79 59.55 77.2 58.94 77.55C58.32 77.89 57.67 78.14 57.01 78.35C56.33 78.53 55.66 78.68 54.97 78.74Z" fill="#E08172"/>
<path d="M29.82 13.21C29.43 13.8 29.14 14.41 28.91 15.04C28.69 15.68 28.49 16.33 28.36 16.97L27.77 16.73C28.17 16.12 28.58 15.53 29.05 14.96C29.52 14.4 29.99 13.83 30.59 13.4C30.2 14.02 29.84 14.64 29.47 15.25C29.1 15.87 28.71 16.47 28.32 17.08L28.31 17.09C28.21 17.24 28.01 17.28 27.86 17.19C27.74 17.11 27.69 16.98 27.72 16.85C27.88 16.14 28.11 15.47 28.46 14.84C28.8 14.21 29.24 13.61 29.82 13.21Z" fill="#E08172"/>
<path d="M16.99 11.06C17.44 10.12 18.15 9.36 18.93 8.71C19.72 8.08 20.59 7.52 21.58 7.22C20.86 7.96 20.1 8.58 19.34 9.21L18.18 10.14C17.79 10.44 17.41 10.76 16.99 11.06Z" fill="#E08172"/>
<path d="M7.26999 14.72C7.40999 14.29 7.61999 13.9 7.85999 13.53C8.08999 13.15 8.37999 12.82 8.67999 12.49C8.99999 12.18 9.31999 11.88 9.69999 11.64C10.07 11.4 10.46 11.18 10.91 11.07C10.31 11.74 9.73999 12.33 9.14999 12.94C8.55999 13.55 7.97999 14.16 7.26999 14.72Z" fill="#E08172"/>
<path d="M16.72 24.57C17.15 23.62 17.68 22.78 18.24 21.94C18.53 21.53 18.83 21.12 19.17 20.74C19.51 20.36 19.86 19.97 20.31 19.7C19.82 20.61 19.35 21.48 18.77 22.32C18.19 23.13 17.55 23.94 16.72 24.57Z" fill="#E08172"/>
<path d="M6.72 25.3C7.34 24.67 7.92 24.1 8.53 23.51C9.15 22.94 9.76 22.37 10.5 21.87C10.15 22.69 9.6 23.37 8.98 23.98C8.34 24.57 7.6 25.1 6.72 25.3Z" fill="#E08172"/>
<path d="M14.1 33.51C14.25 33.08 14.46 32.69 14.68 32.31C14.9 31.93 15.16 31.58 15.43 31.23C15.71 30.89 16 30.57 16.34 30.28C16.67 29.99 17.03 29.71 17.45 29.53C16.96 30.28 16.47 30.97 15.93 31.64C15.38 32.3 14.81 32.96 14.1 33.51Z" fill="#E08172"/>
<path d="M9.37 39.25C9.48 38.52 9.81 37.89 10.2 37.31C10.61 36.75 11.09 36.22 11.73 35.87C11.47 36.56 11.11 37.12 10.73 37.69C10.53 37.96 10.33 38.24 10.1 38.49C9.88 38.75 9.66 39.01 9.37 39.25Z" fill="#E08172"/>
<path d="M14.69 44.92C14.99 44.26 15.41 43.72 15.84 43.2C16.29 42.69 16.75 42.21 17.34 41.78C17.27 42.14 17.11 42.46 16.94 42.77C16.77 43.08 16.56 43.36 16.34 43.62C16.11 43.88 15.87 44.13 15.59 44.34C15.31 44.57 15.03 44.77 14.69 44.92Z" fill="#E08172"/>
<path d="M51.68 61.72C49.74 60.33 48.17 58.44 46.99 56.34C45.8 54.24 45.03 51.93 44.54 49.58C44.1 47.22 43.94 44.8 44.12 42.41C44.31 40.02 44.8 37.65 45.7 35.44C45.05 37.73 44.7 40.08 44.62 42.44C44.54 44.79 44.7 47.16 45.17 49.46C46.04 54.05 48.14 58.5 51.68 61.72Z" fill="#E08172"/>
<path d="M29.01 54.43C32.08 51.44 34.99 48.31 37.54 44.89C38.85 43.21 40.06 41.45 41.21 39.65C42.35 37.85 43.44 36.01 44.33 34.06C43.69 36.12 42.7 38.04 41.64 39.91C40.57 41.78 39.35 43.55 38.06 45.28C36.73 46.97 35.35 48.63 33.84 50.16C32.32 51.69 30.72 53.13 29.01 54.43Z" fill="#E08172"/>
<defs>
<linearGradient id="paint0_linear_1_80" x1="3.06632" y1="37.583" x2="22.0201" y2="43.1161" gradientUnits="userSpaceOnUse">
<stop offset="0.00047536" stop-color="#F8C5A1"/>
<stop offset="0.7338" stop-color="#F9BA9A"/>
<stop offset="1" stop-color="#FAB597"/>
</linearGradient>
<linearGradient id="paint1_linear_1_80" x1="13.5273" y1="55.232" x2="11.3494" y2="34.5714" gradientUnits="userSpaceOnUse">
<stop offset="0.00047536" stop-color="#F7B08A"/>
<stop offset="0.3919" stop-color="#F1A583"/>
<stop offset="1" stop-color="#E38C72"/>
</linearGradient>
<linearGradient id="paint2_linear_1_80" x1="-1.23689" y1="29.1589" x2="25.8399" y2="29.7476" gradientUnits="userSpaceOnUse">
<stop offset="0.00047536" stop-color="#F8C5A1"/>
<stop offset="0.7338" stop-color="#F9BA9A"/>
<stop offset="1" stop-color="#FAB597"/>
</linearGradient>
<linearGradient id="paint3_linear_1_80" x1="15.2129" y1="43.9279" x2="13.5058" y2="26.4457" gradientUnits="userSpaceOnUse">
<stop offset="0.00047536" stop-color="#F7B08A"/>
<stop offset="0.3919" stop-color="#F1A583"/>
<stop offset="1" stop-color="#E38C72"/>
</linearGradient>
<linearGradient id="paint4_linear_1_80" x1="3.52641" y1="12.6429" x2="25.7764" y2="22.7672" gradientUnits="userSpaceOnUse">
<stop offset="0.00047536" stop-color="#F8C5A1"/>
<stop offset="0.7338" stop-color="#F9BA9A"/>
<stop offset="1" stop-color="#FAB597"/>
</linearGradient>
<linearGradient id="paint5_linear_1_80" x1="17.469" y1="38.4907" x2="17.8221" y2="16.8294" gradientUnits="userSpaceOnUse">
<stop offset="0.00047536" stop-color="#F7B08A"/>
<stop offset="0.3919" stop-color="#F1A583"/>
<stop offset="1" stop-color="#E38C72"/>
</linearGradient>
<linearGradient id="paint6_linear_1_80" x1="65.6831" y1="74.6343" x2="44.1395" y2="26.7202" gradientUnits="userSpaceOnUse">
<stop offset="0.00047536" stop-color="#F8C5A1"/>
<stop offset="0.7338" stop-color="#F9BA9A"/>
<stop offset="1" stop-color="#FAB597"/>
</linearGradient>
<linearGradient id="paint7_linear_1_80" x1="26.6398" y1="57.5678" x2="100.188" y2="50.4161" gradientUnits="userSpaceOnUse">
<stop offset="0.00047536" stop-color="#F7B08A"/>
<stop offset="0.3919" stop-color="#F1A583"/>
<stop offset="1" stop-color="#E38C72"/>
</linearGradient>
<linearGradient id="paint8_linear_1_80" x1="17.2604" y1="27.174" x2="26.796" y2="11.1635" gradientUnits="userSpaceOnUse">
<stop offset="0.00047536" stop-color="#F7B08A"/>
<stop offset="0.3919" stop-color="#F1A583"/>
<stop offset="1" stop-color="#E38C72"/>
</linearGradient>
</defs>
</svg>
