<svg width="102" height="80" viewBox="0 0 102 80" fill="none" xmlns="http://www.w3.org/2000/svg">
<path d="M101.368 53.3408C101.019 59.3862 99.7053 64.1794 98.0631 67.9051C94.3271 76.4035 88.8565 79.38 88.8565 79.38C88.8565 79.38 68.0108 72.1235 54.6063 68.1925C34.1814 74.4329 19.0526 68.9725 19.0526 68.9725C19.0526 68.9725 15.7169 67.5048 13.931 63.4609C13.0996 36.8059 27.2226 16.0936 33.504 13.1274C35.6183 12.1318 37.9995 11.516 40.3705 11.1875C42.9261 10.8078 45.4613 10.7872 47.6372 10.972C49.4539 11.1362 51.0243 11.4544 52.1327 11.8649C55.7969 13.2608 63.9669 19.4191 65.5167 27.4864C65.5167 27.4864 78.3567 34.1886 100.578 38.6328C101.44 44.2163 101.635 49.1019 101.368 53.3408Z" fill="url(#paint0_linear_1_3)"/>
<path d="M98.0631 67.9051C94.3271 76.4035 88.8565 79.38 88.8565 79.38C88.8565 79.38 68.0108 72.1235 54.6063 68.1925C34.1814 74.4329 19.0526 68.9725 19.0526 68.9725C19.0526 68.9725 15.7169 67.5048 13.931 63.4609C13.0996 36.8059 27.2226 16.0936 33.504 13.1274C35.6183 12.1318 37.9995 11.516 40.3705 11.1875C35.4028 14.8414 35.3515 19.3575 34.3867 21.2973C33.3603 23.3501 37.589 26.8808 33.8017 33.2751C35.7312 39.495 39.0259 46.3615 52.7281 48.7632C48.2838 50.1283 42.3514 49.6561 34.5817 44.1034C35.2694 47.7471 35.4131 49.4816 31.9542 52.2426C32.7342 53.0226 36.5626 61.2131 30.158 65.0826C30.7328 66.2629 37.0142 67.6896 41.171 65.0826C45.3381 67.1558 56.7412 65.7702 60.1385 57.1179C69.263 68.6852 84.5355 75.2642 98.0631 67.9051Z" fill="url(#paint1_linear_1_3)"/>
<path d="M101.368 53.3408C95.1482 34.2297 66.8613 31.8587 66.8613 31.8587C66.8613 31.8587 68.175 38.2941 63.854 42.6254C66.0915 36.344 64.0387 20.0657 50.2647 17.51C49.8234 15.3854 48.5199 12.6963 47.627 10.9617C49.4437 11.1259 51.014 11.4441 52.1225 11.8547C55.7866 13.2505 63.9566 19.4088 65.5064 27.4761C65.5064 27.4761 78.3464 34.1784 100.567 38.6226C101.44 44.2163 101.635 49.1019 101.368 53.3408Z" fill="url(#paint2_linear_1_3)"/>
<path d="M26.6068 23.0114C25.0159 26.0905 19.494 28.718 9.43547 26.8706C6.2537 26.2855 4.21121 25.1257 2.91797 23.8325C0.0954343 21.051 0.721525 17.5716 0.721525 17.5716C0.721525 17.5716 3.2772 12.7168 8.16276 9.53504C9.03518 8.96027 9.96919 8.44708 10.975 8.02627C14.8137 8.02627 18.6729 8.53946 26.6068 11.4236C26.6068 11.4133 28.2182 19.9425 26.6068 23.0114Z" fill="url(#paint3_linear_1_3)"/>
<path d="M26.6068 23.0114C25.0159 26.0905 19.494 28.718 9.43547 26.8706C6.2537 26.2855 4.2112 25.1257 2.91797 23.8325C8.41935 23.1243 6.39739 20.2709 8.41935 17.7563C10.544 15.0877 11.0674 12.6347 9.00438 11.5057C8.13196 11.0336 8.0088 10.274 8.16276 9.53504C9.03518 8.96027 9.96919 8.44708 10.975 8.02627C14.8137 8.02627 18.6729 8.53946 26.6068 11.4236C26.6068 11.4133 28.2182 19.9425 26.6068 23.0114Z" fill="url(#paint4_linear_1_3)"/>
<path d="M25.8883 40.08C24.6566 42.2662 17.9955 43.9803 11.1495 42.4715C10.6261 42.3483 10.1231 42.2149 9.64074 42.0609C3.90329 40.2135 1.50156 35.8514 1.50156 35.8514C1.50156 35.8514 1.0705 32.5054 1.85054 29.457C2.02503 28.7693 2.25083 28.1022 2.56901 27.4864C4.63202 25.4131 7.05427 25.0128 7.05427 25.0128C7.05427 25.0128 16.2403 25.0128 21.403 27.4864C28.3619 30.8118 27.1302 37.9041 25.8883 40.08Z" fill="url(#paint5_linear_1_3)"/>
<path d="M25.8883 40.08C24.6566 42.2662 17.9955 43.9803 11.1495 42.4715C10.6261 42.3483 10.1231 42.2149 9.64074 42.0609C14.4647 40.3469 16.6919 36.8264 17.0922 34.0141C17.5644 30.6989 13.4486 29.4468 9.27124 28.0304C5.5147 26.7679 5.70971 26.4395 1.84027 29.4468C2.01475 28.7591 2.24055 28.0919 2.55873 27.4761C4.62175 25.4028 7.04401 25.0025 7.04401 25.0025C7.04401 25.0025 16.2301 25.0025 21.3928 27.4761C28.3619 30.8118 27.1302 37.9041 25.8883 40.08Z" fill="url(#paint6_linear_1_3)"/>
<path d="M32.4776 46.5051C30.5686 50.9596 28.0847 52.7455 25.0774 53.5769C22.7784 54.203 20.1611 54.2646 17.2565 54.5314C12.6275 54.942 9.29177 53.7308 6.76688 51.6986C5.65839 50.8159 4.6936 49.769 3.85197 48.6503C3.51327 46.9773 3.85197 42.5331 3.85197 42.5331C3.85197 42.5331 7.90615 38.7149 11.2008 38.4378C27.397 37.0317 31.7078 40.3469 31.7078 40.3469C31.7078 40.3469 32.8882 43.2002 32.4776 46.5051Z" fill="url(#paint7_linear_1_3)"/>
<path d="M32.4776 46.5051C30.5686 50.9596 28.0847 52.7455 25.0774 53.5769C26.3091 51.6781 27.6947 49.2969 27.941 46.8438C28.2181 44.0418 26.3501 43.1694 21.947 41.5375C17.8723 40.039 13.3767 40.5727 9.77416 42.4715C7.05426 43.8981 4.50885 45.1093 6.77714 51.6883C5.66865 50.8057 4.70386 49.7588 3.86223 48.64C3.52353 46.967 3.86223 42.5228 3.86223 42.5228C3.86223 42.5228 7.91642 38.7047 11.2111 38.4276C27.4073 37.0214 31.7181 40.3366 31.7181 40.3366C31.7181 40.3366 32.8882 43.2002 32.4776 46.5051Z" fill="url(#paint8_linear_1_3)"/>
<path d="M31.3897 54.6033C31.3897 57.2513 30.3633 60.4639 30.3633 60.4639C30.3633 60.4639 30.3633 61.2644 26.4939 63.9536C25.0261 64.477 23.0658 64.826 20.9925 64.9697C17.6567 65.2263 14.0439 64.9799 11.7859 64.1486C10.4516 63.2248 9.4252 61.9932 8.67594 60.7923C7.21849 58.4727 6.72583 56.2044 6.72583 56.2044C6.72583 56.2044 9.41494 53.074 11.4369 51.9449C18.0365 50.4362 27.8076 51.3702 27.8076 51.3702C27.8076 51.3702 29.3677 52.1092 31.3897 54.6033Z" fill="url(#paint9_linear_1_3)"/>
<path d="M52.1225 11.8547C52.1225 11.8547 50.7164 12.6758 48.6739 13.2095C46.4158 13.7842 43.3572 14.0306 40.5449 12.4294C40.001 13.8869 38.8309 14.9851 37.6711 15.7652C36.1213 16.7915 34.5612 17.2637 34.5612 17.2637C34.5612 17.2637 34.2019 20.1683 31.6463 21.5334C34.3148 27.9482 30.8457 34.7737 28.5363 37.627C27.1199 39.3821 25.0467 39.9671 23.3737 39.3C22.881 39.1152 22.4191 38.8073 22.0188 38.3865C21.5775 37.9144 21.1977 37.3191 20.9514 36.5698C20.3356 34.7737 19.494 32.0948 18.2623 29.2312C17.5952 27.6609 16.8048 26.0495 15.8708 24.4894C15.8811 24.4791 15.8811 24.4586 15.8708 24.4586C15.0189 23.0114 14.0542 21.6258 12.9354 20.3736C11.4985 18.4235 11.7859 16.4939 11.7859 16.4939C11.7859 16.4939 20.664 3.06887 37.2606 0C46.9085 2.65832 52.1225 11.8547 52.1225 11.8547Z" fill="url(#paint10_linear_1_3)"/>
<path d="M22.0188 38.3865C21.5775 37.9144 21.1977 37.3191 20.9514 36.5698C20.3664 34.8558 19.5555 32.3103 18.406 29.5802C18.3649 29.4775 18.3136 29.3544 18.2623 29.2312C20.7256 28.6257 22.6962 27.1579 23.5995 26.3984C23.9587 26.1008 24.1434 25.9058 24.1434 25.9058C24.1434 25.9058 27.0891 30.001 27.4792 33.3573C27.8281 36.4364 26.1244 39.0434 22.0188 38.3865Z" fill="url(#paint11_linear_1_3)"/>
<path d="M37.6711 15.7652C36.1213 16.7915 34.5612 17.2637 34.5612 17.2637C34.5612 17.2637 34.2019 20.1683 31.6463 21.5334C34.3148 27.9482 30.8457 34.7737 28.5363 37.627C27.1199 39.3821 25.0466 39.9671 23.3737 39.3C27.0173 39.0742 29.768 36.303 30.6815 31.9614C31.6155 27.4351 31.0612 18.4132 20.3356 20.0349C22.8605 19.3677 26.3091 16.032 20.9411 13.5174C23.4968 14.6669 34.0685 17.51 36.4394 8.72421C36.4394 11.7418 36.3573 15.5701 37.6711 15.7652Z" fill="url(#paint12_linear_1_3)"/>
<path d="M52.1225 11.8547C52.1225 11.8547 50.7164 12.6758 48.6739 13.2095C47.3909 10.7564 44.2399 7.06147 40.4526 4.49553C35.6697 2.56594 31.8721 3.80786 26.4015 6.33274C20.9412 8.84737 15.255 13.815 14.1157 16.9763C13.0688 19.922 14.1055 18.639 15.8708 24.4688C15.0189 23.0216 14.0542 21.636 12.9354 20.3838C11.4985 18.4337 11.7859 16.5041 11.7859 16.5041C11.7859 16.5041 20.664 3.07913 37.2606 0.0102615C46.9085 2.65831 52.1225 11.8547 52.1225 11.8547Z" fill="url(#paint13_linear_1_3)"/>
<path d="M31.3897 54.6033C31.3897 57.2513 30.3633 60.4639 30.3633 60.4639C30.3633 60.4639 30.3633 61.2644 26.4938 63.9536C25.0261 64.477 23.0657 64.826 20.9925 64.9697C22.7168 63.4198 25.098 61.0489 25.8883 59.1296C27.1713 56.0094 25.5393 54.5827 22.5115 53.9259C19.6582 53.31 15.9427 53.4742 13.1612 54.2851C10.7595 54.9933 8.56305 55.9273 8.66569 60.7923C7.20823 58.4727 6.71556 56.2044 6.71556 56.2044C6.71556 56.2044 9.40466 53.074 11.4266 51.9449C18.0262 50.4362 27.7974 51.3702 27.7974 51.3702C27.7974 51.3702 29.3677 52.1092 31.3897 54.6033Z" fill="url(#paint14_linear_1_3)"/>
<path d="M15.1832 12.3884C15.6861 11.8649 16.2301 11.3107 16.8356 10.7359C15.5013 10.3664 14.5468 9.35029 14.5468 9.35029C14.5468 9.35029 15.019 9.92506 15.6964 10.8591C14.1157 10.8591 11.3137 9.8019 11.3137 9.8019C11.3137 9.8019 14.4237 11.1772 15.1832 12.3884Z" fill="url(#paint15_linear_1_3)"/>
<path d="M34.9409 16.2373C34.8383 15.3957 34.9307 14.6156 35.0641 13.8458C35.2283 13.076 35.4336 12.3165 35.8441 11.5878C35.957 12.3986 35.8647 13.1992 35.721 13.9793C35.5568 14.7593 35.3515 15.5291 34.9409 16.2373Z" fill="#E08172"/>
<path d="M25.3648 16.6992C26.032 16.5965 26.7402 16.5863 27.4176 16.7813C28.1053 16.9352 28.7416 17.2739 29.2959 17.705C29.8501 18.1463 30.3222 18.6595 30.6815 19.2548C31.0407 19.8501 31.3178 20.4865 31.4307 21.1639C30.702 20.0246 29.9014 19.0085 28.8956 18.2387C28.4029 17.8384 27.8487 17.5305 27.2636 17.2739C26.6683 16.9865 26.032 16.8736 25.3648 16.6992Z" fill="#E08172"/>
<path d="M5.55575 28.5025L5.31969 30.4834C5.2581 31.1403 5.176 31.7869 5.13495 32.4438C5.01178 33.7473 4.96045 35.0508 4.86808 36.4056C4.64228 35.759 4.53965 35.0918 4.47807 34.4144C4.40622 33.737 4.41647 33.0596 4.46779 32.3925C4.59096 31.0479 4.90913 29.7034 5.55575 28.5025Z" fill="#E08172"/>
<path d="M8.5425 42.8615C8.5425 44.0624 8.61436 45.1811 8.72726 46.3307C8.8299 47.4802 8.96333 48.6195 9.01465 49.8203C8.72726 49.2866 8.5425 48.7221 8.37828 48.1473C8.21406 47.5726 8.12169 46.9875 8.06011 46.3922C8.01905 45.7969 7.99853 45.1914 8.08064 44.5961C8.15248 44.0008 8.28591 43.4055 8.5425 42.8615Z" fill="#E08172"/>
<path d="M30.0348 40.8498C30.5172 42.0507 30.6301 43.3644 30.5686 44.6474C30.5275 45.2838 30.4454 45.9304 30.3017 46.5462C30.158 47.1723 29.9835 47.7881 29.6962 48.3731C29.7269 47.0902 29.8398 45.8483 29.9014 44.6063C29.9527 43.9905 29.9527 43.3644 29.9938 42.7486C30.0143 42.1225 30.0041 41.4964 30.0348 40.8498Z" fill="#E08172"/>
<path d="M11.2316 54.6033C11.0879 55.2293 10.9853 55.8144 10.975 56.4199C10.9853 57.0152 11.0161 57.6105 11.1084 58.2058C11.2829 59.3964 11.6114 60.5665 11.9398 61.7879C11.5293 61.2952 11.2316 60.7307 10.975 60.1457C10.7184 59.5607 10.5542 58.9346 10.4413 58.2982C10.3592 57.6619 10.3387 57.005 10.4618 56.3584C10.5953 55.722 10.8416 55.1062 11.2316 54.6033Z" fill="#E08172"/>
<path d="M28.444 53.7719C28.7827 54.3159 28.9879 54.9522 29.0598 55.5988C29.1316 56.2455 29.0701 56.9126 28.9469 57.549C28.7929 58.1853 28.5876 58.8011 28.29 59.3656C27.9923 59.9404 27.6537 60.4844 27.2021 60.9463C27.6331 59.7454 28.0334 58.5959 28.29 57.4053C28.4234 56.81 28.4953 56.2147 28.5466 55.6194C28.5774 55.0138 28.5261 54.4082 28.444 53.7719Z" fill="#E08172"/>
<path d="M55.7045 67.1045C56.4949 66.2629 57.2236 65.4007 57.7573 64.4154C58.2705 63.4301 58.7118 62.3935 58.9992 61.3158C59.5842 59.1501 59.7998 56.8921 59.8101 54.6033C60.0872 55.722 60.159 56.8921 60.1385 58.0416C60.1179 59.2014 59.9435 60.3612 59.6458 61.4902C59.3277 62.6193 58.8453 63.7072 58.1986 64.6823C57.5418 65.6676 56.6693 66.4784 55.7045 67.1045Z" fill="#E08172"/>
<path d="M65.917 28.1638C67.1486 30.2884 67.6105 32.8646 67.395 35.3382C67.1589 37.8015 66.1838 40.2853 64.4082 42.0096C65.763 39.9671 66.5123 37.6475 66.7278 35.2766C66.9536 32.8954 66.6662 30.4937 65.917 28.1638Z" fill="#E08172"/>
<path d="M33.0524 42.8102C34.2943 44.0829 35.8134 44.9964 37.3632 45.8175C38.9233 46.618 40.5449 47.316 42.2179 47.8394C43.8704 48.4039 45.5845 48.8042 47.319 49.0198C49.0536 49.2353 50.8293 49.2456 52.5638 48.8555C50.9011 49.5124 49.0536 49.6459 47.2677 49.533C45.4716 49.4098 43.7165 48.9992 42.0024 48.4758C40.3089 47.8907 38.6564 47.1825 37.1066 46.2691C35.5978 45.3453 34.089 44.2779 33.0524 42.8102Z" fill="#E08172"/>
<path opacity="0.68" d="M23.5995 26.3984C23.1273 27.9072 21.793 30.3602 18.406 29.5802C18.3649 29.4775 18.3136 29.3544 18.2623 29.2312C20.7256 28.6359 22.686 27.1579 23.5995 26.3984Z" fill="#F8917F"/>
<defs>
<linearGradient id="paint0_linear_1_3" x1="80.061" y1="46.1872" x2="41.3563" y2="42.855" gradientUnits="userSpaceOnUse">
<stop offset="0.00047536" stop-color="#F8C5A1"/>
<stop offset="0.7338" stop-color="#F9BA9A"/>
<stop offset="1" stop-color="#FAB597"/>
</linearGradient>
<linearGradient id="paint1_linear_1_3" x1="13.8864" y1="45.2767" x2="98.064" y2="45.2767" gradientUnits="userSpaceOnUse">
<stop offset="0.00047536" stop-color="#F7B08A"/>
<stop offset="0.3919" stop-color="#F1A583"/>
<stop offset="1" stop-color="#E38C72"/>
</linearGradient>
<linearGradient id="paint2_linear_1_3" x1="47.6267" y1="32.152" x2="101.481" y2="32.152" gradientUnits="userSpaceOnUse">
<stop offset="0.00047536" stop-color="#F7B08A"/>
<stop offset="0.3919" stop-color="#F1A583"/>
<stop offset="1" stop-color="#E38C72"/>
</linearGradient>
<linearGradient id="paint3_linear_1_3" x1="6.94301" y1="22.1839" x2="13.0948" y2="19.0439" gradientUnits="userSpaceOnUse">
<stop offset="0.00047536" stop-color="#F8C5A1"/>
<stop offset="0.7338" stop-color="#F9BA9A"/>
<stop offset="1" stop-color="#FAB597"/>
</linearGradient>
<linearGradient id="paint4_linear_1_3" x1="3.08311" y1="10.4561" x2="14.9166" y2="17.8467" gradientUnits="userSpaceOnUse">
<stop offset="0.00047536" stop-color="#F7B08A"/>
<stop offset="0.3919" stop-color="#F1A583"/>
<stop offset="1" stop-color="#E38C72"/>
</linearGradient>
<linearGradient id="paint5_linear_1_3" x1="14.9037" y1="37.6812" x2="12.5327" y2="29.4148" gradientUnits="userSpaceOnUse">
<stop offset="0.00047536" stop-color="#F8C5A1"/>
<stop offset="0.7338" stop-color="#F9BA9A"/>
<stop offset="1" stop-color="#FAB597"/>
</linearGradient>
<linearGradient id="paint6_linear_1_3" x1="1.84745" y1="34.0213" x2="26.8535" y2="34.0213" gradientUnits="userSpaceOnUse">
<stop offset="0.00047536" stop-color="#F7B08A"/>
<stop offset="0.3919" stop-color="#F1A583"/>
<stop offset="1" stop-color="#E38C72"/>
</linearGradient>
<linearGradient id="paint7_linear_1_3" x1="19.9971" y1="47.4204" x2="16.7932" y2="43.1911" gradientUnits="userSpaceOnUse">
<stop offset="0.00047536" stop-color="#F8C5A1"/>
<stop offset="0.7338" stop-color="#F9BA9A"/>
<stop offset="1" stop-color="#FAB597"/>
</linearGradient>
<linearGradient id="paint8_linear_1_3" x1="3.69329" y1="45.8194" x2="32.5618" y2="45.8194" gradientUnits="userSpaceOnUse">
<stop offset="0.00047536" stop-color="#F7B08A"/>
<stop offset="0.3919" stop-color="#F1A583"/>
<stop offset="1" stop-color="#E38C72"/>
</linearGradient>
<linearGradient id="paint9_linear_1_3" x1="22.9131" y1="61.9286" x2="17.5303" y2="54.0467" gradientUnits="userSpaceOnUse">
<stop offset="0.00047536" stop-color="#F8C5A1"/>
<stop offset="0.7338" stop-color="#F9BA9A"/>
<stop offset="1" stop-color="#FAB597"/>
</linearGradient>
<linearGradient id="paint10_linear_1_3" x1="11.7573" y1="19.7908" x2="52.1242" y2="19.7908" gradientUnits="userSpaceOnUse">
<stop offset="0.00047536" stop-color="#F8C5A1"/>
<stop offset="0.7338" stop-color="#F9BA9A"/>
<stop offset="1" stop-color="#FAB597"/>
</linearGradient>
<linearGradient id="paint11_linear_1_3" x1="25.1059" y1="36.9274" x2="21.3465" y2="27.0162" gradientUnits="userSpaceOnUse">
<stop offset="0.00047536" stop-color="#F7B08A"/>
<stop offset="0.3919" stop-color="#F1A583"/>
<stop offset="1" stop-color="#E38C72"/>
</linearGradient>
<linearGradient id="paint12_linear_1_3" x1="20.3332" y1="24.1478" x2="37.6677" y2="24.1478" gradientUnits="userSpaceOnUse">
<stop offset="0.00047536" stop-color="#F7B08A"/>
<stop offset="0.3919" stop-color="#F1A583"/>
<stop offset="1" stop-color="#E38C72"/>
</linearGradient>
<linearGradient id="paint13_linear_1_3" x1="11.7573" y1="12.2407" x2="52.1242" y2="12.2407" gradientUnits="userSpaceOnUse">
<stop offset="0.00047536" stop-color="#F7B08A"/>
<stop offset="0.3919" stop-color="#F1A583"/>
<stop offset="1" stop-color="#E38C72"/>
</linearGradient>
<linearGradient id="paint14_linear_1_3" x1="6.71987" y1="58.0303" x2="31.3898" y2="58.0303" gradientUnits="userSpaceOnUse">
<stop offset="0.00047536" stop-color="#F7B08A"/>
<stop offset="0.3919" stop-color="#F1A583"/>
<stop offset="1" stop-color="#E38C72"/>
</linearGradient>
<linearGradient id="paint15_linear_1_3" x1="7.4762" y1="5.88339" x2="14.2259" y2="10.369" gradientUnits="userSpaceOnUse">
<stop offset="0.00047536" stop-color="#F59F77"/>
<stop offset="0.3758" stop-color="#EE9470"/>
<stop offset="1" stop-color="#DB7960"/>
</linearGradient>
</defs>
</svg>
