<svg width="115" height="97" viewBox="0 0 115 97" fill="none" xmlns="http://www.w3.org/2000/svg">
<path d="M53.58 56.08C50.15 58.86 47.38 59.4 44.18 57.88C40.98 56.36 39.11 55.38 37.97 50.43C36.84 45.49 46.17 44.79 50.69 47.23C55.23 49.67 55.81 54.27 53.58 56.08Z" fill="url(#paint0_linear_1_59)"/>
<path d="M51.58 51.96C48.15 54.74 45.38 55.28 42.18 53.76C38.98 52.24 37.11 51.26 35.97 46.31C34.84 41.37 44.17 40.67 48.69 43.11C53.23 45.54 53.81 50.15 51.58 51.96Z" fill="url(#paint1_linear_1_59)"/>
<path d="M0.190014 26.53C1.04001 22.66 5.34001 23.77 10.95 23.94C15.88 24.1 18.84 23.46 23.33 22.2C23.96 22.02 24.62 21.84 25.32 21.64C31.02 20.02 34.22 21.49 40.57 20.06C52.26 17.95 45.89 33.94 45.89 33.94C45.89 33.94 42.58 33.78 39.58 32.06C30.23 34.44 28.51 32.5 22.13 33.2C15.75 33.91 12.07 34.16 7.17001 33.14C7.05001 33.12 6.93001 33.09 6.81001 33.06C2.13001 32.02 -0.639986 30.31 0.190014 26.53Z" fill="url(#paint2_linear_1_59)"/>
<path d="M6.82001 33.05C10.98 32.78 13.93 30.21 15.69 30.19C17.46 30.17 19.49 25.38 23.34 22.2C23.97 22.02 24.63 21.84 25.33 21.64C31.03 20.02 34.23 21.49 40.58 20.06C52.27 17.95 45.9 33.94 45.9 33.94C45.9 33.94 42.59 33.78 39.59 32.06C30.24 34.44 28.52 32.5 22.14 33.2C15.76 33.91 12.08 34.16 7.18001 33.14C7.06001 33.11 6.93001 33.09 6.82001 33.05Z" fill="url(#paint3_linear_1_59)"/>
<path d="M81.72 95.39C80.97 86.96 78.1 78.78 76.7 76.17C75.28 73.57 73.48 74.3 73.13 71.06C66.96 70.79 54.96 67.14 54.43 58.52C51.63 56.65 46.91 48.92 48.2 41.29C41.19 35.49 39.97 26.7 41.8 21.43C38.83 21.36 32.52 20.23 28.62 16.97C21.98 16.95 17.23 13.49 17.23 13.49C17.23 13.49 11.37 12.61 8.29001 9.96C5.22001 7.3 3.65 4.71 4.85 2.42C5.41 1.36 5.76 0.8 6.31 0.62C6.94 0.43 7.87001 0.76 9.75001 1.5C13.25 2.87 16.61 4.06 18.41 3.89C20.23 3.71 27.26 5.93 29.65 6C32.04 6.06 34.9 6.97 38.73 8.11C42.56 9.25 47.13 10.75 51.38 12.02C55.63 13.29 57.28 11.89 60.47 12.84C63.66 13.79 73.43 28.52 76.47 32.63C79.49 36.75 87.53 46.19 92.05 49.7C96.55 53.22 109.33 68.05 114.4 79.91C112.86 83.79 109.59 88.02 105.25 91.28C98.96 96.01 90.42 98.71 81.72 95.39Z" fill="url(#paint4_linear_1_59)"/>
<path d="M81.72 95.39C80.97 86.96 78.1 78.78 76.7 76.17C75.28 73.57 73.48 74.3 73.13 71.06C66.96 70.79 54.96 67.14 54.43 58.52C51.63 56.65 46.91 48.92 48.2 41.29C41.19 35.49 39.97 26.7 41.8 21.43C38.83 21.36 32.52 20.23 28.62 16.97C21.98 16.95 17.23 13.49 17.23 13.49C17.23 13.49 11.37 12.61 8.29001 9.96C5.22001 7.3 3.65 4.71 4.85 2.42C5.41 1.36 5.76 0.799999 6.31 0.619999C5.57 7.58 13.86 12.82 18.63 9.1C21.86 13.78 27.5 16.04 31.25 12.86C32.53 15.23 37.42 19.71 42.31 17.07C52.13 25.4 54.53 17.58 56.47 18.74C58.4 19.9 55.06 24.96 67.28 32.06C59.16 33.75 56.58 48.73 56.69 51.74C56.78 54.76 57.72 57.01 62.38 60.92C67.03 64.82 68.17 60.73 71.77 62.33C72.12 66.68 76.07 66.86 81.94 62.57C82.57 65.85 84.19 67.85 86.74 65.7C89.3 63.55 91.95 63.99 96.72 69.23C101.03 73.96 104.42 78.63 105.25 91.26C98.96 96.01 90.42 98.71 81.72 95.39Z" fill="url(#paint5_linear_1_59)"/>
<path d="M20.97 40.32C21.1 39.28 21.64 38.45 22.44 37.78C23.95 36.51 26.38 35.8 28.78 35.26C30.95 34.79 33.08 34.47 34.52 34.07C38.4 32.97 38.38 34.65 44.97 33.4C51.55 32.15 55.56 33.21 62.4 31.78C64.39 31.37 65.9 31.5 67.01 32.05C72.81 34.87 67.61 48.59 60.07 51.37C58.39 51.99 56.91 52.28 55.64 52.36C50.1 52.68 48.15 48.81 48.15 48.81C48.15 48.81 45.9 48.79 39.32 47.13C27.58 49.8 20.39 45.06 20.97 40.32Z" fill="url(#paint6_linear_1_59)"/>
<path opacity="0.56" d="M20.97 40.32C21.1 39.28 21.64 38.45 22.44 37.78C23.95 36.51 26.38 35.8 28.78 35.26C30.95 34.79 33.08 34.47 34.52 34.07C38.4 32.97 38.38 34.65 44.97 33.4C51.55 32.15 55.56 33.21 62.4 31.78C64.39 31.37 65.9 31.5 67.01 32.05C65.67 33.62 66.68 34.76 66.85 34.91C66.4 34.67 59.09 30.54 56.92 34.44C54.67 38.47 61.67 37.19 57.35 44.12C54.67 48.42 54.22 51.02 55.63 52.36C50.09 52.68 48.14 48.81 48.14 48.81C48.14 48.81 45.89 48.79 39.31 47.13C27.58 49.8 20.39 45.06 20.97 40.32Z" fill="url(#paint7_linear_1_59)"/>
<path d="M21.93 42.48C21.04 40.84 21.72 39.03 22.44 37.77C23.95 36.5 26.38 35.79 28.78 35.25C28.7 35.42 28.63 35.59 28.56 35.76C27.1 39.16 27.93 42.73 28.29 43.97C28.37 44.25 28.43 44.42 28.43 44.42C28.43 44.42 23.46 45.31 21.93 42.48Z" fill="url(#paint8_linear_1_59)"/>
<path d="M82.3 66.12C82.18 66.94 81.74 67.75 81.05 68.3C80.37 68.86 79.53 69.14 78.73 69.36C77.92 69.57 77.12 69.71 76.38 69.96C75.65 70.2 75 70.69 74.75 71.51C74.78 71.31 74.79 71.09 74.85 70.89C74.95 70.7 75 70.47 75.15 70.31C75.42 69.96 75.8 69.69 76.18 69.5C76.96 69.11 77.79 68.95 78.56 68.73C79.34 68.53 80.1 68.29 80.76 67.89C81.41 67.49 81.92 66.86 82.3 66.12Z" fill="#E08172"/>
<path d="M84.72 56.81C84.54 58.36 84.27 59.98 83.46 61.38C82.71 62.81 81.55 64.02 80.23 64.93C78.9 65.84 77.42 66.47 76.02 67.12C75.31 67.44 74.64 67.82 74.06 68.31C73.46 68.79 73.14 69.51 72.98 70.29C72.99 69.51 73.26 68.69 73.83 68.09C74.41 67.52 75.09 67.06 75.78 66.68C77.17 65.9 78.6 65.27 79.86 64.39C81.13 63.53 82.21 62.43 83.03 61.13L83.6 60.13L84.03 59.05C84.36 58.34 84.46 57.56 84.72 56.81Z" fill="#E08172"/>
<path d="M68.81 64.88C66.21 65.08 63.56 64.53 61.13 63.54C59.92 63.03 58.75 62.41 57.68 61.65C56.61 60.89 55.61 60.01 54.85 58.95C56.77 60.71 59.03 61.95 61.38 62.95C63.74 63.92 66.23 64.57 68.81 64.88Z" fill="#E08172"/>
<path d="M54.1 23.01C53.65 23.78 53.22 24.52 52.88 25.31C52.55 26.1 52.21 26.89 51.96 27.72C51.42 29.36 51.03 31.03 50.66 32.76C50.58 31.88 50.64 30.99 50.75 30.11C50.86 29.23 51.07 28.36 51.34 27.52C51.9 25.83 52.78 24.2 54.1 23.01Z" fill="#E08172"/>
<path d="M47.89 28.41C48.18 28.67 48.41 28.96 48.62 29.27C48.83 29.57 49 29.9 49.16 30.24C49.3 30.58 49.43 30.93 49.5 31.3C49.57 31.67 49.63 32.04 49.57 32.43C49.17 31.78 48.86 31.16 48.56 30.5C48.28 29.84 48.01 29.17 47.89 28.41Z" fill="#E08172"/>
<path d="M37.65 34.91C37.3 36.26 36.98 37.61 36.73 38.97C36.5 40.32 36.29 41.7 36.24 43.05L35.59 43.03C35.65 41.61 35.73 40.2 35.89 38.79C36.04 37.38 36.23 35.97 36.57 34.59L36.24 43.05V43.06C36.23 43.24 36.08 43.38 35.9 43.37C35.72 43.36 35.58 43.21 35.59 43.03C35.66 41.6 35.89 40.22 36.24 38.86C36.6 37.51 37.05 36.18 37.65 34.91Z" fill="#E08172"/>
<path d="M19.77 4.44C20.09 4.92 20.2 5.53 20.2 6.11C20.21 6.7 20.04 7.27 19.85 7.82C19.64 8.36 19.38 8.87 19.05 9.34C18.73 9.81 18.37 10.26 17.93 10.62C18.38 9.57 18.87 8.6 19.24 7.59C19.62 6.58 19.9 5.57 19.77 4.44Z" fill="#E08172"/>
<path d="M34.74 8.12C34.31 8.68 33.85 9.18 33.47 9.75C33.09 10.31 32.71 10.87 32.38 11.46C31.69 12.63 31.12 13.85 30.56 15.13C30.62 13.72 31.11 12.35 31.81 11.13C32.52 9.91 33.51 8.81 34.74 8.12Z" fill="#E08172"/>
<path d="M31.41 7.12C31.77 7.67 31.92 8.34 31.98 8.99C32.04 9.65 31.98 10.31 31.8 10.97L31.18 10.76C31.42 10.15 31.73 9.59 32.11 9.09C32.49 8.58 32.91 8.11 33.4 7.71C32.83 8.83 32.2 9.88 31.79 10.99C31.73 11.16 31.54 11.24 31.37 11.18C31.21 11.12 31.12 10.94 31.17 10.78C31.33 10.22 31.41 9.6 31.47 8.99C31.52 8.38 31.51 7.76 31.41 7.12Z" fill="#E08172"/>
<path opacity="0.35" d="M14.8 24.59C14.67 25.4 14.48 26.18 14.29 26.96L14 28.12C13.9 28.49 13.8 28.92 13.74 29.24V29.27C13.71 29.45 13.54 29.57 13.37 29.54C13.2 29.51 13.09 29.36 13.1 29.2C13.22 27.7 13.38 26.2 13.73 24.71C13.87 26.23 13.84 27.74 13.75 29.25L13.1 29.2C13.17 28.72 13.29 28.37 13.4 27.97C13.53 27.58 13.65 27.2 13.8 26.82C14.1 26.05 14.41 25.3 14.8 24.59Z" fill="#E08172"/>
<path opacity="0.68" d="M28.29 43.97C26.29 42.83 25.81 38.05 28.56 35.76C27.1 39.16 27.93 42.73 28.29 43.97Z" fill="#F8917F"/>
<defs>
<linearGradient id="paint0_linear_1_59" x1="42.9347" y1="49.6111" x2="55.6757" y2="58.4462" gradientUnits="userSpaceOnUse">
<stop offset="0.00047536" stop-color="#F59F77"/>
<stop offset="0.222" stop-color="#F0946D"/>
<stop offset="0.6088" stop-color="#E27754"/>
<stop offset="1" stop-color="#D15434"/>
</linearGradient>
<linearGradient id="paint1_linear_1_59" x1="32.1302" y1="36.2189" x2="46.8259" y2="50.1531" gradientUnits="userSpaceOnUse">
<stop offset="0.00047536" stop-color="#F59F77"/>
<stop offset="0.3758" stop-color="#EE9470"/>
<stop offset="1" stop-color="#DB7960"/>
</linearGradient>
<linearGradient id="paint2_linear_1_59" x1="3.61488" y1="27.905" x2="62.5492" y2="26.4469" gradientUnits="userSpaceOnUse">
<stop offset="0.00047536" stop-color="#F59F77"/>
<stop offset="0.3758" stop-color="#EE9470"/>
<stop offset="1" stop-color="#DB7960"/>
</linearGradient>
<linearGradient id="paint3_linear_1_59" x1="18.8488" y1="22.167" x2="42.4844" y2="37.2889" gradientUnits="userSpaceOnUse">
<stop offset="0.00047536" stop-color="#F39067"/>
<stop offset="0.3683" stop-color="#EA8561"/>
<stop offset="1" stop-color="#D46951"/>
</linearGradient>
<linearGradient id="paint4_linear_1_59" x1="67.405" y1="14.9029" x2="46.5241" y2="84.9666" gradientUnits="userSpaceOnUse">
<stop offset="0.00047536" stop-color="#F8C5A1"/>
<stop offset="0.7338" stop-color="#F9BA9A"/>
<stop offset="1" stop-color="#FAB597"/>
</linearGradient>
<linearGradient id="paint5_linear_1_59" x1="63.6852" y1="17.727" x2="43.8807" y2="84.1788" gradientUnits="userSpaceOnUse">
<stop offset="0.00047536" stop-color="#F7B08A"/>
<stop offset="0.3919" stop-color="#F1A583"/>
<stop offset="1" stop-color="#E38C72"/>
</linearGradient>
<linearGradient id="paint6_linear_1_59" x1="49.0205" y1="26.6266" x2="41.6272" y2="51.4343" gradientUnits="userSpaceOnUse">
<stop offset="0.00047536" stop-color="#F8C5A1"/>
<stop offset="0.7338" stop-color="#F9BA9A"/>
<stop offset="1" stop-color="#FAB597"/>
</linearGradient>
<linearGradient id="paint7_linear_1_59" x1="47.2953" y1="26.1125" x2="39.9019" y2="50.9202" gradientUnits="userSpaceOnUse">
<stop offset="0.00047536" stop-color="#F7B08A"/>
<stop offset="0.3919" stop-color="#F1A583"/>
<stop offset="1" stop-color="#E38C72"/>
</linearGradient>
<linearGradient id="paint8_linear_1_59" x1="20.1344" y1="39.6196" x2="26.898" y2="39.8765" gradientUnits="userSpaceOnUse">
<stop offset="0.00047536" stop-color="#F7B08A"/>
<stop offset="0.3919" stop-color="#F1A583"/>
<stop offset="1" stop-color="#E38C72"/>
</linearGradient>
</defs>
</svg>
