<svg width="106" height="115" viewBox="0 0 106 115" fill="none" xmlns="http://www.w3.org/2000/svg">
<path d="M78.99 14.72C79.85 16.57 77.87 20.81 78.81 24.94C79.74 29.06 80.01 32.94 81.55 37.25C83.09 41.57 85.91 45.01 84.12 53.27C82.32 61.54 83.96 66.66 82.41 70.36C82.74 70.61 83.48 71.23 84.49 72.09C90.22 76.96 104.77 89.75 104.77 89.75C104.77 89.75 106.57 91.61 104.44 95.48C102.7 98.66 92.07 108.91 84.63 112.87C83.02 113.74 81.54 114.3 80.35 114.43C74.35 106.1 68.88 99.26 66.03 95.79C64.71 94.19 63.96 93.3 63.96 93.3C63.96 93.3 60.67 89.21 55.87 88.24C51.06 87.27 42.75 83.97 36.57 77.2C30.41 70.42 25.83 64.82 22.52 62.46C19.21 60.12 11.74 54.13 7.85 49.74C4.27 45.7 3.02 42.44 3.98 40.73L3.98998 40.72C4.05998 40.57 4.15998 40.43 4.26998 40.31C5.28998 39.22 6.59 38.95 7.73 39.91C3.71 35.94 -0.499993 31.52 0.390007 27.61C0.580007 26.8 0.919978 26.24 1.35998 25.89C2.99998 24.54 6.11998 26.19 8.35998 28.31C9.22998 29.14 10.25 30.07 11.29 30.99C11.3 31 11.3 31 11.3 31C12.29 31.88 13.31 32.78 14.25 33.58C15.43 34.62 16.49 35.52 17.16 36.12C17.79 36.68 18.92 37.7 20.37 38.84C21.16 39.45 22.02 40.09 22.95 40.73C25.18 42.26 27.76 43.72 30.36 44.43C31.13 41.66 31.13 40.73 31.13 40.73C31.13 40.73 23.38 31.92 18.74 23.41C14.09 14.9 11.87 9.74 12.85 6.12C13.05 5.35 13.44 4.78 13.92 4.4C13.92 4.4 13.92 4.4 13.93 4.39C15.72 2.95 18.86 3.84 19.63 5.32C19.21 4.02 19.7 2.61 20.73 1.77C21.98 0.739999 24.03 0.539999 26.13 2.4C29.91 5.74 35.07 12.55 38.76 16.74L38.88 16.88C42.59 21.07 47.15 25.98 48.65 29.29C50.16 32.59 54.87 37.3 58.42 38.94C61.96 40.6 66.17 41.1 69.18 41.27C70.54 32.95 65.96 27.8 70.84 18.23C72.32 15.35 74.5 14.01 76.27 13.75C77.58 13.56 78.63 13.94 78.99 14.72Z" fill="url(#paint0_linear_1_103)"/>
<path d="M104.43 95.48C102.69 98.66 92.06 108.91 84.62 112.87C66.61 92.42 86.81 80.33 84.47 72.09C90.2 76.96 104.75 89.75 104.75 89.75C104.75 89.75 106.56 91.61 104.43 95.48Z" fill="url(#paint1_linear_1_103)"/>
<path d="M69.21 41.28C69.21 41.28 67.76 42.25 65.07 42.09C62.38 41.93 58.68 43.83 54.25 40.42C49.8 37.01 47.63 28.52 44.52 25.01C41.94 22.1 41.37 20.8 38.79 16.75L38.9 16.88C42.61 21.07 47.17 25.98 48.67 29.29C50.18 32.59 54.89 37.3 58.44 38.94C61.99 40.6 66.2 41.1 69.21 41.28Z" fill="url(#paint2_linear_1_103)"/>
<path d="M78.99 14.72C79.85 16.57 77.87 20.81 78.81 24.94C79.74 29.06 80.01 32.94 81.55 37.25C83.09 41.57 85.91 45.01 84.12 53.27C82.32 61.54 83.96 66.66 82.41 70.36C82.09 75.59 76.37 77.43 76.59 80.24C76.8 83.05 72.42 86.65 67.53 90.98C66.27 92.1 65.89 93.83 66.03 95.79C64.71 94.19 63.96 93.3 63.96 93.3C63.96 93.3 60.67 89.21 55.87 88.24C51.06 87.27 42.75 83.97 36.57 77.2C30.41 70.42 25.83 64.82 22.52 62.46C19.21 60.12 11.74 54.13 7.84999 49.74C4.26999 45.7 3.02 42.44 3.98 40.73C3.95 44.8 8.02999 48.26 9.71999 50.16C11.71 52.41 16.44 56.8 23.32 60.05C30.21 63.3 30.85 67.14 35.78 72.7C40.71 78.26 48.13 83.69 55.4 82.52C61.22 81.58 63.61 78.35 63.12 75.42C68.18 73.87 70.8 71.28 76.25 63.79C81.7 56.29 78.61 51.19 79.9 45.88C81.03 41.27 78.47 35.63 75.45 31.58C74.69 30.56 74.61 29.22 75.2 28.09C75.8 26.92 76.17 25.54 75.97 24.2C75.85 23.35 75.93 22.46 76.34 21.71C79.41 16.09 78.57 14.23 76.28 13.77C77.58 13.56 78.63 13.94 78.99 14.72Z" fill="url(#paint3_linear_1_103)"/>
<path d="M13.94 4.41C12.61 7.4 14.26 11.65 15.17 14.24C16.24 17.2 16.82 15.34 18.57 19.63C20.32 23.92 23.02 27.43 24.42 28.69C25.82 29.96 26.07 30.35 26.92 32.77C27.78 35.18 30.59 38.15 33.17 39.57C33.03 42.1 30.39 44.44 30.39 44.44C31.16 41.67 31.16 40.74 31.16 40.74C31.16 40.74 23.41 31.93 18.77 23.42C14.12 14.91 11.9 9.75 12.88 6.13C13.07 5.36 13.45 4.79 13.94 4.41Z" fill="url(#paint4_linear_1_103)"/>
<path d="M20.75 1.78C20.06 4.81 21.81 8.03 23.06 9.7C24.5 11.6 26.54 13.5 27.77 16.24C29 18.98 31.83 20.82 32.66 21.76C33.49 22.7 32.95 21.95 35.07 26.13C37.18 30.3 41.04 33.85 41.04 33.85C41.04 33.85 38 35.79 37.33 36.72C38.52 34.62 38.79 34.14 38.79 34.14C38.79 34.14 37.93 32.32 35.32 29.08C32.71 25.85 29.46 21.85 28.37 20.06C27.28 18.28 23.55 12.65 22.67 11.05C21.8 9.45 20.09 7.1 19.65 5.34C19.23 4.03 19.72 2.62 20.75 1.78Z" fill="url(#paint5_linear_1_103)"/>
<path d="M14.27 33.58C13.62 33.89 12.65 34.44 11.85 35.15C12.52 33.76 12.4 32.61 11.33 31C12.31 31.88 13.33 32.78 14.27 33.58Z" fill="url(#paint6_linear_1_103)"/>
<path d="M22.97 40.73C22.35 40.88 21.39 41.31 20.21 42.59C21.05 41.45 21.15 40.09 20.39 38.84C21.17 39.45 22.04 40.09 22.97 40.73Z" fill="url(#paint7_linear_1_103)"/>
<path d="M13 44.38C14.68 46.56 14.86 47.32 13.73 49.07C15.35 47.13 16.04 46.73 16.04 46.73L13 44.38Z" fill="url(#paint8_linear_1_103)"/>
<path d="M17.95 48.04C19.61 49.11 20.21 50.87 20.21 50.87C20.21 50.87 19.56 52.53 18.62 53.36C20.93 51.73 22 50.07 22 50.07L17.95 48.04Z" fill="url(#paint9_linear_1_103)"/>
<path d="M27.93 13.51C28.19 13.21 28.47 12.92 28.79 12.68C29.11 12.43 29.46 12.23 29.82 12.06C30.57 11.75 31.3 11.55 31.97 11.11C31.72 11.42 31.39 11.67 31.03 11.86C30.67 12.05 30.3 12.18 29.96 12.36C29.24 12.65 28.61 13.09 27.93 13.51Z" fill="#E08172"/>
<path d="M34.57 22.18C35.05 21.47 35.77 20.95 36.49 20.5C37.23 20.07 37.96 19.7 38.65 19.19C38.15 19.9 37.36 20.33 36.66 20.78C35.93 21.2 35.25 21.66 34.57 22.18Z" fill="#E08172"/>
<path d="M19.58 17.16C20.08 16.54 20.73 16.07 21.39 15.64C22.07 15.24 22.78 14.87 23.55 14.68C22.22 15.52 20.9 16.3 19.58 17.16Z" fill="#E08172"/>
<path d="M26.61 28.95C27.98 27.79 29.35 26.7 30.73 25.55C30.22 26.3 29.55 26.91 28.87 27.5C28.16 28.05 27.43 28.57 26.61 28.95Z" fill="#E08172"/>
<path d="M42.29 32.53C42.87 31.99 43.59 31.63 44.32 31.36C45.07 31.12 45.85 30.95 46.64 31C45.89 31.21 45.15 31.4 44.43 31.66C43.7 31.9 43.01 32.22 42.29 32.53Z" fill="#E08172"/>
<path d="M70.88 29.64C71.34 29.36 71.91 29.22 72.46 29.28C73.02 29.32 73.54 29.52 74.05 29.68C75.05 30.06 76.07 30.31 77.14 30.07C76.65 30.3 76.09 30.4 75.54 30.36C74.99 30.32 74.46 30.15 73.95 29.99C72.95 29.6 71.93 29.27 70.88 29.64Z" fill="#E08172"/>
<path d="M60.72 74.67C62.01 75.37 63.35 75.92 64.75 76.22C66.15 76.52 67.58 76.62 69 76.49C71.85 76.26 74.61 75.28 77.18 73.89C76.04 74.81 74.74 75.54 73.37 76.1C72 76.66 70.54 77.02 69.05 77.14C67.57 77.25 66.05 77.13 64.62 76.7C63.2 76.28 61.86 75.59 60.72 74.67Z" fill="#E08172"/>
<path d="M69.24 80.93C71.8 80.01 74.19 78.77 76.41 77.28C78.62 75.77 80.71 74.05 82.18 71.75C81.69 73.03 80.86 74.16 79.92 75.17C78.98 76.18 77.9 77.05 76.77 77.82C75.63 78.58 74.42 79.25 73.16 79.77C71.9 80.31 70.59 80.74 69.24 80.93Z" fill="#E08172"/>
<path d="M63.14 91.38C64.02 90.77 64.87 90.15 65.68 89.48C66.48 88.8 67.27 88.11 68.05 87.39C68.84 86.69 69.62 85.96 70.48 85.32C71.33 84.67 72.25 84.08 73.26 83.72C71.49 84.91 70.07 86.44 68.49 87.88C66.91 89.3 65.15 90.63 63.14 91.38Z" fill="#E08172"/>
<path d="M26.91 51.01C26.91 51.01 26.54 54.05 26.78 56.02C26.25 54.36 25.97 53.14 25.97 53.14C25.97 53.14 20.43 49.93 17.75 48.29C15.09 46.64 9.96998 42.17 7.73998 39.9C3.71998 35.93 -0.490014 31.51 0.399986 27.6C0.589986 26.79 0.929988 26.23 1.36999 25.88C0.109988 29.21 2.43 32.35 5.95 35.08C9.69 37.99 8.70998 38.57 12.99 42.08C17.26 45.58 16.88 43.41 19.28 46.61C21.69 49.85 26.91 51.01 26.91 51.01Z" fill="url(#paint10_linear_1_103)"/>
<path d="M33.09 61.71C34.53 60.03 35.99 58.39 37.36 56.66C38.74 54.95 40.09 53.21 41.35 51.41C42.66 49.64 43.87 47.81 45.06 45.96C46.25 44.11 47.39 42.23 48.48 40.3C47.64 42.35 46.6 44.31 45.49 46.22C44.38 48.13 43.16 49.98 41.88 51.79C40.56 53.57 39.22 55.33 37.74 56.98C36.29 58.65 34.72 60.22 33.09 61.71Z" fill="#E08172"/>
<path d="M54.92 70.4C53.07 68.89 51.61 66.91 50.56 64.75C49.5 62.59 48.87 60.23 48.52 57.86C48.22 55.47 48.21 53.05 48.54 50.68C48.87 48.31 49.5 45.97 50.54 43.82C49.76 46.07 49.26 48.39 49.04 50.74C48.82 53.08 48.83 55.45 49.17 57.78C49.75 62.41 51.58 66.98 54.92 70.4Z" fill="#E08172"/>
<defs>
<linearGradient id="paint0_linear_1_103" x1="30.8989" y1="75.7385" x2="88.1766" y2="24.9959" gradientUnits="userSpaceOnUse">
<stop offset="0.00047536" stop-color="#F8C5A1"/>
<stop offset="0.7338" stop-color="#F9BA9A"/>
<stop offset="1" stop-color="#FAB597"/>
</linearGradient>
<linearGradient id="paint1_linear_1_103" x1="74.8802" y1="101.862" x2="97.635" y2="81.7038" gradientUnits="userSpaceOnUse">
<stop offset="0.00047536" stop-color="#F7B08A"/>
<stop offset="0.3919" stop-color="#F1A583"/>
<stop offset="1" stop-color="#E38C72"/>
</linearGradient>
<linearGradient id="paint2_linear_1_103" x1="48.3281" y1="34.0107" x2="56.4198" y2="26.8422" gradientUnits="userSpaceOnUse">
<stop offset="0.00047536" stop-color="#F7B08A"/>
<stop offset="0.3919" stop-color="#F1A583"/>
<stop offset="1" stop-color="#E38C72"/>
</linearGradient>
<linearGradient id="paint3_linear_1_103" x1="28.9768" y1="73.5688" x2="86.2545" y2="22.8262" gradientUnits="userSpaceOnUse">
<stop offset="0.00047536" stop-color="#F7B08A"/>
<stop offset="0.3919" stop-color="#F1A583"/>
<stop offset="1" stop-color="#E38C72"/>
</linearGradient>
<linearGradient id="paint4_linear_1_103" x1="16.8175" y1="29.1238" x2="27.4674" y2="19.6889" gradientUnits="userSpaceOnUse">
<stop offset="0.00047536" stop-color="#F7B08A"/>
<stop offset="0.3919" stop-color="#F1A583"/>
<stop offset="1" stop-color="#E38C72"/>
</linearGradient>
<linearGradient id="paint5_linear_1_103" x1="25.0977" y1="22.9139" x2="33.1511" y2="15.7793" gradientUnits="userSpaceOnUse">
<stop offset="0.00047536" stop-color="#F7B08A"/>
<stop offset="0.3919" stop-color="#F1A583"/>
<stop offset="1" stop-color="#E38C72"/>
</linearGradient>
<linearGradient id="paint6_linear_1_103" x1="10.8284" y1="34.0062" x2="12.9662" y2="32.1123" gradientUnits="userSpaceOnUse">
<stop offset="0.00047536" stop-color="#F7B08A"/>
<stop offset="0.3919" stop-color="#F1A583"/>
<stop offset="1" stop-color="#E38C72"/>
</linearGradient>
<linearGradient id="paint7_linear_1_103" x1="19.4517" y1="41.7339" x2="21.9213" y2="39.5461" gradientUnits="userSpaceOnUse">
<stop offset="0.00047536" stop-color="#F7B08A"/>
<stop offset="0.3919" stop-color="#F1A583"/>
<stop offset="1" stop-color="#E38C72"/>
</linearGradient>
<linearGradient id="paint8_linear_1_103" x1="12.3961" y1="47.5561" x2="14.8495" y2="45.3826" gradientUnits="userSpaceOnUse">
<stop offset="0.00047536" stop-color="#F7B08A"/>
<stop offset="0.3919" stop-color="#F1A583"/>
<stop offset="1" stop-color="#E38C72"/>
</linearGradient>
<linearGradient id="paint9_linear_1_103" x1="17.1762" y1="51.7279" x2="20.7045" y2="48.6022" gradientUnits="userSpaceOnUse">
<stop offset="0.00047536" stop-color="#F7B08A"/>
<stop offset="0.3919" stop-color="#F1A583"/>
<stop offset="1" stop-color="#E38C72"/>
</linearGradient>
<linearGradient id="paint10_linear_1_103" x1="10.8789" y1="43.7587" x2="16.2575" y2="38.9938" gradientUnits="userSpaceOnUse">
<stop offset="0.00047536" stop-color="#F7B08A"/>
<stop offset="0.3919" stop-color="#F1A583"/>
<stop offset="1" stop-color="#E38C72"/>
</linearGradient>
</defs>
</svg>
