<svg width="121" height="100" viewBox="0 0 121 100" fill="none" xmlns="http://www.w3.org/2000/svg">
<g filter="url(#filter0_f_101_225)">
<mask id="mask0_101_225" style="mask-type:alpha" maskUnits="userSpaceOnUse" x="9" y="9" width="103" height="82">
<path d="M111.491 64.1014C111.136 70.3463 109.799 75.2977 108.128 79.1464C104.325 87.9253 98.7577 91 98.7577 91C98.7577 91 77.5424 83.504 63.9003 79.4432C43.1133 85.8896 27.7162 80.249 27.7162 80.249C27.7162 80.249 24.3214 78.7329 22.5038 74.5555C21.6577 47.0207 36.0311 25.6248 42.4238 22.5606C44.5757 21.5322 46.9991 20.896 49.4121 20.5568C52.013 20.1645 54.5931 20.1433 56.8076 20.3341C58.6565 20.5038 60.2547 20.8324 61.3829 21.2565C65.112 22.6985 73.4268 29.06 75.0041 37.3936C75.0041 37.3936 88.0717 44.317 110.687 48.9079C111.564 54.6757 111.763 59.7225 111.491 64.1014Z" fill="url(#paint0_linear_101_225)"/>
<path d="M108.128 79.1464C104.325 87.9253 98.7577 91 98.7577 91C98.7577 91 77.5424 83.504 63.9003 79.4432C43.1133 85.8896 27.7162 80.249 27.7162 80.249C27.7162 80.249 24.3214 78.7329 22.5038 74.5555C21.6577 47.0207 36.0311 25.6248 42.4238 22.5606C44.5757 21.5322 46.9991 20.896 49.4121 20.5568C44.3563 24.3313 44.3041 28.9964 43.3222 31.0003C42.2776 33.1208 46.5813 36.768 42.7268 43.3734C44.6906 49.7985 48.0437 56.8916 61.9887 59.3726C57.4657 60.7828 51.4281 60.2951 43.5206 54.5591C44.2205 58.323 44.3667 60.1148 40.8465 62.9669C41.6404 63.7727 45.5367 72.2335 39.0185 76.2307C39.6035 77.45 45.9963 78.9237 50.2268 76.2307C54.4678 78.3724 66.073 76.941 69.5305 68.0031C78.8168 79.9522 94.3601 86.7484 108.128 79.1464Z" fill="url(#paint1_linear_101_225)"/>
<path d="M111.491 64.1014C105.161 44.3595 76.3726 41.9103 76.3726 41.9103C76.3726 41.9103 77.7096 48.5581 73.312 53.0323C75.5892 46.5436 73.5 29.728 59.4818 27.0879C59.0326 24.8932 57.7061 22.1153 56.7973 20.3235C58.6462 20.4931 60.2443 20.8218 61.3725 21.2459C65.1016 22.6879 73.4164 29.0494 74.9937 37.383C74.9937 37.383 88.0614 44.3064 110.676 48.8973C111.564 54.6757 111.763 59.7225 111.491 64.1014Z" fill="url(#paint2_linear_101_225)"/>
<path d="M35.4043 32.7709C33.7852 35.9516 28.1654 38.6659 17.9286 36.7574C14.6904 36.1531 12.6117 34.955 11.2956 33.6191C8.42298 30.7458 9.06017 27.1515 9.06017 27.1515C9.06017 27.1515 11.6612 22.1365 16.6333 18.8498C17.5212 18.256 18.4718 17.7259 19.4955 17.2912C23.4022 17.2912 27.3298 17.8213 35.4043 20.8006C35.4043 20.79 37.0443 29.6007 35.4043 32.7709Z" fill="url(#paint3_linear_101_225)"/>
<path d="M35.4044 32.7709C33.7853 35.9516 28.1655 38.6659 17.9286 36.7574C14.6905 36.1531 12.6118 34.955 11.2956 33.6191C16.8945 32.8875 14.8367 29.94 16.8945 27.3424C19.0568 24.5857 19.5895 22.0517 17.4899 20.8854C16.602 20.3977 16.4767 19.6131 16.6334 18.8498C17.5213 18.256 18.4718 17.7259 19.4955 17.2912C23.4022 17.2912 27.3298 17.8213 35.4044 20.8006C35.4044 20.79 37.0443 29.6007 35.4044 32.7709Z" fill="url(#paint4_linear_101_225)"/>
<path d="M34.6732 50.4029C33.4197 52.6612 26.6404 54.4319 19.6731 52.8733C19.1403 52.7461 18.6285 52.6082 18.1376 52.4492C12.2984 50.5407 9.85407 46.0347 9.85407 46.0347C9.85407 46.0347 9.41536 42.5782 10.2092 39.4293C10.3868 38.7189 10.6166 38.0297 10.9404 37.3936C13.04 35.2519 15.5052 34.8384 15.5052 34.8384C15.5052 34.8384 24.8542 34.8384 30.1084 37.3936C37.1906 40.8288 35.9371 48.1552 34.6732 50.4029Z" fill="url(#paint5_linear_101_225)"/>
<path d="M34.6732 50.4029C33.4197 52.6612 26.6404 54.4319 19.6731 52.8733C19.1404 52.7461 18.6285 52.6082 18.1376 52.4492C23.0471 50.6786 25.3138 47.0419 25.7212 44.1368C26.2017 40.7122 22.0129 39.4187 17.7615 37.9555C13.9384 36.6514 14.1368 36.3121 10.1988 39.4187C10.3764 38.7083 10.6062 38.0191 10.93 37.383C13.0296 35.2413 15.4948 34.8278 15.4948 34.8278C15.4948 34.8278 24.8437 34.8278 30.0979 37.383C37.1906 40.8288 35.9371 48.1552 34.6732 50.4029Z" fill="url(#paint6_linear_101_225)"/>
<path d="M41.3793 57.0401C39.4364 61.6416 36.9086 63.4864 33.8479 64.3452C31.5081 64.992 28.8444 65.0556 25.8883 65.3313C21.1773 65.7554 17.7824 64.5043 15.2127 62.405C14.0846 61.4932 13.1027 60.4117 12.2462 59.256C11.9015 57.5278 12.2462 52.9369 12.2462 52.9369C12.2462 52.9369 16.3722 48.9928 19.7253 48.7065C36.2087 47.2539 40.5959 50.6786 40.5959 50.6786C40.5959 50.6786 41.7972 53.6261 41.3793 57.0401Z" fill="url(#paint7_linear_101_225)"/>
<path d="M41.3793 57.0401C39.4364 61.6416 36.9085 63.4864 33.8479 64.3452C35.1014 62.3838 36.5116 59.924 36.7623 57.39C37.0443 54.4955 35.1432 53.5943 30.662 51.9085C26.515 50.3605 21.9398 50.9118 18.2733 52.8733C15.5052 54.347 12.9147 55.5981 15.2232 62.3944C14.095 61.4825 13.1131 60.4011 12.2566 59.2454C11.9119 57.5172 12.2566 52.9263 12.2566 52.9263C12.2566 52.9263 16.3827 48.9822 19.7358 48.6959C36.2191 47.2433 40.6064 50.668 40.6064 50.668C40.6064 50.668 41.7972 53.6261 41.3793 57.0401Z" fill="url(#paint8_linear_101_225)"/>
<path d="M40.272 65.4055C40.272 68.1409 39.2274 71.4595 39.2274 71.4595C39.2274 71.4595 39.2274 72.2865 35.2894 75.0644C33.7956 75.6051 31.8005 75.9656 29.6905 76.114C26.2956 76.3791 22.6187 76.1246 20.3206 75.2658C18.9627 74.3116 17.9181 73.0393 17.1556 71.7988C15.6723 69.4026 15.1709 67.0595 15.1709 67.0595C15.1709 67.0595 17.9077 63.8257 19.9655 62.6594C26.6821 61.1009 36.6264 62.0657 36.6264 62.0657C36.6264 62.0657 38.2142 62.8291 40.272 65.4055Z" fill="url(#paint9_linear_101_225)"/>
<path d="M61.3725 21.2459C61.3725 21.2459 59.9414 22.0941 57.8627 22.6455C55.5647 23.2392 52.4518 23.4937 49.5897 21.8397C49.0361 23.3452 47.8453 24.4797 46.6649 25.2855C45.0876 26.3457 43.4998 26.8335 43.4998 26.8335C43.4998 26.8335 43.1342 29.834 40.5332 31.2441C43.2491 37.8707 39.7185 44.9214 37.3682 47.8689C35.9267 49.6819 33.8166 50.2863 32.114 49.5971C31.6126 49.4063 31.1425 49.0882 30.7351 48.6535C30.286 48.1658 29.8995 47.5508 29.6488 46.7768C29.022 44.9214 28.1655 42.1541 26.912 39.196C26.233 37.5738 25.4287 35.9092 24.4781 34.2976C24.4886 34.287 24.4886 34.2658 24.4781 34.2658C23.6111 32.7709 22.6292 31.3395 21.4906 30.046C20.0282 28.0315 20.3207 26.0383 20.3207 26.0383C20.3207 26.0383 29.3563 12.1702 46.2471 9C56.0661 11.7461 61.3725 21.2459 61.3725 21.2459Z" fill="url(#paint10_linear_101_225)"/>
<path d="M30.7351 48.6535C30.2859 48.1658 29.8994 47.5508 29.6487 46.7768C29.0533 45.0062 28.2281 42.3768 27.0582 39.5565C27.0164 39.4505 26.9642 39.3232 26.912 39.196C29.4189 38.5705 31.4245 37.0543 32.3437 36.2697C32.7093 35.9622 32.8974 35.7608 32.8974 35.7608C32.8974 35.7608 35.8953 39.9912 36.2922 43.4582C36.6474 46.639 34.9134 49.332 30.7351 48.6535Z" fill="url(#paint11_linear_101_225)"/>
<path d="M46.6648 25.2855C45.0875 26.3457 43.4998 26.8335 43.4998 26.8335C43.4998 26.8335 43.1342 29.834 40.5332 31.2441C43.2491 37.8707 39.7184 44.9214 37.3681 47.8689C35.9266 49.6819 33.8166 50.2863 32.1139 49.5971C35.8221 49.3639 38.6216 46.5012 39.5513 42.0163C40.5018 37.3406 39.9378 28.0209 29.022 29.6961C31.5916 29.007 35.1014 25.5612 29.6383 22.9635C32.2393 24.151 42.9984 27.0879 45.4113 18.0122C45.4113 21.1293 45.3278 25.084 46.6648 25.2855Z" fill="url(#paint12_linear_101_225)"/>
<path d="M61.3725 21.2459C61.3725 21.2459 59.9414 22.0941 57.8627 22.6455C56.557 20.1115 53.3502 16.2945 49.4957 13.6439C44.628 11.6506 40.763 12.9335 35.1955 15.5418C29.6383 18.1394 23.8514 23.271 22.6919 26.5366C21.6264 29.5795 22.6815 28.2542 24.4781 34.2764C23.6111 32.7815 22.6292 31.3501 21.4906 30.0566C20.0282 28.0422 20.3207 26.0489 20.3207 26.0489C20.3207 26.0489 29.3563 12.1808 46.2471 9.0106C56.0661 11.7461 61.3725 21.2459 61.3725 21.2459Z" fill="url(#paint13_linear_101_225)"/>
<path d="M40.272 65.4055C40.272 68.1409 39.2275 71.4595 39.2275 71.4595C39.2275 71.4595 39.2275 72.2865 35.2894 75.0644C33.7957 75.6051 31.8005 75.9656 29.6905 76.114C31.4454 74.5131 33.8688 72.0639 34.6731 70.0812C35.9788 66.858 34.318 65.3843 31.2365 64.7057C28.3325 64.0696 24.5512 64.2392 21.7204 65.0768C19.2761 65.8084 17.0407 66.7732 17.1452 71.7988C15.6619 69.4026 15.1605 67.0595 15.1605 67.0595C15.1605 67.0595 17.8972 63.8257 19.9551 62.6594C26.6717 61.1009 36.616 62.0657 36.616 62.0657C36.616 62.0657 38.2142 62.8291 40.272 65.4055Z" fill="url(#paint14_linear_101_225)"/>
<path d="M23.7782 21.7973C24.2901 21.2565 24.8437 20.684 25.46 20.0903C24.102 19.7086 23.1306 18.6589 23.1306 18.6589C23.1306 18.6589 23.6111 19.2527 24.3005 20.2175C22.6919 20.2175 19.8402 19.1254 19.8402 19.1254C19.8402 19.1254 23.0052 20.5462 23.7782 21.7973Z" fill="url(#paint15_linear_101_225)"/>
<path d="M43.8863 25.7732C43.7818 24.9038 43.8759 24.098 44.0116 23.3028C44.1788 22.5076 44.3877 21.723 44.8055 20.9703C44.9204 21.8079 44.8264 22.6349 44.6802 23.4407C44.5131 24.2464 44.3041 25.0416 43.8863 25.7732Z" fill="#E08172"/>
<path d="M34.1404 26.2503C34.8194 26.1443 35.5401 26.1337 36.2296 26.3351C36.9294 26.4942 37.5771 26.8441 38.1411 27.2894C38.7052 27.7453 39.1857 28.2754 39.5513 28.8904C39.9169 29.5053 40.199 30.1627 40.3139 30.8624C39.5722 29.6855 38.7574 28.6359 37.7338 27.8407C37.2324 27.4272 36.6683 27.1091 36.0729 26.8441C35.467 26.5472 34.8194 26.4306 34.1404 26.2503Z" fill="#E08172"/>
<path d="M13.9801 38.4432L13.7399 40.4895C13.6772 41.1681 13.5937 41.8361 13.5519 42.5146C13.4265 43.8611 13.3743 45.2077 13.2803 46.6072C13.0505 45.9392 12.946 45.2501 12.8833 44.5503C12.8102 43.8505 12.8207 43.1508 12.8729 42.4616C12.9982 41.0727 13.3221 39.6837 13.9801 38.4432Z" fill="#E08172"/>
<path d="M17.0199 53.2762C17.0199 54.5167 17.093 55.6724 17.2079 56.8598C17.3124 58.0473 17.4482 59.2242 17.5004 60.4647C17.2079 59.9134 17.0199 59.3302 16.8527 58.7365C16.6856 58.1427 16.5916 57.5384 16.5289 56.9235C16.4871 56.3085 16.4663 55.683 16.5498 55.068C16.6229 54.4531 16.7587 53.8381 17.0199 53.2762Z" fill="#E08172"/>
<path d="M38.8932 51.1981C39.3842 52.4386 39.4991 53.7957 39.4364 55.121C39.3946 55.7784 39.3111 56.4463 39.1648 57.0825C39.0186 57.7292 38.841 58.3654 38.5485 58.9697C38.5799 57.6444 38.6947 56.3615 38.7574 55.0786C38.8096 54.4425 38.8096 53.7957 38.8514 53.1596C38.8723 52.5128 38.8619 51.866 38.8932 51.1981Z" fill="#E08172"/>
<path d="M19.7566 65.4055C19.6104 66.0522 19.5059 66.6566 19.4955 67.2821C19.5059 67.8971 19.5372 68.512 19.6313 69.127C19.8088 70.3569 20.1431 71.5656 20.4774 72.8273C20.0595 72.3183 19.7566 71.7352 19.4955 71.1309C19.2343 70.5265 19.0672 69.8798 18.9523 69.2224C18.8687 68.565 18.8478 67.8865 18.9732 67.2185C19.109 66.5612 19.3597 65.925 19.7566 65.4055Z" fill="#E08172"/>
<path d="M37.2741 64.5467C37.6188 65.1086 37.8277 65.766 37.9009 66.4339C37.974 67.1019 37.9113 67.7911 37.786 68.4484C37.6293 69.1058 37.4203 69.7419 37.1174 70.3251C36.8145 70.9188 36.4698 71.4807 36.0102 71.9579C36.4489 70.7174 36.8563 69.5299 37.1174 68.3C37.2532 67.685 37.3263 67.0701 37.3786 66.4551C37.4099 65.8296 37.3577 65.204 37.2741 64.5467Z" fill="#E08172"/>
<path d="M65.018 78.3194C65.8224 77.45 66.564 76.5594 67.1072 75.5415C67.6295 74.5237 68.0786 73.4528 68.3711 72.3395C68.9665 70.1024 69.1859 67.7698 69.1963 65.4055C69.4784 66.5612 69.5515 67.7698 69.5306 68.9573C69.5097 70.1554 69.3321 71.3535 69.0292 72.5198C68.7054 73.6861 68.2144 74.8099 67.5563 75.8172C66.8878 76.835 65.9999 77.6726 65.018 78.3194Z" fill="#E08172"/>
<path d="M75.4115 38.0934C76.665 40.2881 77.1351 42.9493 76.9157 45.5045C76.6755 48.0491 75.6831 50.615 73.876 52.3962C75.2548 50.2863 76.0174 47.8901 76.2368 45.4409C76.4666 42.9811 76.1741 40.5001 75.4115 38.0934Z" fill="#E08172"/>
<path d="M41.9643 53.2232C43.2282 54.5379 44.7742 55.4815 46.3515 56.3297C47.9393 57.1567 49.5897 57.8777 51.2923 58.4184C52.9741 59.0016 54.7185 59.4151 56.4839 59.6377C58.2492 59.8604 60.0563 59.871 61.8217 59.4681C60.1295 60.1466 58.2492 60.2845 56.4317 60.1678C54.6036 60.0406 52.8174 59.6165 51.073 59.0758C49.3494 58.4714 47.6677 57.7399 46.0904 56.7962C44.5549 55.842 43.0193 54.7393 41.9643 53.2232Z" fill="#E08172"/>
<path opacity="0.68" d="M32.3437 36.2697C31.8632 37.8283 30.5053 40.3623 27.0582 39.5565C27.0164 39.4505 26.9642 39.3232 26.912 39.196C29.4189 38.5811 31.4141 37.0543 32.3437 36.2697Z" fill="#F8917F"/>
</mask>
<g mask="url(#mask0_101_225)">
<g filter="url(#filter1_d_101_225)">
<path d="M112.536 64.1014C112.181 70.3463 110.843 75.2976 109.172 79.1464C105.37 87.9253 99.8023 91 99.8023 91C99.8023 91 78.587 83.504 64.9449 79.4432C44.1579 85.8896 28.7608 80.249 28.7608 80.249C28.7608 80.249 25.366 78.7329 23.5484 74.5555C22.7023 47.0207 37.0756 25.6248 43.4684 22.5606C45.6203 21.5322 48.0437 20.896 50.4566 20.5568C53.0576 20.1645 55.6377 20.1433 57.8522 20.3341C59.7011 20.5037 61.2993 20.8324 62.4274 21.2565C66.1566 22.6985 74.4714 29.06 76.0487 37.3936C76.0487 37.3936 89.1163 44.317 111.731 48.9079C112.609 54.6757 112.807 59.7225 112.536 64.1014Z" fill="url(#paint16_linear_101_225)"/>
<path d="M109.172 79.1464C105.37 87.9253 99.8023 91 99.8023 91C99.8023 91 78.587 83.504 64.9449 79.4432C44.1579 85.8896 28.7608 80.249 28.7608 80.249C28.7608 80.249 25.366 78.7329 23.5484 74.5555C22.7023 47.0207 37.0756 25.6248 43.4684 22.5606C45.6203 21.5322 48.0437 20.896 50.4566 20.5568C45.4009 24.3313 45.3487 28.9964 44.3668 31.0003C43.3222 33.1208 47.6258 36.768 43.7714 43.3734C45.7352 49.7985 49.0883 56.8916 63.0333 59.3726C58.5103 60.7828 52.4726 60.2951 44.5652 54.5591C45.2651 58.323 45.4113 60.1148 41.8911 62.9669C42.685 63.7727 46.5813 72.2335 40.0631 76.2307C40.6481 77.4499 47.0409 78.9237 51.2714 76.2307C55.5124 78.3724 67.1176 76.941 70.5751 68.0031C79.8614 79.9522 95.4047 86.7484 109.172 79.1464Z" fill="url(#paint17_linear_101_225)"/>
<path d="M112.536 64.1014C106.206 44.3594 77.4171 41.9103 77.4171 41.9103C77.4171 41.9103 78.7541 48.5581 74.3565 53.0323C76.6337 46.5436 74.5445 29.7279 60.5263 27.0879C60.0771 24.8932 58.7505 22.1153 57.8418 20.3235C59.6907 20.4931 61.2888 20.8218 62.417 21.2459C66.1461 22.6879 74.4609 29.0494 76.0382 37.383C76.0382 37.383 89.1059 44.3064 111.721 48.8973C112.609 54.6757 112.807 59.7225 112.536 64.1014Z" fill="url(#paint18_linear_101_225)"/>
<path d="M36.4489 32.7709C34.8298 35.9516 29.21 38.6659 18.9732 36.7574C15.735 36.1531 13.6563 34.955 12.3401 33.6191C9.46754 30.7458 10.1047 27.1515 10.1047 27.1515C10.1047 27.1515 12.7057 22.1365 17.6779 18.8498C18.5658 18.256 19.5163 17.7259 20.54 17.2912C24.4467 17.2912 28.3743 17.8213 36.4489 20.8006C36.4489 20.79 38.0889 29.6007 36.4489 32.7709Z" fill="url(#paint19_linear_101_225)"/>
<path d="M36.4489 32.7709C34.8298 35.9516 29.21 38.6659 18.9731 36.7574C15.735 36.1531 13.6563 34.955 12.3401 33.6191C17.939 32.8875 15.8812 29.94 17.939 27.3424C20.1013 24.5857 20.634 22.0517 18.5344 20.8854C17.6465 20.3977 17.5212 19.6131 17.6779 18.8498C18.5658 18.256 19.5163 17.7259 20.54 17.2912C24.4467 17.2912 28.3743 17.8213 36.4489 20.8006C36.4489 20.79 38.0888 29.6007 36.4489 32.7709Z" fill="url(#paint20_linear_101_225)"/>
<path d="M35.7177 50.4029C34.4642 52.6612 27.6849 54.4319 20.7176 52.8733C20.1848 52.7461 19.673 52.6082 19.182 52.4492C13.3429 50.5407 10.8986 46.0346 10.8986 46.0346C10.8986 46.0346 10.4599 42.5782 11.2537 39.4293C11.4313 38.7189 11.6611 38.0297 11.9849 37.3936C14.0845 35.2519 16.5497 34.8384 16.5497 34.8384C16.5497 34.8384 25.8986 34.8384 31.1529 37.3936C38.2351 40.8288 36.9816 48.1552 35.7177 50.4029Z" fill="url(#paint21_linear_101_225)"/>
<path d="M35.7177 50.4029C34.4642 52.6612 27.685 54.4319 20.7176 52.8733C20.1849 52.7461 19.6731 52.6082 19.1821 52.4492C24.0916 50.6786 26.3583 47.0419 26.7657 44.1368C27.2462 40.7122 23.0575 39.4187 18.8061 37.9555C14.9829 36.6514 15.1814 36.3121 11.2433 39.4187C11.4209 38.7083 11.6507 38.0191 11.9745 37.383C14.0741 35.2413 16.5393 34.8278 16.5393 34.8278C16.5393 34.8278 25.8883 34.8278 31.1425 37.383C38.2351 40.8288 36.9817 48.1552 35.7177 50.4029Z" fill="url(#paint22_linear_101_225)"/>
<path d="M42.4238 57.0401C40.4809 61.6416 37.953 63.4864 34.8924 64.3452C32.5526 64.992 29.8889 65.0556 26.9328 65.3313C22.2218 65.7554 18.8269 64.5043 16.2572 62.405C15.1291 61.4931 14.1472 60.4117 13.2907 59.256C12.9459 57.5278 13.2907 52.9369 13.2907 52.9369C13.2907 52.9369 17.4167 48.9928 20.7698 48.7065C37.2532 47.2539 41.6404 50.6786 41.6404 50.6786C41.6404 50.6786 42.8417 53.6261 42.4238 57.0401Z" fill="url(#paint23_linear_101_225)"/>
<path d="M42.4238 57.0401C40.4809 61.6416 37.953 63.4864 34.8924 64.3452C36.1459 62.3838 37.5561 59.924 37.8068 57.39C38.0888 54.4955 36.1877 53.5943 31.7065 51.9084C27.5595 50.3605 22.9843 50.9118 19.3178 52.8733C16.5497 54.347 13.9592 55.5981 16.2677 62.3944C15.1395 61.4825 14.1576 60.4011 13.3011 59.2454C12.9564 57.5172 13.3011 52.9263 13.3011 52.9263C13.3011 52.9263 17.4272 48.9821 20.7802 48.6959C37.2636 47.2433 41.6509 50.668 41.6509 50.668C41.6509 50.668 42.8417 53.6261 42.4238 57.0401Z" fill="url(#paint24_linear_101_225)"/>
<path d="M41.3166 65.4055C41.3166 68.1409 40.2721 71.4595 40.2721 71.4595C40.2721 71.4595 40.2721 72.2865 36.334 75.0644C34.8403 75.6051 32.8451 75.9656 30.7351 76.114C27.3402 76.3791 23.6633 76.1246 21.3653 75.2658C20.0073 74.3116 18.9627 73.0393 18.2002 71.7988C16.7169 69.4026 16.2155 67.0595 16.2155 67.0595C16.2155 67.0595 18.9523 63.8257 21.0101 62.6594C27.7267 61.1009 37.671 62.0657 37.671 62.0657C37.671 62.0657 39.2588 62.8291 41.3166 65.4055Z" fill="url(#paint25_linear_101_225)"/>
<path d="M62.417 21.2459C62.417 21.2459 60.986 22.0941 58.9072 22.6455C56.6092 23.2392 53.4963 23.4937 50.6342 21.8397C50.0806 23.3452 48.8898 24.4797 47.7094 25.2855C46.1321 26.3457 44.5444 26.8335 44.5444 26.8335C44.5444 26.8335 44.1788 29.834 41.5778 31.2441C44.2937 37.8707 40.763 44.9214 38.4127 47.8689C36.9712 49.6819 34.8611 50.2863 33.1585 49.5971C32.6571 49.4063 32.187 49.0882 31.7797 48.6535C31.3305 48.1658 30.944 47.5508 30.6933 46.7768C30.0665 44.9214 29.21 42.1541 27.9565 39.196C27.2775 37.5738 26.4732 35.9092 25.5226 34.2976C25.5331 34.287 25.5331 34.2658 25.5226 34.2658C24.6557 32.7709 23.6738 31.3395 22.5352 30.046C21.0728 28.0315 21.3652 26.0383 21.3652 26.0383C21.3652 26.0383 30.4008 12.1702 47.2916 9C57.1106 11.7461 62.417 21.2459 62.417 21.2459Z" fill="url(#paint26_linear_101_225)"/>
<path d="M31.7797 48.6535C31.3305 48.1658 30.944 47.5508 30.6933 46.7768C30.0979 45.0062 29.2727 42.3768 28.1028 39.5565C28.061 39.4505 28.0087 39.3232 27.9565 39.196C30.4635 38.5705 32.4691 37.0543 33.3883 36.2697C33.7539 35.9622 33.9419 35.7608 33.9419 35.7608C33.9419 35.7608 36.9398 39.9912 37.3368 43.4582C37.6919 46.639 35.958 49.332 31.7797 48.6535Z" fill="url(#paint27_linear_101_225)"/>
<path d="M47.7094 25.2855C46.1321 26.3457 44.5443 26.8335 44.5443 26.8335C44.5443 26.8335 44.1787 29.834 41.5777 31.2441C44.2936 37.8707 40.763 44.9214 38.4127 47.8689C36.9712 49.6819 34.8611 50.2863 33.1585 49.5971C36.8667 49.3639 39.6662 46.5012 40.5958 42.0163C41.5464 37.3406 40.9823 28.0209 30.0665 29.6961C32.6362 29.007 36.1459 25.5612 30.6828 22.9635C33.2838 24.151 44.0429 27.0879 46.4559 18.0122C46.4559 21.1293 46.3723 25.084 47.7094 25.2855Z" fill="url(#paint28_linear_101_225)"/>
<path d="M62.417 21.2459C62.417 21.2459 60.986 22.0941 58.9072 22.6455C57.6015 20.1115 54.3947 16.2945 50.5402 13.6439C45.6725 11.6506 41.8076 12.9335 36.24 15.5418C30.6829 18.1394 24.8959 23.271 23.7364 26.5366C22.671 29.5795 23.726 28.2542 25.5226 34.2764C24.6557 32.7815 23.6738 31.3501 22.5352 30.0566C21.0728 28.0422 21.3652 26.0489 21.3652 26.0489C21.3652 26.0489 30.4008 12.1808 47.2916 9.0106C57.1106 11.7461 62.417 21.2459 62.417 21.2459Z" fill="url(#paint29_linear_101_225)"/>
<path d="M41.3166 65.4055C41.3166 68.1409 40.2721 71.4595 40.2721 71.4595C40.2721 71.4595 40.2721 72.2865 36.334 75.0644C34.8403 75.6051 32.8451 75.9656 30.7351 76.114C32.49 74.5131 34.9134 72.0639 35.7177 70.0812C37.0234 66.858 35.3626 65.3843 32.2811 64.7057C29.3772 64.0696 25.5958 64.2392 22.765 65.0768C20.3207 65.8084 18.0853 66.7732 18.1898 71.7988C16.7065 69.4026 16.2051 67.0595 16.2051 67.0595C16.2051 67.0595 18.9419 63.8257 20.9997 62.6594C27.7163 61.1009 37.6606 62.0657 37.6606 62.0657C37.6606 62.0657 39.2588 62.8291 41.3166 65.4055Z" fill="url(#paint30_linear_101_225)"/>
<path d="M24.8228 21.7973C25.3346 21.2565 25.8883 20.684 26.5045 20.0902C25.1466 19.7086 24.1752 18.6589 24.1752 18.6589C24.1752 18.6589 24.6557 19.2526 25.3451 20.2175C23.7364 20.2175 20.8847 19.1254 20.8847 19.1254C20.8847 19.1254 24.0498 20.5462 24.8228 21.7973Z" fill="url(#paint31_linear_101_225)"/>
<path d="M44.9308 25.7732C44.8264 24.9038 44.9204 24.098 45.0562 23.3028C45.2233 22.5076 45.4322 21.723 45.8501 20.9703C45.965 21.8079 45.871 22.6349 45.7247 23.4406C45.5576 24.2464 45.3487 25.0416 44.9308 25.7732Z" fill="#E08172"/>
<path d="M35.185 26.2503C35.8639 26.1443 36.5847 26.1337 37.2741 26.3351C37.974 26.4942 38.6216 26.8441 39.1857 27.2894C39.7498 27.7453 40.2303 28.2754 40.5959 28.8904C40.9615 29.5053 41.2435 30.1627 41.3584 30.8624C40.6168 29.6855 39.802 28.6359 38.7783 27.8407C38.2769 27.4272 37.7128 27.1091 37.1174 26.8441C36.5116 26.5472 35.8639 26.4306 35.185 26.2503Z" fill="#E08172"/>
<path d="M15.0247 38.4432L14.7844 40.4895C14.7218 41.1681 14.6382 41.836 14.5964 42.5146C14.4711 43.8611 14.4188 45.2076 14.3248 46.6072C14.095 45.9392 13.9906 45.2501 13.9279 44.5503C13.8548 43.8505 13.8652 43.1508 13.9174 42.4616C14.0428 41.0727 14.3666 39.6837 15.0247 38.4432Z" fill="#E08172"/>
<path d="M18.0644 53.2762C18.0644 54.5167 18.1375 55.6724 18.2524 56.8598C18.3569 58.0473 18.4927 59.2242 18.5449 60.4647C18.2524 59.9134 18.0644 59.3302 17.8972 58.7365C17.7301 58.1427 17.6361 57.5384 17.5734 56.9235C17.5316 56.3085 17.5108 55.683 17.5943 55.068C17.6674 54.4531 17.8032 53.8381 18.0644 53.2762Z" fill="#E08172"/>
<path d="M39.9378 51.1981C40.4287 52.4386 40.5436 53.7957 40.4809 55.121C40.4392 55.7784 40.3556 56.4463 40.2094 57.0825C40.0631 57.7292 39.8856 58.3654 39.5931 58.9697C39.6244 57.6444 39.7393 56.3615 39.802 55.0786C39.8542 54.4425 39.8542 53.7957 39.896 53.1595C39.9169 52.5128 39.9064 51.866 39.9378 51.1981Z" fill="#E08172"/>
<path d="M20.8012 65.4055C20.655 66.0522 20.5505 66.6566 20.5401 67.2821C20.5505 67.8971 20.5818 68.512 20.6758 69.127C20.8534 70.3569 21.1877 71.5656 21.522 72.8273C21.1041 72.3183 20.8012 71.7352 20.5401 71.1308C20.2789 70.5265 20.1118 69.8797 19.9969 69.2224C19.9133 68.565 19.8924 67.8865 20.0178 67.2185C20.1536 66.5612 20.4043 65.925 20.8012 65.4055Z" fill="#E08172"/>
<path d="M38.3187 64.5467C38.6634 65.1086 38.8723 65.766 38.9454 66.4339C39.0185 67.1019 38.9559 67.7911 38.8305 68.4484C38.6738 69.1058 38.4649 69.7419 38.162 70.3251C37.8591 70.9188 37.5144 71.4807 37.0547 71.9578C37.4935 70.7173 37.9008 69.5299 38.162 68.3C38.2978 67.685 38.3709 67.0701 38.4231 66.4551C38.4545 65.8296 38.4023 65.204 38.3187 64.5467Z" fill="#E08172"/>
<path d="M66.0626 78.3194C66.8669 77.45 67.6085 76.5594 68.1517 75.5415C68.674 74.5237 69.1232 73.4528 69.4156 72.3395C70.011 70.1024 70.2304 67.7698 70.2409 65.4055C70.5229 66.5612 70.596 67.7698 70.5751 68.9573C70.5542 70.1554 70.3766 71.3535 70.0737 72.5198C69.7499 73.6861 69.259 74.8099 68.6009 75.8172C67.9323 76.835 67.0445 77.6726 66.0626 78.3194Z" fill="#E08172"/>
<path d="M76.4561 38.0934C77.7095 40.2881 78.1796 42.9493 77.9602 45.5045C77.72 48.0491 76.7276 50.6149 74.9205 52.3962C76.2994 50.2863 77.0619 47.8901 77.2813 45.4409C77.5111 42.9811 77.2186 40.5001 76.4561 38.0934Z" fill="#E08172"/>
<path d="M43.0088 53.2232C44.2727 54.5379 45.8187 55.4815 47.396 56.3297C48.9838 57.1567 50.6342 57.8777 52.3368 58.4184C54.0186 59.0016 55.763 59.4151 57.5284 59.6377C59.2937 59.8604 61.1008 59.871 62.8662 59.4681C61.1739 60.1466 59.2937 60.2845 57.4761 60.1678C55.6481 60.0406 53.8619 59.6165 52.1175 59.0758C50.3939 58.4714 48.7122 57.7398 47.1349 56.7962C45.5993 55.842 44.0638 54.7393 43.0088 53.2232Z" fill="#E08172"/>
<path opacity="0.68" d="M33.3883 36.2697C32.9078 37.8283 31.5498 40.3623 28.1028 39.5565C28.061 39.4505 28.0087 39.3232 27.9565 39.196C30.4635 38.5811 32.4586 37.0543 33.3883 36.2697Z" fill="#F8917F"/>
<g filter="url(#filter2_d_101_225)">
<g filter="url(#filter3_f_101_225)">
<mask id="mask1_101_225" style="mask-type:alpha" maskUnits="userSpaceOnUse" x="-2" y="-10" width="127" height="119">
<rect width="125.349" height="117.688" transform="matrix(-1 0 0 1 124.139 -9.02431)" fill="black" fill-opacity="0.46"/>
</mask>
<g mask="url(#mask1_101_225)">
<path d="M112.536 64.1014C112.181 70.3463 110.843 75.2976 109.172 79.1464C105.37 87.9253 99.8023 91 99.8023 91C99.8023 91 78.587 83.504 64.9449 79.4432C44.1579 85.8896 28.7608 80.249 28.7608 80.249C28.7608 80.249 25.366 78.7329 23.5484 74.5555C22.7023 47.0207 37.0756 25.6248 43.4684 22.5606C45.6203 21.5322 48.0437 20.896 50.4566 20.5568C53.0576 20.1645 55.6377 20.1433 57.8522 20.3341C59.7011 20.5037 61.2993 20.8324 62.4274 21.2565C66.1566 22.6985 74.4714 29.06 76.0487 37.3936C76.0487 37.3936 89.1163 44.317 111.731 48.9079C112.609 54.6757 112.807 59.7225 112.536 64.1014Z" fill="url(#paint32_linear_101_225)"/>
<path d="M109.172 79.1464C105.37 87.9253 99.8023 91 99.8023 91C99.8023 91 78.587 83.504 64.9449 79.4432C44.1579 85.8896 28.7608 80.249 28.7608 80.249C28.7608 80.249 25.366 78.7329 23.5484 74.5555C22.7023 47.0207 37.0756 25.6248 43.4684 22.5606C45.6203 21.5322 48.0437 20.896 50.4566 20.5568C45.4009 24.3313 45.3487 28.9964 44.3668 31.0003C43.3222 33.1208 47.6258 36.768 43.7714 43.3734C45.7352 49.7985 49.0883 56.8916 63.0333 59.3726C58.5103 60.7828 52.4726 60.2951 44.5652 54.5591C45.2651 58.323 45.4113 60.1148 41.8911 62.9669C42.685 63.7727 46.5813 72.2335 40.0631 76.2307C40.6481 77.4499 47.0409 78.9237 51.2714 76.2307C55.5124 78.3724 67.1176 76.941 70.5751 68.0031C79.8614 79.9522 95.4047 86.7484 109.172 79.1464Z" fill="url(#paint33_linear_101_225)"/>
<path d="M112.536 64.1014C106.206 44.3594 77.4171 41.9103 77.4171 41.9103C77.4171 41.9103 78.7541 48.5581 74.3565 53.0323C76.6337 46.5436 74.5445 29.7279 60.5263 27.0879C60.0771 24.8932 58.7505 22.1153 57.8418 20.3235C59.6907 20.4931 61.2888 20.8218 62.417 21.2459C66.1461 22.6879 74.4609 29.0494 76.0382 37.383C76.0382 37.383 89.1059 44.3064 111.721 48.8973C112.609 54.6757 112.807 59.7225 112.536 64.1014Z" fill="url(#paint34_linear_101_225)"/>
<path d="M36.4489 32.7709C34.8298 35.9516 29.21 38.6659 18.9732 36.7574C15.735 36.1531 13.6563 34.955 12.3401 33.6191C9.46754 30.7458 10.1047 27.1515 10.1047 27.1515C10.1047 27.1515 12.7057 22.1365 17.6779 18.8498C18.5658 18.256 19.5163 17.7259 20.54 17.2912C24.4467 17.2912 28.3743 17.8213 36.4489 20.8006C36.4489 20.79 38.0889 29.6007 36.4489 32.7709Z" fill="url(#paint35_linear_101_225)"/>
<path d="M36.4489 32.7709C34.8298 35.9516 29.21 38.6659 18.9731 36.7574C15.735 36.1531 13.6563 34.955 12.3401 33.6191C17.939 32.8875 15.8812 29.94 17.939 27.3424C20.1013 24.5857 20.634 22.0517 18.5344 20.8854C17.6465 20.3977 17.5212 19.6131 17.6779 18.8498C18.5658 18.256 19.5163 17.7259 20.54 17.2912C24.4467 17.2912 28.3743 17.8213 36.4489 20.8006C36.4489 20.79 38.0888 29.6007 36.4489 32.7709Z" fill="url(#paint36_linear_101_225)"/>
<path d="M35.7177 50.4029C34.4642 52.6612 27.6849 54.4319 20.7176 52.8733C20.1848 52.7461 19.673 52.6082 19.182 52.4492C13.3429 50.5407 10.8986 46.0346 10.8986 46.0346C10.8986 46.0346 10.4599 42.5782 11.2537 39.4293C11.4313 38.7189 11.6611 38.0297 11.9849 37.3936C14.0845 35.2519 16.5497 34.8384 16.5497 34.8384C16.5497 34.8384 25.8986 34.8384 31.1529 37.3936C38.2351 40.8288 36.9816 48.1552 35.7177 50.4029Z" fill="url(#paint37_linear_101_225)"/>
<path d="M35.7177 50.4029C34.4642 52.6612 27.685 54.4319 20.7176 52.8733C20.1849 52.7461 19.6731 52.6082 19.1821 52.4492C24.0916 50.6786 26.3583 47.0419 26.7657 44.1368C27.2462 40.7122 23.0575 39.4187 18.8061 37.9555C14.9829 36.6514 15.1814 36.3121 11.2433 39.4187C11.4209 38.7083 11.6507 38.0191 11.9745 37.383C14.0741 35.2413 16.5393 34.8278 16.5393 34.8278C16.5393 34.8278 25.8883 34.8278 31.1425 37.383C38.2351 40.8288 36.9817 48.1552 35.7177 50.4029Z" fill="url(#paint38_linear_101_225)"/>
<path d="M42.4238 57.0401C40.4809 61.6416 37.953 63.4864 34.8924 64.3452C32.5526 64.992 29.8889 65.0556 26.9328 65.3313C22.2218 65.7554 18.8269 64.5043 16.2572 62.405C15.1291 61.4931 14.1472 60.4117 13.2907 59.256C12.9459 57.5278 13.2907 52.9369 13.2907 52.9369C13.2907 52.9369 17.4167 48.9928 20.7698 48.7065C37.2532 47.2539 41.6404 50.6786 41.6404 50.6786C41.6404 50.6786 42.8417 53.6261 42.4238 57.0401Z" fill="url(#paint39_linear_101_225)"/>
<path d="M42.4238 57.0401C40.4809 61.6416 37.953 63.4864 34.8924 64.3452C36.1459 62.3838 37.5561 59.924 37.8068 57.39C38.0888 54.4955 36.1877 53.5943 31.7065 51.9084C27.5595 50.3605 22.9843 50.9118 19.3178 52.8733C16.5497 54.347 13.9592 55.5981 16.2677 62.3944C15.1395 61.4825 14.1576 60.4011 13.3011 59.2454C12.9564 57.5172 13.3011 52.9263 13.3011 52.9263C13.3011 52.9263 17.4272 48.9821 20.7802 48.6959C37.2636 47.2433 41.6509 50.668 41.6509 50.668C41.6509 50.668 42.8417 53.6261 42.4238 57.0401Z" fill="url(#paint40_linear_101_225)"/>
<path d="M41.3166 65.4055C41.3166 68.1409 40.2721 71.4595 40.2721 71.4595C40.2721 71.4595 40.2721 72.2865 36.334 75.0644C34.8403 75.6051 32.8451 75.9656 30.7351 76.114C27.3402 76.3791 23.6633 76.1246 21.3653 75.2658C20.0073 74.3116 18.9627 73.0393 18.2002 71.7988C16.7169 69.4026 16.2155 67.0595 16.2155 67.0595C16.2155 67.0595 18.9523 63.8257 21.0101 62.6594C27.7267 61.1009 37.671 62.0657 37.671 62.0657C37.671 62.0657 39.2588 62.8291 41.3166 65.4055Z" fill="url(#paint41_linear_101_225)"/>
<path d="M62.417 21.2459C62.417 21.2459 60.986 22.0941 58.9072 22.6455C56.6092 23.2392 53.4963 23.4937 50.6342 21.8397C50.0806 23.3452 48.8898 24.4797 47.7094 25.2855C46.1321 26.3457 44.5444 26.8335 44.5444 26.8335C44.5444 26.8335 44.1788 29.834 41.5778 31.2441C44.2937 37.8707 40.763 44.9214 38.4127 47.8689C36.9712 49.6819 34.8611 50.2863 33.1585 49.5971C32.6571 49.4063 32.187 49.0882 31.7797 48.6535C31.3305 48.1658 30.944 47.5508 30.6933 46.7768C30.0665 44.9214 29.21 42.1541 27.9565 39.196C27.2775 37.5738 26.4732 35.9092 25.5226 34.2976C25.5331 34.287 25.5331 34.2658 25.5226 34.2658C24.6557 32.7709 23.6738 31.3395 22.5352 30.046C21.0728 28.0315 21.3652 26.0383 21.3652 26.0383C21.3652 26.0383 30.4008 12.1702 47.2916 9C57.1106 11.7461 62.417 21.2459 62.417 21.2459Z" fill="url(#paint42_linear_101_225)"/>
<path d="M31.7797 48.6535C31.3305 48.1658 30.944 47.5508 30.6933 46.7768C30.0979 45.0062 29.2727 42.3768 28.1028 39.5565C28.061 39.4505 28.0087 39.3232 27.9565 39.196C30.4635 38.5705 32.4691 37.0543 33.3883 36.2697C33.7539 35.9622 33.9419 35.7608 33.9419 35.7608C33.9419 35.7608 36.9398 39.9912 37.3368 43.4582C37.6919 46.639 35.958 49.332 31.7797 48.6535Z" fill="url(#paint43_linear_101_225)"/>
<path d="M47.7094 25.2855C46.1321 26.3457 44.5443 26.8335 44.5443 26.8335C44.5443 26.8335 44.1787 29.834 41.5777 31.2441C44.2936 37.8707 40.763 44.9214 38.4127 47.8689C36.9712 49.6819 34.8611 50.2863 33.1585 49.5971C36.8667 49.3639 39.6662 46.5012 40.5958 42.0163C41.5464 37.3406 40.9823 28.0209 30.0665 29.6961C32.6362 29.007 36.1459 25.5612 30.6828 22.9635C33.2838 24.151 44.0429 27.0879 46.4559 18.0122C46.4559 21.1293 46.3723 25.084 47.7094 25.2855Z" fill="url(#paint44_linear_101_225)"/>
<path d="M62.417 21.2459C62.417 21.2459 60.986 22.0941 58.9072 22.6455C57.6015 20.1115 54.3947 16.2945 50.5402 13.6439C45.6725 11.6506 41.8076 12.9335 36.24 15.5418C30.6829 18.1394 24.8959 23.271 23.7364 26.5366C22.671 29.5795 23.726 28.2542 25.5226 34.2764C24.6557 32.7815 23.6738 31.3501 22.5352 30.0566C21.0728 28.0422 21.3652 26.0489 21.3652 26.0489C21.3652 26.0489 30.4008 12.1808 47.2916 9.0106C57.1106 11.7461 62.417 21.2459 62.417 21.2459Z" fill="url(#paint45_linear_101_225)"/>
<path d="M41.3166 65.4055C41.3166 68.1409 40.2721 71.4595 40.2721 71.4595C40.2721 71.4595 40.2721 72.2865 36.334 75.0644C34.8403 75.6051 32.8451 75.9656 30.7351 76.114C32.49 74.5131 34.9134 72.0639 35.7177 70.0812C37.0234 66.858 35.3626 65.3843 32.2811 64.7057C29.3772 64.0696 25.5958 64.2392 22.765 65.0768C20.3207 65.8084 18.0853 66.7732 18.1898 71.7988C16.7065 69.4026 16.2051 67.0595 16.2051 67.0595C16.2051 67.0595 18.9419 63.8257 20.9997 62.6594C27.7163 61.1009 37.6606 62.0657 37.6606 62.0657C37.6606 62.0657 39.2588 62.8291 41.3166 65.4055Z" fill="url(#paint46_linear_101_225)"/>
<path d="M24.8228 21.7973C25.3346 21.2565 25.8883 20.684 26.5045 20.0902C25.1466 19.7086 24.1752 18.6589 24.1752 18.6589C24.1752 18.6589 24.6557 19.2526 25.3451 20.2175C23.7364 20.2175 20.8847 19.1254 20.8847 19.1254C20.8847 19.1254 24.0498 20.5462 24.8228 21.7973Z" fill="url(#paint47_linear_101_225)"/>
<path d="M44.9308 25.7732C44.8264 24.9038 44.9204 24.098 45.0562 23.3028C45.2233 22.5076 45.4322 21.723 45.8501 20.9703C45.965 21.8079 45.871 22.6349 45.7247 23.4406C45.5576 24.2464 45.3487 25.0416 44.9308 25.7732Z" fill="#E08172"/>
<path d="M35.185 26.2503C35.8639 26.1443 36.5847 26.1337 37.2741 26.3351C37.974 26.4942 38.6216 26.8441 39.1857 27.2894C39.7498 27.7453 40.2303 28.2754 40.5959 28.8904C40.9615 29.5053 41.2435 30.1627 41.3584 30.8624C40.6168 29.6855 39.802 28.6359 38.7783 27.8407C38.2769 27.4272 37.7128 27.1091 37.1174 26.8441C36.5116 26.5472 35.8639 26.4306 35.185 26.2503Z" fill="#E08172"/>
<path d="M15.0247 38.4432L14.7844 40.4895C14.7218 41.1681 14.6382 41.836 14.5964 42.5146C14.4711 43.8611 14.4188 45.2076 14.3248 46.6072C14.095 45.9392 13.9906 45.2501 13.9279 44.5503C13.8548 43.8505 13.8652 43.1508 13.9174 42.4616C14.0428 41.0727 14.3666 39.6837 15.0247 38.4432Z" fill="#E08172"/>
<path d="M18.0644 53.2762C18.0644 54.5167 18.1375 55.6724 18.2524 56.8598C18.3569 58.0473 18.4927 59.2242 18.5449 60.4647C18.2524 59.9134 18.0644 59.3302 17.8972 58.7365C17.7301 58.1427 17.6361 57.5384 17.5734 56.9235C17.5316 56.3085 17.5108 55.683 17.5943 55.068C17.6674 54.4531 17.8032 53.8381 18.0644 53.2762Z" fill="#E08172"/>
<path d="M39.9378 51.1981C40.4287 52.4386 40.5436 53.7957 40.4809 55.121C40.4392 55.7784 40.3556 56.4463 40.2094 57.0825C40.0631 57.7292 39.8856 58.3654 39.5931 58.9697C39.6244 57.6444 39.7393 56.3615 39.802 55.0786C39.8542 54.4425 39.8542 53.7957 39.896 53.1595C39.9169 52.5128 39.9064 51.866 39.9378 51.1981Z" fill="#E08172"/>
<path d="M20.8012 65.4055C20.655 66.0522 20.5505 66.6566 20.5401 67.2821C20.5505 67.8971 20.5818 68.512 20.6758 69.127C20.8534 70.3569 21.1877 71.5656 21.522 72.8273C21.1041 72.3183 20.8012 71.7352 20.5401 71.1308C20.2789 70.5265 20.1118 69.8797 19.9969 69.2224C19.9133 68.565 19.8924 67.8865 20.0178 67.2185C20.1536 66.5612 20.4043 65.925 20.8012 65.4055Z" fill="#E08172"/>
<path d="M38.3187 64.5467C38.6634 65.1086 38.8723 65.766 38.9454 66.4339C39.0185 67.1019 38.9559 67.7911 38.8305 68.4484C38.6738 69.1058 38.4649 69.7419 38.162 70.3251C37.8591 70.9188 37.5144 71.4807 37.0547 71.9578C37.4935 70.7173 37.9008 69.5299 38.162 68.3C38.2978 67.685 38.3709 67.0701 38.4231 66.4551C38.4545 65.8296 38.4023 65.204 38.3187 64.5467Z" fill="#E08172"/>
<path d="M66.0626 78.3194C66.8669 77.45 67.6085 76.5594 68.1517 75.5415C68.674 74.5237 69.1232 73.4528 69.4156 72.3395C70.011 70.1024 70.2304 67.7698 70.2409 65.4055C70.5229 66.5612 70.596 67.7698 70.5751 68.9573C70.5542 70.1554 70.3766 71.3535 70.0737 72.5198C69.7499 73.6861 69.259 74.8099 68.6009 75.8172C67.9323 76.835 67.0445 77.6726 66.0626 78.3194Z" fill="#E08172"/>
<path d="M76.4561 38.0934C77.7095 40.2881 78.1796 42.9493 77.9602 45.5045C77.72 48.0491 76.7276 50.6149 74.9205 52.3962C76.2994 50.2863 77.0619 47.8901 77.2813 45.4409C77.5111 42.9811 77.2186 40.5001 76.4561 38.0934Z" fill="#E08172"/>
<path d="M43.0088 53.2232C44.2727 54.5379 45.8187 55.4815 47.396 56.3297C48.9838 57.1567 50.6342 57.8777 52.3368 58.4184C54.0186 59.0016 55.763 59.4151 57.5284 59.6377C59.2937 59.8604 61.1008 59.871 62.8662 59.4681C61.1739 60.1466 59.2937 60.2845 57.4761 60.1678C55.6481 60.0406 53.8619 59.6165 52.1175 59.0758C50.3939 58.4714 48.7122 57.7398 47.1349 56.7962C45.5993 55.842 44.0638 54.7393 43.0088 53.2232Z" fill="#E08172"/>
<path opacity="0.68" d="M33.3883 36.2697C32.9078 37.8283 31.5498 40.3623 28.1028 39.5565C28.061 39.4505 28.0087 39.3232 27.9565 39.196C30.4635 38.5811 32.4586 37.0543 33.3883 36.2697Z" fill="#F8917F"/>
</g>
</g>
<g style="mix-blend-mode:saturation">
<rect width="125.349" height="117.688" transform="matrix(-1 0 0 1 124.139 -9.02431)" fill="black"/>
</g>
</g>
</g>
</g>
</g>
<defs>
<filter id="filter0_f_101_225" x="0" y="0" width="120.604" height="100" filterUnits="userSpaceOnUse" color-interpolation-filters="sRGB">
<feFlood flood-opacity="0" result="BackgroundImageFix"/>
<feBlend mode="normal" in="SourceGraphic" in2="BackgroundImageFix" result="shape"/>
<feGaussianBlur stdDeviation="4.5" result="effect1_foregroundBlur_101_225"/>
</filter>
<filter id="filter1_d_101_225" x="-5.20984" y="-9.02431" width="133.349" height="125.688" filterUnits="userSpaceOnUse" color-interpolation-filters="sRGB">
<feFlood flood-opacity="0" result="BackgroundImageFix"/>
<feColorMatrix in="SourceAlpha" type="matrix" values="0 0 0 0 0 0 0 0 0 0 0 0 0 0 0 0 0 0 127 0" result="hardAlpha"/>
<feOffset dy="4"/>
<feGaussianBlur stdDeviation="2"/>
<feComposite in2="hardAlpha" operator="out"/>
<feColorMatrix type="matrix" values="0 0 0 0 0 0 0 0 0 0 0 0 0 0 0 0 0 0 0.25 0"/>
<feBlend mode="normal" in2="BackgroundImageFix" result="effect1_dropShadow_101_225"/>
<feBlend mode="normal" in="SourceGraphic" in2="effect1_dropShadow_101_225" result="shape"/>
</filter>
<filter id="filter2_d_101_225" x="-4.20984" y="-9.02431" width="133.349" height="125.688" filterUnits="userSpaceOnUse" color-interpolation-filters="sRGB">
<feFlood flood-opacity="0" result="BackgroundImageFix"/>
<feColorMatrix in="SourceAlpha" type="matrix" values="0 0 0 0 0 0 0 0 0 0 0 0 0 0 0 0 0 0 127 0" result="hardAlpha"/>
<feOffset dx="1" dy="4"/>
<feGaussianBlur stdDeviation="2"/>
<feComposite in2="hardAlpha" operator="out"/>
<feColorMatrix type="matrix" values="0 0 0 0 0 0 0 0 0 0 0 0 0 0 0 0 0 0 0.25 0"/>
<feBlend mode="normal" in2="BackgroundImageFix" result="effect1_dropShadow_101_225"/>
<feBlend mode="normal" in="SourceGraphic" in2="effect1_dropShadow_101_225" result="shape"/>
</filter>
<filter id="filter3_f_101_225" x="9.04456" y="8" width="104.604" height="84" filterUnits="userSpaceOnUse" color-interpolation-filters="sRGB">
<feFlood flood-opacity="0" result="BackgroundImageFix"/>
<feBlend mode="normal" in="SourceGraphic" in2="BackgroundImageFix" result="shape"/>
<feGaussianBlur stdDeviation="0.5" result="effect1_foregroundBlur_101_225"/>
</filter>
<linearGradient id="paint0_linear_101_225" x1="89.8063" y1="56.7116" x2="50.4068" y2="53.3698" gradientUnits="userSpaceOnUse">
<stop offset="0.00047536" stop-color="#F8C5A1"/>
<stop offset="0.7338" stop-color="#F9BA9A"/>
<stop offset="1" stop-color="#FAB597"/>
</linearGradient>
<linearGradient id="paint1_linear_101_225" x1="22.4585" y1="55.7711" x2="108.128" y2="55.7711" gradientUnits="userSpaceOnUse">
<stop offset="0.00047536" stop-color="#F7B08A"/>
<stop offset="0.3919" stop-color="#F1A583"/>
<stop offset="1" stop-color="#E38C72"/>
</linearGradient>
<linearGradient id="paint2_linear_101_225" x1="56.797" y1="42.2132" x2="111.606" y2="42.2132" gradientUnits="userSpaceOnUse">
<stop offset="0.00047536" stop-color="#F7B08A"/>
<stop offset="0.3919" stop-color="#F1A583"/>
<stop offset="1" stop-color="#E38C72"/>
</linearGradient>
<linearGradient id="paint3_linear_101_225" x1="15.392" y1="31.9161" x2="21.6911" y2="28.7485" gradientUnits="userSpaceOnUse">
<stop offset="0.00047536" stop-color="#F8C5A1"/>
<stop offset="0.7338" stop-color="#F9BA9A"/>
<stop offset="1" stop-color="#FAB597"/>
</linearGradient>
<linearGradient id="paint4_linear_101_225" x1="11.4637" y1="19.8012" x2="23.607" y2="27.2732" gradientUnits="userSpaceOnUse">
<stop offset="0.00047536" stop-color="#F7B08A"/>
<stop offset="0.3919" stop-color="#F1A583"/>
<stop offset="1" stop-color="#E38C72"/>
</linearGradient>
<linearGradient id="paint5_linear_101_225" x1="23.4938" y1="47.9249" x2="21.0135" y2="39.4053" gradientUnits="userSpaceOnUse">
<stop offset="0.00047536" stop-color="#F8C5A1"/>
<stop offset="0.7338" stop-color="#F9BA9A"/>
<stop offset="1" stop-color="#FAB597"/>
</linearGradient>
<linearGradient id="paint6_linear_101_225" x1="10.2061" y1="44.1442" x2="35.6555" y2="44.1442" gradientUnits="userSpaceOnUse">
<stop offset="0.00047536" stop-color="#F7B08A"/>
<stop offset="0.3919" stop-color="#F1A583"/>
<stop offset="1" stop-color="#E38C72"/>
</linearGradient>
<linearGradient id="paint7_linear_101_225" x1="28.6775" y1="57.9855" x2="25.3548" y2="53.6643" gradientUnits="userSpaceOnUse">
<stop offset="0.00047536" stop-color="#F8C5A1"/>
<stop offset="0.7338" stop-color="#F9BA9A"/>
<stop offset="1" stop-color="#FAB597"/>
</linearGradient>
<linearGradient id="paint8_linear_101_225" x1="12.0847" y1="56.3317" x2="41.465" y2="56.3317" gradientUnits="userSpaceOnUse">
<stop offset="0.00047536" stop-color="#F7B08A"/>
<stop offset="0.3919" stop-color="#F1A583"/>
<stop offset="1" stop-color="#E38C72"/>
</linearGradient>
<linearGradient id="paint9_linear_101_225" x1="31.6452" y1="72.9726" x2="26.055" y2="64.9081" gradientUnits="userSpaceOnUse">
<stop offset="0.00047536" stop-color="#F8C5A1"/>
<stop offset="0.7338" stop-color="#F9BA9A"/>
<stop offset="1" stop-color="#FAB597"/>
</linearGradient>
<linearGradient id="paint10_linear_101_225" x1="20.2917" y1="29.444" x2="61.3743" y2="29.444" gradientUnits="userSpaceOnUse">
<stop offset="0.00047536" stop-color="#F8C5A1"/>
<stop offset="0.7338" stop-color="#F9BA9A"/>
<stop offset="1" stop-color="#FAB597"/>
</linearGradient>
<linearGradient id="paint11_linear_101_225" x1="33.8769" y1="47.1462" x2="29.95" y2="36.9467" gradientUnits="userSpaceOnUse">
<stop offset="0.00047536" stop-color="#F7B08A"/>
<stop offset="0.3919" stop-color="#F1A583"/>
<stop offset="1" stop-color="#E38C72"/>
</linearGradient>
<linearGradient id="paint12_linear_101_225" x1="29.0196" y1="33.9448" x2="46.6614" y2="33.9448" gradientUnits="userSpaceOnUse">
<stop offset="0.00047536" stop-color="#F7B08A"/>
<stop offset="0.3919" stop-color="#F1A583"/>
<stop offset="1" stop-color="#E38C72"/>
</linearGradient>
<linearGradient id="paint13_linear_101_225" x1="20.2917" y1="21.6447" x2="61.3743" y2="21.6447" gradientUnits="userSpaceOnUse">
<stop offset="0.00047536" stop-color="#F7B08A"/>
<stop offset="0.3919" stop-color="#F1A583"/>
<stop offset="1" stop-color="#E38C72"/>
</linearGradient>
<linearGradient id="paint14_linear_101_225" x1="15.1648" y1="68.9457" x2="40.2721" y2="68.9457" gradientUnits="userSpaceOnUse">
<stop offset="0.00047536" stop-color="#F7B08A"/>
<stop offset="0.3919" stop-color="#F1A583"/>
<stop offset="1" stop-color="#E38C72"/>
</linearGradient>
<linearGradient id="paint15_linear_101_225" x1="15.9346" y1="15.0776" x2="22.8663" y2="19.616" gradientUnits="userSpaceOnUse">
<stop offset="0.00047536" stop-color="#F59F77"/>
<stop offset="0.3758" stop-color="#EE9470"/>
<stop offset="1" stop-color="#DB7960"/>
</linearGradient>
<linearGradient id="paint16_linear_101_225" x1="90.8508" y1="56.7116" x2="51.4514" y2="53.3698" gradientUnits="userSpaceOnUse">
<stop offset="0.00047536" stop-color="#F8C5A1"/>
<stop offset="0.7338" stop-color="#F9BA9A"/>
<stop offset="1" stop-color="#FAB597"/>
</linearGradient>
<linearGradient id="paint17_linear_101_225" x1="23.5031" y1="55.7711" x2="109.173" y2="55.7711" gradientUnits="userSpaceOnUse">
<stop offset="0.00047536" stop-color="#F7B08A"/>
<stop offset="0.3919" stop-color="#F1A583"/>
<stop offset="1" stop-color="#E38C72"/>
</linearGradient>
<linearGradient id="paint18_linear_101_225" x1="57.8415" y1="42.2132" x2="112.65" y2="42.2132" gradientUnits="userSpaceOnUse">
<stop offset="0.00047536" stop-color="#F7B08A"/>
<stop offset="0.3919" stop-color="#F1A583"/>
<stop offset="1" stop-color="#E38C72"/>
</linearGradient>
<linearGradient id="paint19_linear_101_225" x1="16.4365" y1="31.9161" x2="22.7356" y2="28.7485" gradientUnits="userSpaceOnUse">
<stop offset="0.00047536" stop-color="#F8C5A1"/>
<stop offset="0.7338" stop-color="#F9BA9A"/>
<stop offset="1" stop-color="#FAB597"/>
</linearGradient>
<linearGradient id="paint20_linear_101_225" x1="12.5082" y1="19.8012" x2="24.6515" y2="27.2732" gradientUnits="userSpaceOnUse">
<stop offset="0.00047536" stop-color="#F7B08A"/>
<stop offset="0.3919" stop-color="#F1A583"/>
<stop offset="1" stop-color="#E38C72"/>
</linearGradient>
<linearGradient id="paint21_linear_101_225" x1="24.5383" y1="47.9249" x2="22.058" y2="39.4053" gradientUnits="userSpaceOnUse">
<stop offset="0.00047536" stop-color="#F8C5A1"/>
<stop offset="0.7338" stop-color="#F9BA9A"/>
<stop offset="1" stop-color="#FAB597"/>
</linearGradient>
<linearGradient id="paint22_linear_101_225" x1="11.2507" y1="44.1442" x2="36.7" y2="44.1442" gradientUnits="userSpaceOnUse">
<stop offset="0.00047536" stop-color="#F7B08A"/>
<stop offset="0.3919" stop-color="#F1A583"/>
<stop offset="1" stop-color="#E38C72"/>
</linearGradient>
<linearGradient id="paint23_linear_101_225" x1="29.722" y1="57.9855" x2="26.3993" y2="53.6643" gradientUnits="userSpaceOnUse">
<stop offset="0.00047536" stop-color="#F8C5A1"/>
<stop offset="0.7338" stop-color="#F9BA9A"/>
<stop offset="1" stop-color="#FAB597"/>
</linearGradient>
<linearGradient id="paint24_linear_101_225" x1="13.1292" y1="56.3317" x2="42.5095" y2="56.3317" gradientUnits="userSpaceOnUse">
<stop offset="0.00047536" stop-color="#F7B08A"/>
<stop offset="0.3919" stop-color="#F1A583"/>
<stop offset="1" stop-color="#E38C72"/>
</linearGradient>
<linearGradient id="paint25_linear_101_225" x1="32.6898" y1="72.9726" x2="27.0996" y2="64.9081" gradientUnits="userSpaceOnUse">
<stop offset="0.00047536" stop-color="#F8C5A1"/>
<stop offset="0.7338" stop-color="#F9BA9A"/>
<stop offset="1" stop-color="#FAB597"/>
</linearGradient>
<linearGradient id="paint26_linear_101_225" x1="21.3362" y1="29.444" x2="62.4188" y2="29.444" gradientUnits="userSpaceOnUse">
<stop offset="0.00047536" stop-color="#F8C5A1"/>
<stop offset="0.7338" stop-color="#F9BA9A"/>
<stop offset="1" stop-color="#FAB597"/>
</linearGradient>
<linearGradient id="paint27_linear_101_225" x1="34.9214" y1="47.1462" x2="30.9946" y2="36.9467" gradientUnits="userSpaceOnUse">
<stop offset="0.00047536" stop-color="#F7B08A"/>
<stop offset="0.3919" stop-color="#F1A583"/>
<stop offset="1" stop-color="#E38C72"/>
</linearGradient>
<linearGradient id="paint28_linear_101_225" x1="30.0641" y1="33.9448" x2="47.7059" y2="33.9448" gradientUnits="userSpaceOnUse">
<stop offset="0.00047536" stop-color="#F7B08A"/>
<stop offset="0.3919" stop-color="#F1A583"/>
<stop offset="1" stop-color="#E38C72"/>
</linearGradient>
<linearGradient id="paint29_linear_101_225" x1="21.3362" y1="21.6447" x2="62.4188" y2="21.6447" gradientUnits="userSpaceOnUse">
<stop offset="0.00047536" stop-color="#F7B08A"/>
<stop offset="0.3919" stop-color="#F1A583"/>
<stop offset="1" stop-color="#E38C72"/>
</linearGradient>
<linearGradient id="paint30_linear_101_225" x1="16.2095" y1="68.9457" x2="41.3168" y2="68.9457" gradientUnits="userSpaceOnUse">
<stop offset="0.00047536" stop-color="#F7B08A"/>
<stop offset="0.3919" stop-color="#F1A583"/>
<stop offset="1" stop-color="#E38C72"/>
</linearGradient>
<linearGradient id="paint31_linear_101_225" x1="16.9792" y1="15.0776" x2="23.9108" y2="19.616" gradientUnits="userSpaceOnUse">
<stop offset="0.00047536" stop-color="#F59F77"/>
<stop offset="0.3758" stop-color="#EE9470"/>
<stop offset="1" stop-color="#DB7960"/>
</linearGradient>
<linearGradient id="paint32_linear_101_225" x1="90.8508" y1="56.7116" x2="51.4514" y2="53.3698" gradientUnits="userSpaceOnUse">
<stop offset="0.00047536" stop-color="#F8C5A1"/>
<stop offset="0.7338" stop-color="#F9BA9A"/>
<stop offset="1" stop-color="#FAB597"/>
</linearGradient>
<linearGradient id="paint33_linear_101_225" x1="23.5031" y1="55.7711" x2="109.173" y2="55.7711" gradientUnits="userSpaceOnUse">
<stop offset="0.00047536" stop-color="#F7B08A"/>
<stop offset="0.3919" stop-color="#F1A583"/>
<stop offset="1" stop-color="#E38C72"/>
</linearGradient>
<linearGradient id="paint34_linear_101_225" x1="57.8415" y1="42.2132" x2="112.65" y2="42.2132" gradientUnits="userSpaceOnUse">
<stop offset="0.00047536" stop-color="#F7B08A"/>
<stop offset="0.3919" stop-color="#F1A583"/>
<stop offset="1" stop-color="#E38C72"/>
</linearGradient>
<linearGradient id="paint35_linear_101_225" x1="16.4365" y1="31.9161" x2="22.7356" y2="28.7485" gradientUnits="userSpaceOnUse">
<stop offset="0.00047536" stop-color="#F8C5A1"/>
<stop offset="0.7338" stop-color="#F9BA9A"/>
<stop offset="1" stop-color="#FAB597"/>
</linearGradient>
<linearGradient id="paint36_linear_101_225" x1="12.5082" y1="19.8012" x2="24.6515" y2="27.2732" gradientUnits="userSpaceOnUse">
<stop offset="0.00047536" stop-color="#F7B08A"/>
<stop offset="0.3919" stop-color="#F1A583"/>
<stop offset="1" stop-color="#E38C72"/>
</linearGradient>
<linearGradient id="paint37_linear_101_225" x1="24.5383" y1="47.9249" x2="22.058" y2="39.4053" gradientUnits="userSpaceOnUse">
<stop offset="0.00047536" stop-color="#F8C5A1"/>
<stop offset="0.7338" stop-color="#F9BA9A"/>
<stop offset="1" stop-color="#FAB597"/>
</linearGradient>
<linearGradient id="paint38_linear_101_225" x1="11.2507" y1="44.1442" x2="36.7" y2="44.1442" gradientUnits="userSpaceOnUse">
<stop offset="0.00047536" stop-color="#F7B08A"/>
<stop offset="0.3919" stop-color="#F1A583"/>
<stop offset="1" stop-color="#E38C72"/>
</linearGradient>
<linearGradient id="paint39_linear_101_225" x1="29.722" y1="57.9855" x2="26.3993" y2="53.6643" gradientUnits="userSpaceOnUse">
<stop offset="0.00047536" stop-color="#F8C5A1"/>
<stop offset="0.7338" stop-color="#F9BA9A"/>
<stop offset="1" stop-color="#FAB597"/>
</linearGradient>
<linearGradient id="paint40_linear_101_225" x1="13.1292" y1="56.3317" x2="42.5095" y2="56.3317" gradientUnits="userSpaceOnUse">
<stop offset="0.00047536" stop-color="#F7B08A"/>
<stop offset="0.3919" stop-color="#F1A583"/>
<stop offset="1" stop-color="#E38C72"/>
</linearGradient>
<linearGradient id="paint41_linear_101_225" x1="32.6898" y1="72.9726" x2="27.0996" y2="64.9081" gradientUnits="userSpaceOnUse">
<stop offset="0.00047536" stop-color="#F8C5A1"/>
<stop offset="0.7338" stop-color="#F9BA9A"/>
<stop offset="1" stop-color="#FAB597"/>
</linearGradient>
<linearGradient id="paint42_linear_101_225" x1="21.3362" y1="29.444" x2="62.4188" y2="29.444" gradientUnits="userSpaceOnUse">
<stop offset="0.00047536" stop-color="#F8C5A1"/>
<stop offset="0.7338" stop-color="#F9BA9A"/>
<stop offset="1" stop-color="#FAB597"/>
</linearGradient>
<linearGradient id="paint43_linear_101_225" x1="34.9214" y1="47.1462" x2="30.9946" y2="36.9467" gradientUnits="userSpaceOnUse">
<stop offset="0.00047536" stop-color="#F7B08A"/>
<stop offset="0.3919" stop-color="#F1A583"/>
<stop offset="1" stop-color="#E38C72"/>
</linearGradient>
<linearGradient id="paint44_linear_101_225" x1="30.0641" y1="33.9448" x2="47.7059" y2="33.9448" gradientUnits="userSpaceOnUse">
<stop offset="0.00047536" stop-color="#F7B08A"/>
<stop offset="0.3919" stop-color="#F1A583"/>
<stop offset="1" stop-color="#E38C72"/>
</linearGradient>
<linearGradient id="paint45_linear_101_225" x1="21.3362" y1="21.6447" x2="62.4188" y2="21.6447" gradientUnits="userSpaceOnUse">
<stop offset="0.00047536" stop-color="#F7B08A"/>
<stop offset="0.3919" stop-color="#F1A583"/>
<stop offset="1" stop-color="#E38C72"/>
</linearGradient>
<linearGradient id="paint46_linear_101_225" x1="16.2095" y1="68.9457" x2="41.3168" y2="68.9457" gradientUnits="userSpaceOnUse">
<stop offset="0.00047536" stop-color="#F7B08A"/>
<stop offset="0.3919" stop-color="#F1A583"/>
<stop offset="1" stop-color="#E38C72"/>
</linearGradient>
<linearGradient id="paint47_linear_101_225" x1="16.9792" y1="15.0776" x2="23.9108" y2="19.616" gradientUnits="userSpaceOnUse">
<stop offset="0.00047536" stop-color="#F59F77"/>
<stop offset="0.3758" stop-color="#EE9470"/>
<stop offset="1" stop-color="#DB7960"/>
</linearGradient>
</defs>
</svg>
